<svg width="100" height="68" viewBox="0 0 100 68" fill="none" xmlns="http://www.w3.org/2000/svg">
    <g clip-path="url(#clip0_113_30519)">
        <path d="M50.4692 64.6926C52.2048 64.3814 54.005 64.4703 55.6944 64.9592C62.2583 66.8615 80.3621 70.7016 92.4005 59.5191C97.0534 55.19 99.3613 50.3632 99.8783 45.6253C100.894 36.4516 95.2347 27.5536 87.0644 23.1179C84.9411 21.9623 83.3255 20.1044 82.3839 17.9355C80.0205 12.442 73.1704 2.45943 54.402 0.468258C37.1937 -1.35402 26.4016 7.76627 22.0164 12.5398C21.8595 12.7087 21.7118 12.8775 21.5733 13.0376C21.2871 13.3576 20.9824 13.6687 20.6593 13.9531C19.6161 14.8954 18.416 15.6243 17.0774 16.1043C11.8059 17.9977 0.570709 23.8023 0.00756073 39.0028C-0.241699 45.5008 9.85801 72.0439 50.4784 64.7014L50.4692 64.6926Z" fill="#E9F9FF"/>
        <path opacity="0.6" d="M50.4698 64.6907C52.2053 64.3796 54.0056 64.4684 55.695 64.9574C62.2589 66.8596 80.3627 70.6998 92.4011 59.5172C97.0539 55.1881 99.3619 50.3613 99.8789 45.6234C99.8789 45.6234 99.8789 45.6323 99.8789 45.6412C97.3955 53.0192 73.8819 64.5485 55.0026 50.5302C52.15 48.4146 48.5588 47.4901 44.9768 47.8279C39.5299 48.3524 31.1935 48.0501 24.2511 43.01C13.856 35.472 14.77 20.4848 20.6507 13.9424C19.6075 14.8846 18.4073 15.6135 17.0687 16.0936C11.7973 17.987 0.562073 23.7916 -0.00107574 38.9921C-0.250336 45.4901 9.84937 72.0331 50.4698 64.6907Z" fill="#DCF5FF"/>
    </g>
    <defs>
        <clipPath id="clip0_113_30519">
            <rect width="100" height="66.9355" fill="white" transform="matrix(-1 0 0 1 100 0.224609)"/>
        </clipPath>
    </defs>
</svg>