<svg width="160" height="153" viewBox="0 0 160 153" fill="none" xmlns="http://www.w3.org/2000/svg">
    <rect x="8.42188" y="124.695" width="146.529" height="27.7895" rx="13.8947" fill="#E6E7EA"/>
    <path d="M76.8618 67.9877H137.246V99.0253H76.8618V67.9877Z" fill="#6C3F26" stroke="#CE9321" stroke-width="7.23916"/>
    <rect x="23.4766" y="102.644" width="62.5197" height="7.65534" fill="#FFD874"/>
    <path d="M144.479 68.4111C151.304 70.0417 156.378 76.1811 156.378 83.5055C156.378 90.83 151.304 96.9694 144.479 98.6V68.4111Z" fill="#6C3F26" stroke="#CE9321" stroke-width="7.23916"/>
    <path d="M70.6566 69.6596L48.7703 55.7148L35.7707 61.9129L70.5312 84.0605L70.6566 69.6596Z" fill="#FFA98C"/>
    <path d="M63.5752 65.1478L48.7698 55.7146L35.7701 61.9126L60.875 77.9081L63.5752 65.1478Z" fill="#FE7167"/>
    <path opacity="0.5" d="M63.5752 65.1478L55.8506 60.2261L46.0696 68.4749L60.875 77.9081L63.5752 65.1478Z" fill="#FFA081"/>
    <path d="M35.7707 61.9122L70.5312 84.0598L41.49 92.7077L35.7707 61.9122Z" fill="#FE8C70"/>
    <path d="M35.7701 61.9127L60.875 77.9082L41.4894 92.7082L35.7701 61.9127Z" fill="#EA4045"/>
    <path d="M46.0696 68.475L60.875 77.9082L41.4894 92.7082L46.0696 68.475Z" fill="#F96459"/>
    <g clip-path="url(#clip0_112_62359)">
        <path d="M130.309 67.1843L113.571 66.0952L99.1517 77.0528L99.8924 89.5139L128.294 106.102L145.756 76.206L130.309 67.1843Z" fill="#FF9875"/>
        <path d="M134.957 75.2448L120.291 82.0486L99.1517 77.0528L99.8924 89.5139L128.294 106.102L145.756 76.206L134.957 75.2448Z" fill="#FB745B"/>
        <path d="M134.957 75.2446L120.291 82.0484L119.823 101.155L128.294 106.102L145.755 76.2058L134.957 75.2446Z" fill="#F2593D"/>
    </g>
    <path d="M57.0441 101.373L34.297 113.864L21.7281 106.834L57.8558 86.9942L57.0441 101.373Z" fill="#FFA98C"/>
    <path d="M49.6811 105.414L34.2934 113.864L21.7245 106.833L47.8167 92.5049L49.6811 105.414Z" fill="#FE7167"/>
    <path opacity="0.5" d="M49.6811 105.414L41.6528 109.823L32.429 100.955L47.8167 92.5049L49.6811 105.414Z" fill="#FFA081"/>
    <path d="M21.7239 106.834L57.8516 86.9946L29.4344 76.4759L21.7239 106.834Z" fill="#FE8C70"/>
    <path d="M21.7281 106.834L47.8203 92.5054L29.4386 76.4757L21.7281 106.834Z" fill="#EA4045"/>
    <path d="M32.4326 100.955L47.8203 92.5054L29.4386 76.4757L32.4326 100.955Z" fill="#F96459"/>
    <path d="M121.696 99.3587L99.8094 113.304L86.8097 107.105L121.57 84.9578L121.696 99.3587Z" fill="#FFA98C"/>
    <path d="M114.614 103.871L99.8089 113.304L86.8092 107.106L111.914 91.1102L114.614 103.871Z" fill="#FE7167"/>
    <path opacity="0.5" d="M114.614 103.871L106.89 108.792L97.1086 100.543L111.914 91.1102L114.614 103.871Z" fill="#FFA081"/>
    <path d="M86.8097 107.106L121.57 84.9585L92.529 76.3106L86.8097 107.106Z" fill="#FE8C70"/>
    <path d="M86.8092 107.106L111.914 91.1101L92.5285 76.3101L86.8092 107.106Z" fill="#EA4045"/>
    <path d="M97.1086 100.543L111.914 91.1101L92.5285 76.3101L97.1086 100.543Z" fill="#F96459"/>
    <path d="M121.696 99.3587L99.8094 113.304L86.8097 107.105L121.57 84.9578L121.696 99.3587Z" fill="black" fill-opacity="0.16"/>
    <path d="M86.8097 107.106L121.57 84.958L92.529 76.3101L86.8097 107.106Z" fill="black" fill-opacity="0.16"/>
    <path d="M133.88 82.6201L112.489 89.4158L112.207 105.447L119.099 117.281L152.495 88.9197L144.794 82.8267L133.88 82.6201Z" fill="#FF9875"/>
    <path d="M133.879 82.6198L131.762 100.209L112.206 105.447L119.098 117.281L152.494 88.9195L144.793 82.8264L133.879 82.6198Z" fill="#F2593D"/>
    <path d="M133.879 82.6198L131.762 100.209L136.714 102.321L152.494 88.9195L144.793 82.8264L133.879 82.6198Z" fill="#FB745B"/>
    <path d="M80.5278 93.9154L109.443 93.3513L117.668 78.8645L71.744 79.7604L80.5278 93.9154Z" fill="#FF726F"/>
    <path d="M89.8761 93.733L109.436 93.3514L117.661 78.8646L84.494 79.5117L89.8761 93.733Z" fill="#DE4041"/>
    <path d="M80.5234 93.9158L109.458 93.3513L104.066 79.1302L84.5061 79.5118L80.5234 93.9158Z" fill="#EE4742"/>
    <path d="M94.5662 93.6416L109.454 93.3512L104.062 79.13L84.5019 79.5117L94.5662 93.6416Z" fill="#C71312"/>
    <path d="M94.5584 93.6416L94.4625 93.6435L104.054 79.13L84.494 79.5117L94.5584 93.6416Z" fill="#FF6061"/>
    <path d="M94.5584 93.6416L94.4625 93.6435L104.054 79.13L84.494 79.5117L94.5584 93.6416Z" fill="url(#paint0_linear_112_62359)" fill-opacity="0.3"/>
    <path d="M117.674 78.8675L71.75 79.7634L93.3376 52.4804L117.674 78.8675Z" fill="#F74F50"/>
    <path d="M117.667 78.8676L84.5 79.5146L93.331 52.4805L117.667 78.8676Z" fill="#CC0001"/>
    <path d="M104.06 79.133L84.5 79.5146L93.331 52.4805L104.06 79.133Z" fill="#ED2F30"/>
    <path d="M104.06 79.133L84.5 79.5146L93.331 52.4805L104.06 79.133Z" fill="url(#paint1_linear_112_62359)" fill-opacity="0.5"/>
    <path d="M52.0114 107.056H85.386L95.202 91.35H42.1953L52.0114 107.056Z" fill="#FF726F"/>
    <path d="M62.8115 107.056L85.3884 107.056L95.2045 91.35H56.9219L62.8115 107.056Z" fill="#DE4041"/>
    <path d="M52 107.056H85.3973L79.4963 91.35H56.9194L52 107.056Z" fill="#EE4742"/>
    <path d="M68.216 107.056H85.3998L79.4988 91.35H56.9219L68.216 107.056Z" fill="#C71312"/>
    <path d="M68.216 107.056H68.1054L79.4988 91.35H56.9219L68.216 107.056Z" fill="#FF6061"/>
    <path d="M68.216 107.056H68.1054L79.4988 91.35H56.9219L68.216 107.056Z" fill="url(#paint2_linear_112_62359)" fill-opacity="0.3"/>
    <path d="M95.202 91.3533H42.1953L67.7171 61.9048L95.202 91.3533Z" fill="#F74F50"/>
    <path d="M95.2045 91.3533H56.9219L67.7195 61.9048L95.2045 91.3533Z" fill="#CC0001"/>
    <path d="M79.4988 91.3533H56.9219L67.7195 61.9048L79.4988 91.3533Z" fill="#ED2F30"/>
    <path d="M79.4988 91.3533H56.9219L67.7195 61.9048L79.4988 91.3533Z" fill="url(#paint3_linear_112_62359)" fill-opacity="0.5"/>
    <rect x="18.3828" y="102.644" width="122.488" height="38.2767" fill="#FFD874"/>
    <path d="M24.7656 106.472H80.9058V110.812V118.36V133.266H24.7656V106.472Z" fill="#8E4C27"/>
    <rect x="90.5323" y="107.168" width="45.8153" height="29.2278" fill="#884D2C" stroke="#FFBC3D" stroke-width="9.04895"/>
    <rect x="27.9531" y="115.403" width="43.0621" height="2.39229" fill="#6C3F26"/>
    <rect x="27.9531" y="123.377" width="23.9234" height="2.39229" fill="#6C3F26"/>
    <rect x="116.625" y="131.989" width="19.1384" height="2.55183" transform="rotate(-90 116.625 131.989)" fill="#6C3F26"/>
    <rect x="100.047" y="131.989" width="19.1384" height="2.55183" transform="rotate(-90 100.047 131.989)" fill="#6C3F26"/>
    <rect x="108.977" y="128.16" width="11.483" height="2.55183" transform="rotate(-90 108.977 128.16)" fill="#6C3F26"/>
    <rect x="123.008" y="125.609" width="6.37945" height="2.55183" transform="rotate(-90 123.008 125.609)" fill="#6C3F26"/>
    <rect x="45.8125" y="102.643" width="15.9489" height="17.7207" rx="6.78671" fill="#FFBC3D"/>
    <rect x="43.5299" y="103.548" width="14.1391" height="15.9109" rx="5.88181" fill="#FFD874" stroke="#EFAF37" stroke-width="1.80979"/>
    <path fill-rule="evenodd" clip-rule="evenodd" d="M52.0209 112.608C52.8282 112.223 53.3862 111.4 53.3862 110.446C53.3862 109.125 52.3151 108.054 50.9939 108.054C49.6726 108.054 48.6016 109.125 48.6016 110.446C48.6016 111.401 49.1611 112.226 49.9703 112.609V115.573H52.0209V112.608Z" fill="#DD9815"/>
    <path d="M73.2511 16.0772C73.1833 16.1996 73.1097 16.3249 73.0303 16.4526C67.6884 25.793 74.1962 34.3427 78.1746 37.4837C78.1746 37.4837 65.4893 32.6038 56.6821 43.4722C61.7045 32.2135 55.3847 24.0727 51.597 21.4096C63.6813 25.6964 70.7558 20.106 73.0303 16.4526C73.1017 16.3276 73.1753 16.2025 73.2511 16.0772Z" fill="#FFCD44"/>
    <path d="M120.664 36.3371C120.703 36.4169 120.741 36.5007 120.777 36.5884C123.651 42.7625 130.447 42.5256 133.524 41.6183C133.524 41.6183 126.366 46.3883 128.761 54.9113C124.78 48.201 118.264 48.4903 115.504 49.4737C122.136 44.7975 121.834 39.0989 120.777 36.5884C120.739 36.5058 120.701 36.422 120.664 36.3371Z" fill="#FFCD44"/>
    <path d="M34.0127 39.4401C34.0182 39.4907 34.0224 39.5433 34.0255 39.5979C34.3885 43.4903 38.109 44.6727 39.9478 44.7754C39.9478 44.7754 35.1574 45.9744 34.8094 51.0449C33.9507 46.6489 30.3715 45.5488 28.6893 45.5483C33.1771 44.2986 34.1125 41.159 34.0255 39.5979C34.0206 39.5458 34.0164 39.4932 34.0127 39.4401Z" fill="#FFCD44"/>
    <path d="M133.384 96.0978C133.352 96.1588 133.318 96.2214 133.281 96.2853C130.806 100.946 133.987 104.954 135.915 106.391C135.915 106.391 129.812 104.307 125.693 109.789C127.999 104.203 124.911 100.389 123.079 99.1806C128.89 100.99 132.225 98.1126 133.281 96.2853C133.314 96.2229 133.349 96.1604 133.384 96.0978Z" fill="#FFCD44"/>
    <path d="M126.495 5.37058C126.452 5.45366 126.406 5.53875 126.356 5.62549C123.001 11.9663 127.699 17.6242 130.507 19.6824C130.507 19.6824 121.711 16.5681 116.041 23.9793C119.119 16.3545 114.562 10.9687 111.898 9.22898C120.267 11.9528 124.917 8.10801 126.356 5.62549C126.4 5.54064 126.447 5.45567 126.495 5.37058Z" fill="#FFCD44"/>
    <path d="M14.2415 43.1218C14.2177 43.1998 14.191 43.2802 14.1614 43.3628C12.2492 49.341 16.661 53.3006 19.1402 54.5446C19.1402 54.5446 11.772 53.475 8.14611 60.775C9.68501 53.7571 5.4176 50.0032 3.09154 49.0034C10.0729 49.8183 13.3135 45.7256 14.1614 43.3628C14.1869 43.2828 14.2137 43.2025 14.2415 43.1218Z" fill="#FFCD44"/>
    <path d="M103.831 67.7937C103.834 67.8752 103.835 67.96 103.834 68.0476C103.977 74.3225 109.44 76.6255 112.189 76.9922C112.189 76.9922 104.876 78.386 103.831 86.4695C102.995 79.3337 97.7359 77.1781 95.2109 76.9922C102.076 75.484 103.803 70.5578 103.834 68.0476C103.832 67.9637 103.831 67.8791 103.831 67.7937Z" fill="#FFD428"/>
    <ellipse cx="97.5743" cy="36.3965" rx="3.92588" ry="3.92582" fill="#FFCD44"/>
    <defs>
        <linearGradient id="paint0_linear_112_62359" x1="85.3168" y1="79.5256" x2="94.4541" y2="83.4256" gradientUnits="userSpaceOnUse">
            <stop stop-color="white"/>
            <stop offset="1" stop-color="white" stop-opacity="0"/>
        </linearGradient>
        <linearGradient id="paint1_linear_112_62359" x1="84.8448" y1="79.0419" x2="93.1558" y2="62.4717" gradientUnits="userSpaceOnUse">
            <stop stop-color="white"/>
            <stop offset="1" stop-color="white" stop-opacity="0"/>
        </linearGradient>
        <linearGradient id="paint2_linear_112_62359" x1="57.8708" y1="91.3829" x2="68.1394" y2="96.247" gradientUnits="userSpaceOnUse">
            <stop stop-color="white"/>
            <stop offset="1" stop-color="white" stop-opacity="0"/>
        </linearGradient>
        <linearGradient id="paint3_linear_112_62359" x1="57.3304" y1="90.8424" x2="66.518" y2="72.4671" gradientUnits="userSpaceOnUse">
            <stop stop-color="white"/>
            <stop offset="1" stop-color="white" stop-opacity="0"/>
        </linearGradient>
        <clipPath id="clip0_112_62359">
            <rect width="30.6216" height="30.6216" fill="white" transform="matrix(0.863505 0.504341 -0.504354 0.863497 111.633 52.0872)"/>
        </clipPath>
    </defs>
</svg>