<svg width="152" height="149" viewBox="0 0 152 149" fill="none" xmlns="http://www.w3.org/2000/svg">
    <ellipse cx="40.5765" cy="14.6599" rx="40.5765" ry="14.6599" transform="matrix(1 0 -5.73741e-07 -1 32.7695 148.723)" fill="#E6E7EA"/>
    <g clip-path="url(#clip0_0_1)">
        <path d="M101.863 133.516C101.985 133.321 102.218 133.223 102.438 133.284C103.331 133.529 103.93 134.287 104.126 134.923C104.272 135.4 104.065 135.644 103.918 135.742C103.82 135.816 103.71 135.852 103.575 135.852C103.38 135.852 103.159 135.767 102.915 135.571C102.365 135.07 101.79 134.837 101.765 134.837C101.618 134.776 101.508 134.666 101.46 134.519C101.411 134.372 101.423 134.213 101.508 134.079L101.851 133.516H101.863Z" fill="#604B42"/>
        <path d="M98.5761 134.703C98.7595 134.556 99.0164 134.556 99.1998 134.679C99.9581 135.217 100.276 136.122 100.239 136.782C100.215 137.284 99.9336 137.43 99.7746 137.479C99.7257 137.492 99.6645 137.504 99.6156 137.504C99.3588 137.504 99.1142 137.333 98.8818 136.99C98.5272 136.33 98.0502 135.914 98.0502 135.914C97.9401 135.816 97.8667 135.669 97.8667 135.51C97.8667 135.351 97.9401 135.217 98.0624 135.119L98.5761 134.703Z" fill="#604B42"/>
        <path d="M93.7401 135.596C93.9357 135.461 94.1803 135.473 94.3638 135.608C95.0976 136.183 95.3422 137.112 95.2688 137.773C95.2077 138.274 94.9264 138.409 94.7551 138.433C94.7184 138.433 94.6695 138.445 94.6328 138.445C94.3638 138.445 94.1192 138.262 93.899 137.883C93.5933 137.21 93.153 136.77 93.1408 136.745C93.0307 136.635 92.9696 136.489 92.9818 136.33C92.994 136.171 93.0796 136.036 93.2019 135.95L93.7401 135.571V135.596Z" fill="#604B42"/>
        <path d="M87.703 135.449C87.7764 135.315 87.9109 135.229 88.0699 135.192L88.7181 135.082C88.9383 135.045 89.1706 135.156 89.2685 135.363C89.6843 136.195 89.5131 137.149 89.1584 137.712C88.9627 138.042 88.7304 138.115 88.5591 138.115C88.5102 138.115 88.4613 138.115 88.4124 138.103C88.1066 138.03 87.9109 137.736 87.8743 137.235C87.8743 136.489 87.6786 135.902 87.6663 135.889C87.6174 135.743 87.6297 135.584 87.703 135.449Z" fill="#604B42"/>
        <path d="M95.7123 124.747C95.7123 124.747 102.573 130.667 103.258 132.636C103.943 134.605 103.735 134.14 102.83 134.434C101.925 134.727 101.179 135.681 99.6871 135.718C98.195 135.767 97.4734 135.852 96.3972 136.109C95.3209 136.366 95.0274 137.014 93.144 136.757C91.2606 136.501 91.5174 136.537 90.4412 136.501C89.3649 136.464 87.6527 136.721 87.4448 135.852C87.2369 134.984 86.9678 134.226 87.1024 132.599C87.2369 130.973 87.2736 130.239 86.8455 128.27C86.4175 126.301 85.1333 124.76 87.9218 124.197C90.7102 123.635 94.1836 123.39 95.7245 124.76L95.7123 124.747Z" fill="#4F3F37"/>
        <path d="M46.0326 133.517C45.9103 133.321 45.678 133.223 45.4578 133.284C44.565 133.529 43.9658 134.287 43.7701 134.923C43.6233 135.4 43.8312 135.645 43.978 135.742C44.0758 135.816 44.1859 135.853 44.3204 135.853C44.5161 135.853 44.7363 135.767 44.9809 135.571C45.5312 135.07 46.106 134.837 46.1305 134.837C46.2772 134.776 46.3873 134.666 46.4362 134.519C46.4852 134.373 46.4729 134.214 46.3873 134.079L46.0449 133.517H46.0326Z" fill="#604B42"/>
        <path d="M49.3219 134.703C49.1385 134.557 48.8816 134.557 48.6982 134.679C47.9399 135.217 47.6219 136.122 47.6586 136.783C47.6831 137.284 47.9644 137.431 48.1234 137.48C48.1723 137.492 48.2334 137.504 48.2824 137.504C48.5392 137.504 48.7838 137.333 49.0162 136.99C49.3708 136.33 49.8478 135.914 49.8478 135.914C49.9579 135.816 50.0312 135.67 50.0312 135.511C50.0312 135.352 49.9579 135.217 49.8356 135.119L49.3219 134.703Z" fill="#604B42"/>
        <path d="M54.1543 135.596C53.9586 135.461 53.714 135.474 53.5305 135.608C52.7967 136.183 52.5521 137.112 52.6255 137.773C52.6867 138.274 52.9679 138.409 53.1392 138.433C53.1759 138.433 53.2248 138.446 53.2615 138.446C53.5305 138.446 53.7751 138.262 53.9953 137.883C54.301 137.21 54.7413 136.77 54.7535 136.746C54.8636 136.636 54.9247 136.489 54.9125 136.33C54.9003 136.171 54.8147 136.036 54.6924 135.951L54.1543 135.572V135.596Z" fill="#604B42"/>
        <path d="M60.1957 135.449C60.1223 135.315 59.9878 135.229 59.8288 135.192L59.1806 135.082C58.9604 135.046 58.7281 135.156 58.6302 135.364C58.2144 136.195 58.3856 137.149 58.7403 137.712C58.936 138.042 59.1684 138.115 59.3396 138.115C59.3885 138.115 59.4374 138.115 59.4863 138.103C59.7921 138.03 59.9878 137.736 60.0245 137.235C60.0245 136.489 60.2201 135.902 60.2324 135.89C60.2813 135.743 60.2691 135.584 60.1957 135.449Z" fill="#604B42"/>
        <path d="M52.1866 124.747C52.1866 124.747 45.3256 130.667 44.6407 132.636C43.9558 134.605 44.1637 134.14 45.0687 134.434C45.9738 134.727 46.7198 135.681 48.2118 135.718C49.7039 135.767 50.4255 135.852 51.5017 136.109C52.578 136.366 52.8715 137.014 54.7549 136.757C56.6383 136.501 56.3815 136.537 57.4577 136.501C58.534 136.464 60.2462 136.721 60.4541 135.852C60.662 134.984 60.9311 134.226 60.7965 132.599C60.662 130.973 60.6253 130.239 61.0534 128.27C61.4814 126.301 62.7656 124.76 59.9771 124.197C57.1887 123.635 53.7154 123.39 52.1744 124.76L52.1866 124.747Z" fill="#4F3F37"/>
        <path d="M62.9728 113.852C62.9728 113.852 11.3499 91.8871 1.45585 51.5281C-8.45046 11.169 35.2107 10.4719 41.6314 32.5104C48.0522 54.5489 51.9658 79.9628 66.8742 97.5496C81.7825 115.136 62.9728 113.84 62.9728 113.84V113.852Z" fill="#382D28"/>
        <path d="M1.45823 51.5258C11.3523 91.8848 62.9752 113.85 62.9752 113.85C62.9752 113.85 71.8297 114.461 72.5757 109.166C65.6291 104.702 57.2148 98.2811 46.9905 89.2676C6.50922 53.5682 4.51573 32.4225 7.3164 22.5896C1.26255 27.6406 -2.1007 37.021 1.45823 51.5258Z" fill="#302622"/>
        <path d="M14.9102 27.4971C14.9102 27.4971 20.5115 67.1101 53.2635 91.7291C53.2635 91.7291 16.9159 66.7676 14.9102 27.4971Z" fill="#302622"/>
        <path d="M23.1641 25.1985C23.1641 25.1985 28.5453 63.7597 57.6405 93.0628C57.6405 93.0628 28.3496 68.9452 23.1641 25.1985Z" fill="#302622"/>
        <path d="M32.6094 30.324C32.6094 30.324 34.1014 52.9862 46.0135 70.9643C46.0135 70.9643 39.4704 58.8444 32.6094 30.324Z" fill="#302622"/>
        <path d="M10.9727 32.606C10.9727 32.606 21.943 40.3842 38.0132 41.118C38.0132 41.118 24.8659 43.295 10.9727 32.606Z" fill="#302622"/>
        <path d="M41.2678 48.1175C41.2678 48.1175 29.0989 49.9398 14.1172 48.0808C14.1172 48.0808 27.9126 51.5664 41.2678 48.1175Z" fill="#302622"/>
        <path d="M42.0242 53.1794C42.0242 53.1794 36.374 60.6031 23.4102 62.5721C23.4102 62.5721 36.3495 62.8412 42.0242 53.1794Z" fill="#302622"/>
        <path d="M35.5898 77.0677C35.5898 77.0677 42.7811 70.3289 44.6523 61.8413C44.6523 61.8413 41.3502 70.4145 35.5898 77.0677Z" fill="#302622"/>
        <path d="M37.3012 81.0081C37.3012 81.0081 29.2049 99.7567 30.697 109.639C32.5315 121.783 40.6644 133.047 73.9423 133.047C107.232 133.047 115.353 121.771 117.188 109.639C118.68 99.7567 110.583 81.0081 110.583 81.0081L98.8548 56.2178L52.2095 55.0193L37.2889 81.0081H37.3012Z" fill="#9E8574"/>
        <path d="M73.9541 133.06C51.0962 133.06 40.1136 127.753 34.867 120.488C40.3949 124.377 46.0819 126.199 51.3286 127.227C58.3241 128.597 63.6442 129.868 67.9736 128.352C71.2513 127.202 72.8778 126.75 78.4425 128.841C84.0194 130.932 96.0904 129.428 102.695 126.689C106.131 125.258 109.605 123.179 112.43 121.271C106.963 128.12 95.9559 133.048 73.9418 133.048L73.9541 133.06Z" fill="#8E7565"/>
        <path opacity="0.5" d="M96.7394 78.3651L108.199 75.9558L110.584 81.0068C110.584 81.0068 114.192 89.3721 116.148 97.872C108.015 82.9514 96.7272 78.3529 96.7272 78.3529L96.7394 78.3651Z" fill="#8E7565"/>
        <path d="M43.6692 51.9336C43.6692 51.9336 41.7858 55.1501 38.9974 59.8464C36.6981 63.7111 33.8241 70.6088 32.809 74.9138C31.7939 79.2187 32.0996 83.8295 35.4017 87.6208C37.8722 90.4581 41.8347 92.6228 46.0174 94.4206C49.2217 95.7904 55.8748 97.5026 59.7639 95.9372C62.0876 95.0077 62.4423 92.8063 61.9164 91.0941C60.6078 86.9114 51.4475 84.282 49.6375 79.2432C47.2159 72.4678 57.4647 66.4384 57.4647 66.4384C57.3913 63.9679 48.9526 58.2198 48.9526 58.2198L43.6692 51.9458V51.9336Z" fill="#8E7565"/>
        <path d="M91.3428 63.2581C91.3428 63.2581 97.629 63.0624 108.978 56.2381C120.328 49.4137 120.426 38.3333 120.279 36.1319C120.022 32.1083 126.847 29.7112 129.121 34.542C131.396 39.3729 135.579 60.4452 122.737 70.8774C111.229 80.2333 102.081 80.1355 93.96 80.7103L91.3306 63.2581H91.3428Z" fill="#9E8574"/>
        <path d="M122.077 36.4412C123.251 35.365 121.918 31.5859 121.539 30.3629C121.417 29.9838 121.038 29.3723 119.986 29.568C118.763 29.7881 118.91 30.6564 119.216 32.5765C119.521 34.5089 119.546 34.46 119.827 36.0866C119.925 36.6491 121.038 37.3829 122.09 36.429L122.077 36.4412Z" fill="#4F3F37"/>
        <path d="M57.4425 95.0962C57.7482 96.7472 62.3467 98.3127 63.8143 98.863C64.279 99.0342 65.1229 99.1565 65.6244 98.2026C66.1992 97.1019 65.2452 96.6249 63.1417 95.5242C61.0381 94.4235 61.0626 94.4847 59.2647 93.5674C58.641 93.2495 57.1856 93.6164 57.4547 95.084L57.4425 95.0962Z" fill="#4F3F37"/>
        <path d="M53.4059 95.8774C53.4059 97.5407 57.5274 99.7421 58.8238 100.488C59.2274 100.721 60.0223 100.965 60.6705 100.109C61.4165 99.1184 60.5971 98.5069 58.7749 97.1371C56.9526 95.7674 56.9771 95.8163 55.4116 94.6667C54.8735 94.2631 53.4181 94.4098 53.4059 95.8897V95.8774Z" fill="#4F3F37"/>
        <path d="M59.3511 92.4165C59.9503 94.0064 64.8546 94.7647 66.4078 95.046C66.897 95.1316 67.7776 95.1071 68.0955 94.0798C68.4747 92.8813 67.4351 92.5755 65.1236 91.854C62.8122 91.1324 62.8489 91.1813 60.8921 90.5943C60.2072 90.3864 58.813 90.9979 59.3511 92.4165Z" fill="#4F3F37"/>
        <path d="M57.1375 88.9573C58.0548 90.266 61.9684 89.4221 63.2281 89.2019C63.6194 89.1286 64.2798 88.835 64.2187 87.7588C64.1575 86.5236 63.277 86.548 61.3324 86.6092C59.3878 86.6581 59.4245 86.6948 57.7735 86.7559C57.1987 86.7804 56.3303 87.7955 57.1375 88.9573Z" fill="#4F3F37"/>
        <path d="M94.7322 66.4375L95.8206 62.3405C98.817 61.4477 103.256 59.6865 108.992 56.2377C111.438 54.7701 113.358 53.0946 114.875 51.3579C114.875 51.3579 108.259 63.1599 94.7444 66.4375H94.7322Z" fill="#8E7565"/>
        <path d="M135.764 6.36528C136.045 6.07176 136.547 6.2919 136.51 6.69549L136.229 10.7681L121.675 43.3977C121.418 43.9726 120.745 44.2294 120.171 43.9726L118.948 43.4344C118.373 43.1776 118.116 42.505 118.373 41.9301L132.914 9.31271L135.752 6.37751L135.764 6.36528Z" fill="#BFC5CB"/>
        <path d="M131.898 35.0456C131.128 33.6759 126.615 33.0277 125.123 32.8565C124.658 32.8075 123.826 32.9054 123.557 34.0183C123.239 35.3025 124.242 35.5471 126.443 36.1219C128.645 36.6967 128.62 36.6355 130.492 37.1003C131.14 37.2593 132.632 36.3909 131.886 35.0456H131.898Z" fill="#4F3F37"/>
        <path d="M130.994 37.7614C130.321 36.5629 126.212 36.2694 124.891 36.2327C124.475 36.2327 123.754 36.4039 123.583 37.5413C123.387 38.8499 124.28 38.9966 126.261 39.3513C128.242 39.706 128.206 39.6571 129.893 39.9384C130.48 40.0362 131.703 39.0578 130.982 37.7736L130.994 37.7614Z" fill="#4F3F37"/>
        <path d="M132.472 32.2199C131.934 30.63 127.483 30.1285 126.076 29.9084C125.636 29.8472 124.841 29.9084 124.547 30.9846C124.205 32.2199 125.147 32.4767 127.238 33.0882C129.329 33.6997 129.293 33.6508 131.078 34.1522C131.69 34.3234 132.962 33.6263 132.472 32.2199Z" fill="#4F3F37"/>
        <path d="M96.8585 13.4569C93.373 16.1475 94.0823 22.9352 94.0823 22.9352C94.0823 22.9352 100.454 25.3567 103.952 22.6661C107.437 19.9755 108.232 15.1447 106.728 13.1879C105.224 11.2311 100.356 10.7663 96.8585 13.4569Z" fill="#A48B78"/>
        <path d="M99.7833 15.7437C97.6431 17.3947 97.6064 20.9292 97.6064 20.9292C97.6064 20.9292 101.031 21.7975 103.171 20.1465C105.311 18.4954 106.07 15.8904 105.348 14.9609C104.626 14.0315 101.924 14.0926 99.7833 15.7437Z" fill="#4F3F37"/>
        <path d="M51.0277 13.4354C54.5133 16.1261 53.8039 22.9137 53.8039 22.9137C53.8039 22.9137 47.4321 25.3352 43.9343 22.6446C40.4488 19.954 39.6538 15.1232 41.1581 13.1664C42.6624 11.2096 47.5299 10.7448 51.0277 13.4354Z" fill="#A48B78"/>
        <path d="M48.1043 15.7222C50.2446 17.3732 50.2812 20.9077 50.2812 20.9077C50.2812 20.9077 46.8568 21.776 44.7166 20.125C42.5763 18.4739 41.8181 15.8689 42.5397 14.9395C43.2612 14.01 45.9641 14.0711 48.1043 15.7222Z" fill="#4F3F37"/>
        <path d="M73.9024 3.16298C73.9024 3.16298 95.2071 3.16298 102.105 20.2728C105.236 28.0388 103.646 25.8741 108.305 34.1416C120.951 56.6448 92.7489 70.9661 73.9024 70.9661C56.2668 70.9661 26.8536 56.6448 39.4994 34.1416C44.1468 25.8741 42.5691 28.0388 45.7 20.2728C52.928 2.30688 73.9024 3.16298 73.9024 3.16298Z" fill="#A48B78"/>
        <path d="M73.9514 57.4759C73.9514 57.4759 73.9514 59.2371 71.7745 59.0536L68.3745 58.7723C67.3105 58.6867 66.3933 57.9529 66.1242 56.9378C65.3537 53.9415 65.953 49.8322 65.953 49.8322L71.1874 47.643L74.0248 43.9006L76.2873 48.0711L81.9498 49.8322C81.9498 49.8322 82.5491 53.9537 81.7786 56.9378C81.5218 57.9529 80.6045 58.6867 79.5283 58.7723L76.1284 59.0536C73.9514 59.2371 73.9514 57.4759 73.9514 57.4759Z" fill="#EFEFEF"/>
        <path d="M73.9523 24.6614C61.013 24.6614 52.3297 26.9851 48.4283 36.4389C43.683 47.9229 52.8311 52.7537 63.3611 52.7537C73.8912 52.7537 73.9523 45.3668 73.9523 45.3668C73.9523 45.3668 74.0257 52.7537 84.5435 52.7537C95.0613 52.7537 104.222 47.9229 99.4764 36.4389C95.575 26.9973 86.8917 24.6614 73.9523 24.6614Z" fill="#D1B69D"/>
        <path d="M90.8647 39.0056C90.2635 39.0056 89.7762 38.5182 89.7762 37.9171C89.7762 37.3159 90.2635 36.8286 90.8647 36.8286C91.4658 36.8286 91.9531 37.3159 91.9531 37.9171C91.9531 38.5182 91.4658 39.0056 90.8647 39.0056Z" fill="#DBC6B4"/>
        <path d="M94.1537 35.8373C93.5526 35.8373 93.0652 35.35 93.0652 34.7489C93.0652 34.1477 93.5526 33.6604 94.1537 33.6604C94.7549 33.6604 95.2422 34.1477 95.2422 34.7489C95.2422 35.35 94.7549 35.8373 94.1537 35.8373Z" fill="#DBC6B4"/>
        <path d="M95.6459 40.0932C95.0448 40.0932 94.5574 39.6059 94.5574 39.0047C94.5574 38.4036 95.0448 37.9163 95.6459 37.9163C96.2471 37.9163 96.7344 38.4036 96.7344 39.0047C96.7344 39.6059 96.2471 40.0932 95.6459 40.0932Z" fill="#DBC6B4"/>
        <path d="M57.0248 39.0056C56.4237 39.0056 55.9363 38.5182 55.9363 37.9171C55.9363 37.3159 56.4237 36.8286 57.0248 36.8286C57.626 36.8286 58.1133 37.3159 58.1133 37.9171C58.1133 38.5182 57.626 39.0056 57.0248 39.0056Z" fill="#DBC6B4"/>
        <path d="M53.7357 35.8373C53.1346 35.8373 52.6473 35.35 52.6473 34.7489C52.6473 34.1477 53.1346 33.6604 53.7357 33.6604C54.3369 33.6604 54.8242 34.1477 54.8242 34.7489C54.8242 35.35 54.3369 35.8373 53.7357 35.8373Z" fill="#DBC6B4"/>
        <path d="M52.2436 40.0932C51.6424 40.0932 51.1551 39.6059 51.1551 39.0047C51.1551 38.4036 51.6424 37.9163 52.2436 37.9163C52.8447 37.9163 53.332 38.4036 53.332 39.0047C53.332 39.6059 52.8447 40.0932 52.2436 40.0932Z" fill="#DBC6B4"/>
        <path d="M64.3762 27.9533C64.3762 23.0369 71.2372 22.78 73.9645 22.78C76.6796 22.78 83.5039 23.0369 83.5039 27.9533C83.5039 30.4605 78.8932 36.4409 73.94 36.4409C68.9869 36.4409 64.3762 30.4605 64.3762 27.9533Z" fill="#4F3F37"/>
        <path d="M69.9649 28.7215C68.2628 28.7215 66.8829 27.8126 66.8829 26.6913C66.8829 25.5701 68.2628 24.6611 69.9649 24.6611C71.667 24.6611 73.0469 25.5701 73.0469 26.6913C73.0469 27.8126 71.667 28.7215 69.9649 28.7215Z" fill="#6D5A50"/>
        <path d="M75.7109 0.202148C75.7109 0.202148 73.7541 2.24456 75.7109 4.07906H71.7973C71.7973 4.07906 71.3081 0.263298 75.7109 0.202148Z" fill="#A48B78"/>
        <path d="M90.2655 27.7779C88.354 27.7779 86.8044 26.2283 86.8044 24.3168C86.8044 22.4053 88.354 20.8557 90.2655 20.8557C92.177 20.8557 93.7266 22.4053 93.7266 24.3168C93.7266 26.2283 92.177 27.7779 90.2655 27.7779Z" fill="#4F3F37"/>
        <path d="M88.7035 24.0014C88.2442 24.0014 87.8719 23.6291 87.8719 23.1698C87.8719 22.7105 88.2442 22.3381 88.7035 22.3381C89.1628 22.3381 89.5352 22.7105 89.5352 23.1698C89.5352 23.6291 89.1628 24.0014 88.7035 24.0014Z" fill="white"/>
        <path d="M57.6249 27.7777C55.7133 27.7777 54.1638 26.2281 54.1638 24.3166C54.1638 22.4051 55.7133 20.8555 57.6249 20.8555C59.5364 20.8555 61.0859 22.4051 61.0859 24.3166C61.0859 26.2281 59.5364 27.7777 57.6249 27.7777Z" fill="#4F3F37"/>
        <path d="M56.0629 24.0012C55.6036 24.0012 55.2313 23.6288 55.2313 23.1695C55.2313 22.7102 55.6036 22.3379 56.0629 22.3379C56.5222 22.3379 56.8945 22.7102 56.8945 23.1695C56.8945 23.6288 56.5222 24.0012 56.0629 24.0012Z" fill="white"/>
        <path d="M89.1387 18.5829L91.8537 18.9376C92.4652 19.0109 93.0278 18.5829 93.1012 17.9714C93.1746 17.3599 92.7465 16.7973 92.135 16.7239L89.42 16.3693C88.8085 16.2959 88.2459 16.7239 88.1725 17.3354C88.0991 17.9469 88.5272 18.5095 89.1387 18.5829Z" fill="#B79D8B"/>
        <path d="M58.7327 18.5829L56.0176 18.9376C55.4061 19.0109 54.8435 18.5829 54.7702 17.9714C54.6968 17.3599 55.1248 16.7973 55.7363 16.7239L58.4514 16.3693C59.0629 16.2959 59.6255 16.7239 59.6988 17.3354C59.7722 17.9469 59.3442 18.5095 58.7327 18.5829Z" fill="#B79D8B"/>
    </g>
    <defs>
        <clipPath id="clip0_0_1">
            <rect width="152" height="146" fill="white" transform="matrix(-1 0 0 1 152 0.0634766)"/>
        </clipPath>
    </defs>
</svg>
