<svg width="160" height="151" viewBox="0 0 160 151" fill="none" xmlns="http://www.w3.org/2000/svg">
    <g clip-path="url(#clip0_112_62145)">
        <path d="M125.684 123.337C127.974 139.964 95.4481 147.496 69.3097 137.696C52.6552 131.452 49.9159 120.925 56.8217 114.01C62.4269 108.394 74.7652 104.695 87.8172 104.882C104.909 105.135 124.142 112.127 125.684 123.337Z" fill="#E6E7EA"/>
        <path d="M109.037 14.2446C109.037 6.4144 100.061 0.0585938 88.9832 0.0585938C77.9054 0.0585938 68.9297 6.40444 68.9297 14.2446V18.2792H109.037V14.2446Z" fill="#C9A063"/>
        <path d="M90.9297 7.87354C90.9297 7.87354 98.182 8.24213 103.89 12.4362C103.89 12.4362 100.035 10.1549 90.9297 7.87354Z" fill="#BF955E"/>
        <path d="M90.9609 4.52441C90.9609 4.52441 98.4623 5.03248 104.32 9.3361C104.32 9.3361 100.355 6.97509 90.9609 4.52441Z" fill="#BF955E"/>
        <path d="M91.7891 0.941895C91.7891 0.941895 94.6282 4.92673 94.9171 10.7745C94.9171 10.7745 95.6942 5.99267 91.7891 0.941895Z" fill="#BF955E"/>
        <path d="M97.4539 11.9501C97.4539 11.9501 98.1014 7.52689 97.4141 2.07764C97.4141 2.07764 98.6992 7.08856 97.4539 11.9501Z" fill="#BF955E"/>
        <path d="M99.2969 12.2173C99.2969 12.2173 101.987 10.1551 102.694 5.43311C102.694 5.43311 102.803 10.1452 99.2969 12.2173Z" fill="#BF955E"/>
        <path d="M89.0381 46.2738C113.472 46.2738 133.279 38.2544 133.279 28.362C133.279 18.4696 113.472 10.4502 89.0381 10.4502C64.6043 10.4502 44.7969 18.4696 44.7969 28.362C44.7969 38.2544 64.6043 46.2738 89.0381 46.2738Z" fill="#BF955E"/>
        <path d="M45.9922 32.5054C50.6146 40.3953 68.1277 46.273 89.038 46.273C109.948 46.273 127.461 40.3953 132.084 32.5054C123.706 38.0244 107.577 41.7601 89.038 41.7601C70.4987 41.7601 54.3802 38.0244 45.9922 32.5054Z" fill="#AF8756"/>
        <path d="M94.6788 125.16C94.5792 124.961 94.37 124.861 94.1608 124.891C93.2941 125.04 92.6665 125.698 92.4274 126.276C92.2481 126.714 92.4274 126.953 92.547 127.053C92.6366 127.132 92.7362 127.172 92.8558 127.182C93.0451 127.202 93.2543 127.132 93.5033 126.983C94.0612 126.565 94.629 126.395 94.649 126.395C94.7884 126.355 94.908 126.256 94.9578 126.126C95.0175 125.997 95.0175 125.837 94.9578 125.708L94.6888 125.15L94.6788 125.16Z" fill="#604B42"/>
        <path d="M97.6664 126.565C97.507 126.416 97.2679 126.386 97.0886 126.486C96.3215 126.914 95.9529 127.741 95.923 128.369C95.9031 128.837 96.1521 129.006 96.3016 129.066C96.3514 129.086 96.4012 129.096 96.451 129.096C96.6901 129.116 96.9391 128.976 97.1882 128.677C97.5867 128.09 98.0648 127.741 98.0648 127.741C98.1844 127.661 98.2541 127.522 98.2641 127.382C98.274 127.233 98.2242 127.093 98.1146 126.994L97.6763 126.565H97.6664Z" fill="#604B42"/>
        <path d="M102.118 127.841C101.949 127.702 101.71 127.682 101.531 127.801C100.793 128.279 100.475 129.126 100.485 129.754C100.485 130.222 100.754 130.381 100.903 130.421C100.943 130.431 100.983 130.441 101.013 130.441C101.262 130.461 101.511 130.312 101.75 129.973C102.098 129.365 102.557 128.987 102.567 128.977C102.676 128.887 102.746 128.748 102.746 128.608C102.746 128.459 102.686 128.319 102.577 128.23L102.108 127.831L102.118 127.841Z" fill="#604B42"/>
        <path d="M107.804 128.239C107.744 128.11 107.624 128.01 107.485 127.97L106.887 127.811C106.678 127.751 106.459 127.841 106.339 128.03C105.881 128.777 105.951 129.684 106.23 130.242C106.389 130.56 106.598 130.66 106.758 130.67C106.807 130.67 106.857 130.67 106.887 130.67C107.186 130.63 107.385 130.371 107.465 129.903C107.525 129.206 107.774 128.668 107.784 128.658C107.844 128.528 107.844 128.379 107.784 128.239H107.804Z" fill="#604B42"/>
        <path d="M101.257 117.477C101.257 117.477 94.2938 122.418 93.467 124.202C92.6501 125.995 92.8892 125.567 93.7061 125.925C94.523 126.284 95.1506 127.24 96.5353 127.409C97.92 127.579 98.6074 127.728 99.5837 128.067C100.57 128.406 100.789 129.033 102.582 128.964C104.375 128.894 104.126 128.904 105.142 128.964C106.149 129.023 107.743 129.412 108.012 128.625C108.29 127.838 108.599 127.141 108.629 125.596C108.659 124.052 108.679 123.365 109.257 121.552C109.835 119.739 111.179 118.404 108.619 117.637C106.059 116.87 102.811 116.322 101.247 117.457L101.257 117.477Z" fill="#4F3F37"/>
        <path d="M66.2723 120.514C66.2125 120.325 66.0432 120.206 65.844 120.206C65.057 120.225 64.4094 120.714 64.1205 121.202C63.9014 121.57 64.0309 121.799 64.1205 121.909C64.1903 121.989 64.27 122.039 64.3795 122.068C64.5389 122.108 64.7481 122.078 64.9872 121.979C65.5451 121.69 66.0631 121.61 66.083 121.61C66.2125 121.59 66.3321 121.521 66.4018 121.411C66.4716 121.301 66.4915 121.162 66.4516 121.042L66.2823 120.514H66.2723Z" fill="#604B42"/>
        <path d="M68.744 122.159C68.6244 121.999 68.4152 121.94 68.2359 122.009C67.4987 122.288 67.0604 122.976 66.9408 123.533C66.8611 123.952 67.0504 124.131 67.1799 124.201C67.2198 124.221 67.2596 124.241 67.2995 124.251C67.5087 124.301 67.7478 124.211 68.0068 123.972C68.4351 123.504 68.9133 123.255 68.9133 123.255C69.0328 123.195 69.1125 123.085 69.1424 122.966C69.1723 122.836 69.1424 122.707 69.0627 122.597L68.724 122.159H68.744Z" fill="#604B42"/>
        <path d="M72.5287 123.901C72.3991 123.751 72.1899 123.712 72.0106 123.791C71.2934 124.12 70.8949 124.827 70.8152 125.385C70.7554 125.804 70.9646 125.973 71.0941 126.043C71.124 126.063 71.1539 126.073 71.1937 126.082C71.4129 126.142 71.662 126.033 71.911 125.774C72.3095 125.286 72.7578 125.007 72.7777 124.997C72.8873 124.927 72.967 124.817 72.9869 124.688C73.0068 124.558 72.967 124.429 72.8873 124.329L72.5287 123.911V123.901Z" fill="#604B42"/>
        <path d="M77.5321 125.021C77.4922 124.891 77.4026 124.792 77.283 124.742L76.775 124.513C76.5956 124.433 76.3864 124.483 76.2569 124.632C75.7489 125.23 75.6891 126.047 75.8584 126.585C75.9581 126.894 76.1274 127.003 76.2769 127.043C76.3167 127.053 76.3665 127.053 76.3964 127.063C76.6654 127.063 76.8845 126.864 77.014 126.465C77.1635 125.858 77.4524 125.409 77.4623 125.399C77.5321 125.29 77.562 125.16 77.5221 125.031L77.5321 125.021Z" fill="#604B42"/>
        <path d="M73.1475 114.559C73.1475 114.559 66.2837 118.006 65.3174 119.491C64.351 120.975 64.62 120.626 65.2974 121.065C65.9748 121.503 66.4032 122.429 67.6186 122.768C68.8339 123.107 69.4117 123.336 70.2485 123.764C71.0853 124.193 71.1949 124.79 72.7988 124.97C74.4027 125.149 74.1835 125.129 75.0701 125.318C75.9568 125.508 77.3216 126.066 77.6702 125.408C78.0189 124.751 78.3974 124.163 78.6266 122.798C78.8557 121.433 78.9752 120.825 79.7324 119.291C80.4895 117.757 81.8642 116.751 79.6925 115.725C77.5208 114.699 74.7115 113.772 73.1574 114.569L73.1475 114.559Z" fill="#4F3F37"/>
        <path d="M109.484 107.975C109.484 107.975 150.208 90.5015 157.939 58.6029C165.669 26.7044 131.181 26.2461 126.16 43.6698C121.129 61.0935 118.101 81.187 106.366 95.104C94.6305 109.031 109.484 107.965 109.484 107.965V107.975Z" fill="#382D28"/>
        <path d="M157.937 58.6054C150.206 90.504 109.482 107.978 109.482 107.978C109.482 107.978 102.488 108.476 101.891 104.292C107.37 100.755 114.004 95.6544 122.054 88.5116C153.952 60.2193 155.486 43.5129 153.245 35.7524C158.046 39.7273 160.716 47.1291 157.937 58.5955V58.6054Z" fill="#302622"/>
        <path d="M147.264 39.647C147.264 39.647 142.921 70.9578 117.109 90.4735C117.109 90.4735 145.77 70.6788 147.264 39.647Z" fill="#302622"/>
        <path d="M140.735 37.8452C140.735 37.8452 136.571 68.3192 113.648 91.5309C113.648 91.5309 136.74 72.4136 140.735 37.8452Z" fill="#302622"/>
        <path d="M133.281 41.9209C133.281 41.9209 132.155 59.8228 122.781 74.0586C122.781 74.0586 127.922 64.4651 133.281 41.9209Z" fill="#302622"/>
        <path d="M150.385 43.6816C150.385 43.6816 141.738 49.8482 129.047 50.4658C129.047 50.4658 139.437 52.1594 150.385 43.6816Z" fill="#302622"/>
        <path d="M126.492 55.9905C126.492 55.9905 136.106 57.4052 147.94 55.9009C147.94 55.9009 137.052 58.6803 126.492 55.9905Z" fill="#302622"/>
        <path d="M125.898 59.9995C125.898 59.9995 130.371 65.8472 140.622 67.3714C140.622 67.3714 130.401 67.6105 125.898 59.9995Z" fill="#302622"/>
        <path d="M131.044 78.8481C131.044 78.8481 125.346 73.5383 123.852 66.8438C123.852 66.8438 126.482 73.608 131.044 78.8481Z" fill="#302622"/>
        <path d="M123.228 102.836C122.002 113.018 117.46 123.567 90.6021 123.567C63.7446 123.567 57.9766 110.099 57.9766 99.8476C57.9766 81.1289 70.4988 59.3319 70.4988 59.3319L108.135 58.3257C108.135 58.3257 125.29 85.7712 123.238 102.836H123.228Z" fill="#9E8574"/>
        <path d="M90.5926 123.567C117.45 123.567 122.003 113.018 123.218 102.836C123.397 101.362 123.417 99.7979 123.338 98.1841C122.899 102.717 121.156 106.991 117.998 110.378C114.79 113.815 110.547 116.116 106.133 117.64C101.8 119.134 96.2511 120.639 91.7582 119.403C89.9451 118.905 88.0125 117.979 86.0898 118.407C83.2606 119.025 80.3916 119.304 77.5225 118.766C74.4144 118.178 71.4258 117.092 68.477 115.956C66.3651 115.14 64.2731 114.263 62.2109 113.307C66.6042 119.075 75.0719 123.577 90.5827 123.577L90.5926 123.567Z" fill="#8E7565"/>
        <path d="M98.0075 84.9221C97.0412 85.8685 94.0227 84.5336 93.0464 84.1451C92.7376 84.0255 92.2694 83.6669 92.4985 82.7803C92.7675 81.7542 93.4648 81.9235 95.0288 82.2822C96.5929 82.6408 96.553 82.6607 97.878 82.9795C98.3362 83.0891 98.8642 84.0853 98.0075 84.9221Z" fill="#4F3F37"/>
        <path d="M65.1102 63.1064C65.1102 63.1064 50.3864 73.1283 61.9622 86.4277L71.715 85.9196C71.715 85.9196 65.2297 76.4855 77.6025 68.3465L65.1102 63.1064Z" fill="#8E7565"/>
        <path d="M114.351 56.0908C114.351 56.0908 115.497 59.0296 117.2 63.3432C118.605 66.8897 120.079 73.0463 120.348 76.7821C120.617 80.5178 119.741 84.3433 116.473 87.0729C114.022 89.1151 110.416 90.4002 106.671 91.3367C103.801 92.0539 98.0036 92.5919 94.9652 90.7589C93.1521 89.663 93.1421 87.7802 93.8195 86.4254C95.4732 83.108 103.503 82.1317 105.684 78.1469C108.623 72.7972 100.853 66.3816 100.853 66.3816C101.241 64.3295 109.081 60.6435 109.081 60.6435L114.351 56.1008V56.0908Z" fill="#8E7565"/>
        <path d="M69.3903 23.0821C72.349 25.3634 71.7413 31.1115 71.7413 31.1115C71.7413 31.1115 66.3319 33.1637 63.3732 30.8824C60.4145 28.6011 59.7471 24.5067 61.0222 22.853C62.2973 21.1993 66.4316 20.8008 69.3903 23.0821Z" fill="#A48B78"/>
        <path d="M66.9183 25.0255C68.7314 26.4202 68.7613 29.4187 68.7613 29.4187C68.7613 29.4187 65.8524 30.146 64.0393 28.7513C62.2263 27.3566 61.5787 25.145 62.1964 24.358C62.814 23.571 65.1053 23.6308 66.9183 25.0255Z" fill="#4F3F37"/>
        <path d="M108.246 23.0679C105.288 25.3492 105.895 31.0974 105.895 31.0974C105.895 31.0974 111.305 33.1496 114.263 30.8682C117.222 28.5869 117.89 24.4925 116.614 22.8388C115.339 21.1851 111.205 20.7866 108.246 23.0679Z" fill="#A48B78"/>
        <path d="M110.726 25.0113C108.913 26.406 108.883 29.4046 108.883 29.4046C108.883 29.4046 111.792 30.1318 113.605 28.7371C115.418 27.3424 116.065 25.1309 115.448 24.3438C114.83 23.5568 112.539 23.6166 110.726 25.0113Z" fill="#4F3F37"/>
        <path d="M88.8574 14.3627C88.8574 14.3627 70.7963 14.3627 64.9486 28.8675C62.2887 35.4525 63.6336 33.6095 59.6986 40.6228C48.9795 59.7002 72.8783 71.8439 88.8673 71.8439C103.82 71.8439 128.755 59.7002 118.036 40.6228C114.091 33.6095 115.436 35.4525 112.786 28.8675C106.649 13.6455 88.8773 14.3627 88.8773 14.3627H88.8574Z" fill="#A48B78"/>
        <path d="M87.3203 11.8525C87.3203 11.8525 88.984 13.5859 87.3203 15.14H90.6377C90.6377 15.14 91.0561 11.9023 87.3203 11.8525Z" fill="#A48B78"/>
        <path d="M83.7739 64.6343C83.7739 64.6343 83.7739 66.1286 85.6169 65.9692L88.4959 65.7302C89.4025 65.6505 90.1795 65.0328 90.3987 64.1761C91.0562 61.6357 90.5481 58.149 90.5481 58.149L86.115 56.2861L83.7142 53.1182L81.7915 56.6547L76.9998 58.149C76.9998 58.149 76.4917 61.6357 77.1492 64.1761C77.3684 65.0428 78.1454 65.6604 79.0519 65.7302L81.931 65.9692C83.7739 66.1286 83.7739 64.6343 83.7739 64.6343Z" fill="#EFEFEF"/>
        <path d="M83.7786 36.8257C94.7467 36.8257 102.109 38.7982 105.416 46.8077C109.441 56.5406 101.68 60.6351 92.7543 60.6351C83.8284 60.6351 83.7786 54.3789 83.7786 54.3789C83.7786 54.3789 83.7188 60.6351 74.8028 60.6351C65.8868 60.6351 58.1264 56.5406 62.1411 46.8077C65.4485 38.7982 72.8104 36.8257 83.7786 36.8257Z" fill="#D1B69D"/>
        <path d="M69.4421 48.9892C69.9538 48.9892 70.3686 48.5744 70.3686 48.0627C70.3686 47.551 69.9538 47.1362 69.4421 47.1362C68.9304 47.1362 68.5156 47.551 68.5156 48.0627C68.5156 48.5744 68.9304 48.9892 69.4421 48.9892Z" fill="#DBC6B4"/>
        <path d="M66.6452 46.2997C67.1569 46.2997 67.5717 45.8849 67.5717 45.3733C67.5717 44.8616 67.1569 44.4468 66.6452 44.4468C66.1335 44.4468 65.7188 44.8616 65.7188 45.3733C65.7188 45.8849 66.1335 46.2997 66.6452 46.2997Z" fill="#DBC6B4"/>
        <path d="M65.3874 49.9071C65.8991 49.9071 66.3139 49.4923 66.3139 48.9807C66.3139 48.469 65.8991 48.0542 65.3874 48.0542C64.8757 48.0542 64.4609 48.469 64.4609 48.9807C64.4609 49.4923 64.8757 49.9071 65.3874 49.9071Z" fill="#DBC6B4"/>
        <path d="M98.114 48.9887C98.6256 48.9887 99.0404 48.5739 99.0404 48.0622C99.0404 47.5505 98.6256 47.1357 98.114 47.1357C97.6023 47.1357 97.1875 47.5505 97.1875 48.0622C97.1875 48.5739 97.6023 48.9887 98.114 48.9887Z" fill="#DBC6B4"/>
        <path d="M100.903 46.2997C101.415 46.2997 101.829 45.8849 101.829 45.3733C101.829 44.8616 101.415 44.4468 100.903 44.4468C100.391 44.4468 99.9766 44.8616 99.9766 45.3733C99.9766 45.8849 100.391 46.2997 100.903 46.2997Z" fill="#DBC6B4"/>
        <path d="M102.169 49.9071C102.68 49.9071 103.095 49.4923 103.095 48.9807C103.095 48.469 102.68 48.0542 102.169 48.0542C101.657 48.0542 101.242 48.469 101.242 48.9807C101.242 49.4923 101.657 49.9071 102.169 49.9071Z" fill="#DBC6B4"/>
        <path d="M75.6719 39.6001C75.6719 35.436 81.4897 35.2168 83.8009 35.2168C86.1021 35.2168 91.89 35.436 91.89 39.6001C91.89 41.722 87.9849 46.7927 83.7809 46.7927C79.577 46.7927 75.6719 41.732 75.6719 39.6001Z" fill="#4F3F37"/>
        <path d="M80.4069 40.254C81.8484 40.254 83.017 39.4824 83.017 38.5306C83.017 37.5787 81.8484 36.8071 80.4069 36.8071C78.9654 36.8071 77.7969 37.5787 77.7969 38.5306C77.7969 39.4824 78.9654 40.254 80.4069 40.254Z" fill="#6D5A50"/>
        <path d="M69.9388 39.4562C71.5618 39.4562 72.8776 38.1405 72.8776 36.5174C72.8776 34.8944 71.5618 33.5786 69.9388 33.5786C68.3157 33.5786 67 34.8944 67 36.5174C67 38.1405 68.3157 39.4562 69.9388 39.4562Z" fill="#4F3F37"/>
        <path d="M68.6136 36.2476C69.0042 36.2476 69.3209 35.9309 69.3209 35.5403C69.3209 35.1497 69.0042 34.833 68.6136 34.833C68.2229 34.833 67.9062 35.1497 67.9062 35.5403C67.9062 35.9309 68.2229 36.2476 68.6136 36.2476Z" fill="white"/>
        <path d="M97.6185 39.4562C99.2415 39.4562 100.557 38.1405 100.557 36.5174C100.557 34.8944 99.2415 33.5786 97.6185 33.5786C95.9954 33.5786 94.6797 34.8944 94.6797 36.5174C94.6797 38.1405 95.9954 39.4562 97.6185 39.4562Z" fill="#4F3F37"/>
        <path d="M96.2932 36.2476C96.6839 36.2476 97.0005 35.9309 97.0005 35.5403C97.0005 35.1497 96.6839 34.833 96.2932 34.833C95.9026 34.833 95.5859 35.1497 95.5859 35.5403C95.5859 35.9309 95.9026 36.2476 96.2932 36.2476Z" fill="white"/>
        <path d="M68.3566 31.6633L70.6578 31.9621C71.1758 32.0319 71.654 31.6633 71.7238 31.1453C71.7935 30.6272 71.4249 30.149 70.9069 30.0793L68.6057 29.7804C68.0876 29.7107 67.6095 30.0793 67.5397 30.5973C67.47 31.1154 67.8386 31.5935 68.3566 31.6633Z" fill="#B79D8B"/>
        <path d="M99.2194 31.6633L96.9182 31.9621C96.4001 32.0319 95.922 31.6633 95.8522 31.1453C95.7825 30.6272 96.1511 30.149 96.6691 30.0793L98.9703 29.7804C99.4884 29.7107 99.9665 30.0793 100.036 30.5973C100.106 31.1154 99.7374 31.5935 99.2194 31.6633Z" fill="#B79D8B"/>
        <path d="M45.7857 83.8464L43.4531 90.2275L65.8431 98.4123L68.1757 92.0312L45.7857 83.8464Z" fill="#DDDDDD"/>
        <path d="M39.548 91.1334C40.8132 92.6078 46.0134 92.2392 48.4042 90.1969C50.7852 88.1448 50.1476 85.6343 48.8824 84.1599C47.6172 82.6855 44.808 82.6258 42.4171 84.668C40.0362 86.7202 38.2829 89.659 39.548 91.1234V91.1334Z" fill="#DDDDDD"/>
        <path d="M92.4266 102.837L98.5233 78.3698C98.9517 76.3873 98.3241 74.4746 96.8397 73.1795C95.3654 71.8845 93.373 71.5059 91.53 72.1734L91.4104 72.2232L79.4062 77.3935L81.0201 81.1392L92.9546 75.9988C93.5523 75.8095 93.9906 76.1084 94.15 76.2479C94.3193 76.3973 94.6879 76.8057 94.5485 77.4433L88.4717 101.85L92.4266 102.837Z" fill="#DDDDDD"/>
        <path d="M61.5505 80.3921V80.3025C61.7797 77.2342 66.0235 74.0363 71.7317 72.8509C77.0115 71.7451 81.8332 72.7313 83.6662 75.0326H83.6761L83.6861 75.0624C84.0248 75.4908 84.2639 75.969 84.3735 76.487C84.4133 76.6863 93.14 100.316 93.14 100.316C94.3355 103.514 93.5086 107.11 91.048 109.481C87.6011 112.809 81.5741 115.319 71.4328 114.642C67.199 114.363 63.782 111.045 63.4234 106.822L61.6203 81.3386C61.6203 81.3386 61.6003 81.2788 61.5904 81.2489C61.5306 80.97 61.5207 80.681 61.5406 80.3921H61.5505Z" fill="#DDDDDD"/>
        <path d="M65.1544 79.2046C65.5131 80.9181 69.0595 81.6154 73.0643 80.7686C77.069 79.9218 80.0277 77.8597 79.6691 76.1462C79.3104 74.4327 75.764 73.7354 71.7593 74.5822C67.7545 75.4289 64.7958 77.4911 65.1544 79.2046Z" fill="#8F949E"/>
        <path d="M43.1566 86.4579C43.5691 86.1369 43.7611 85.6937 43.5855 85.4679C43.4098 85.2421 42.933 85.3192 42.5204 85.6401C42.1079 85.961 41.9158 86.4043 42.0915 86.6301C42.2672 86.8559 42.744 86.7788 43.1566 86.4579Z" fill="#8F949E"/>
        <path d="M42.0003 89.0868C42.4129 88.7658 42.6049 88.3226 42.4292 88.0968C42.2536 87.871 41.7767 87.9481 41.3642 88.269C40.9516 88.5899 40.7596 89.0332 40.9353 89.259C41.1109 89.4848 41.5878 89.4077 42.0003 89.0868Z" fill="#8F949E"/>
        <path d="M44.3128 87.9491C44.7254 87.6281 44.9174 87.1849 44.7417 86.9591C44.5661 86.7333 44.0892 86.8104 43.6767 87.1313C43.2641 87.4522 43.0721 87.8955 43.2478 88.1213C43.4234 88.3471 43.9003 88.27 44.3128 87.9491Z" fill="#8F949E"/>
        <path d="M43.9769 90.077C44.3894 89.7561 44.5815 89.3128 44.4058 89.087C44.2301 88.8612 43.7533 88.9383 43.3407 89.2592C42.9282 89.5802 42.7362 90.0234 42.9118 90.2492C43.0875 90.475 43.5643 90.3979 43.9769 90.077Z" fill="#8F949E"/>
        <path d="M46.4222 88.1703C46.8347 87.8493 47.0268 87.4061 46.8511 87.1803C46.6754 86.9545 46.1986 87.0316 45.786 87.3525C45.3735 87.6734 45.1815 88.1167 45.3571 88.3425C45.5328 88.5683 46.0096 88.4912 46.4222 88.1703Z" fill="#8F949E"/>
        <path d="M45.8362 85.8753C46.2488 85.5544 46.4408 85.1112 46.2652 84.8854C46.0895 84.6595 45.6127 84.7366 45.2001 85.0576C44.7876 85.3785 44.5955 85.8217 44.7712 86.0475C44.9469 86.2734 45.4237 86.1963 45.8362 85.8753Z" fill="#8F949E"/>
        <path d="M73.0608 80.7691C75.89 80.1714 78.2012 78.966 79.1775 77.7008C77.7031 77.1629 75.4019 77.0931 72.9213 77.6211C70.0921 78.2188 67.781 79.4243 66.8047 80.6894C68.289 81.2274 70.5803 81.2971 73.0608 80.7691Z" fill="#2EA7E0"/>
        <path d="M98.1586 88.0993C97.4912 89.3346 93.4167 89.2947 92.1217 89.3246C91.7132 89.3246 91.0059 89.1951 90.8565 88.2885C90.6871 87.2425 91.5638 87.1329 93.5263 86.844C95.4888 86.5651 95.449 86.595 97.1126 86.3758C97.6904 86.2961 98.7563 86.9935 98.1686 88.0993H98.1586Z" fill="#4F3F37"/>
        <path d="M97.4341 91.2257C96.7567 92.441 92.9313 92.2418 91.706 92.2219C91.3174 92.2219 90.6599 92.0525 90.5504 91.146C90.4308 90.0999 91.2577 90.0103 93.1106 89.8011C94.9635 89.5919 94.9237 89.6218 96.5076 89.4624C97.0556 89.4026 98.0318 90.1398 97.4241 91.2257H97.4341Z" fill="#4F3F37"/>
        <path d="M98.3936 85.6614C97.6166 86.827 93.9207 86.3389 92.7352 86.2293C92.3567 86.1894 91.739 85.9802 91.7191 85.0537C91.6992 83.9878 92.5161 83.9679 94.3391 83.8981C96.1622 83.8284 96.1223 83.8583 97.6664 83.8185C98.2044 83.8085 99.081 84.6154 98.3837 85.6614H98.3936Z" fill="#4F3F37"/>
        <path d="M12.2981 117.978C12.2981 117.978 12.2284 117.978 12.1885 117.958C11.9893 117.898 11.8697 117.679 11.9295 117.48C11.9992 117.231 12.0789 116.982 12.1487 116.743C12.2084 116.543 12.4276 116.424 12.6268 116.484C12.8261 116.543 12.9456 116.763 12.8859 116.962C12.8161 117.201 12.7364 117.45 12.6667 117.699C12.6169 117.868 12.4674 117.978 12.2981 117.978ZM13.5035 114.322C13.5035 114.322 13.4138 114.322 13.374 114.302C13.1748 114.232 13.0751 114.003 13.1449 113.804C13.5035 112.818 13.8821 111.851 14.2805 110.925C14.3602 110.726 14.5894 110.636 14.7886 110.726C14.9878 110.805 15.0775 111.034 14.9878 111.234C14.5993 112.15 14.2208 113.106 13.8621 114.073C13.8024 114.232 13.6529 114.322 13.5035 114.322ZM15.9243 108.663C15.8645 108.663 15.8047 108.653 15.7549 108.624C15.5656 108.524 15.4859 108.295 15.5856 108.106C15.7051 107.876 15.8147 107.647 15.9342 107.418C16.0338 107.229 16.263 107.159 16.4522 107.249C16.6415 107.348 16.7113 107.578 16.6216 107.767C16.5021 107.996 16.3925 108.215 16.2729 108.444C16.2032 108.584 16.0737 108.653 15.9243 108.653V108.663ZM17.7772 105.306C17.7075 105.306 17.6377 105.286 17.578 105.246C17.3986 105.137 17.3389 104.898 17.4484 104.718C17.9864 103.832 18.5642 102.955 19.1519 102.128C19.2715 101.959 19.5205 101.919 19.6899 102.039C19.8592 102.158 19.8991 102.397 19.7796 102.577C19.2018 103.393 18.6339 104.25 18.1059 105.127C18.0362 105.246 17.9067 105.316 17.7772 105.316V105.306ZM21.3436 100.295C21.2539 100.295 21.1742 100.265 21.0945 100.206C20.9351 100.066 20.9053 99.827 21.0447 99.6676C21.2141 99.4684 21.3834 99.2692 21.5428 99.0799C21.6823 98.9205 21.9313 98.9006 22.0808 99.04C22.2402 99.1795 22.2601 99.4186 22.1206 99.578C21.9513 99.7673 21.7919 99.9665 21.6325 100.156C21.5528 100.245 21.4432 100.295 21.3336 100.295H21.3436ZM23.9437 97.466C23.844 97.466 23.7444 97.4262 23.6647 97.3465C23.5153 97.1971 23.5153 96.948 23.6647 96.7986C24.4019 96.0713 25.179 95.374 25.9759 94.7165C26.1353 94.577 26.3844 94.6069 26.5139 94.7663C26.6533 94.9257 26.6234 95.1747 26.464 95.3043C25.687 95.9418 24.9299 96.6292 24.2027 97.3365C24.1329 97.4063 24.0333 97.4461 23.9337 97.4461L23.9437 97.466ZM28.6955 93.5609C28.576 93.5609 28.4564 93.5011 28.3767 93.3915C28.2572 93.2122 28.2971 92.9731 28.4764 92.8536C28.6955 92.7042 28.9047 92.5647 29.1239 92.4153C29.3032 92.2957 29.5423 92.3455 29.6618 92.5248C29.7814 92.7042 29.7316 92.9432 29.5523 93.0628C29.3431 93.2023 29.1339 93.3417 28.9247 93.4812C28.8549 93.531 28.7852 93.5509 28.7055 93.5509L28.6955 93.5609ZM31.983 91.5585C31.8435 91.5585 31.714 91.4888 31.6443 91.3593C31.5447 91.17 31.6144 90.9409 31.8037 90.8412C32.7202 90.3531 33.6566 89.9048 34.613 89.5063C34.8122 89.4266 35.0314 89.5163 35.121 89.7155C35.2007 89.9148 35.121 90.1339 34.9118 90.2236C33.9754 90.6121 33.0589 91.0604 32.1623 91.5286C32.1025 91.5585 32.0428 91.5784 31.983 91.5784V91.5585ZM37.6514 89.1776C37.492 89.1776 37.3326 89.068 37.2828 88.9086C37.223 88.7094 37.3326 88.4902 37.5318 88.4304C37.7809 88.3507 38.0299 88.281 38.279 88.2013C38.4882 88.1415 38.6974 88.2611 38.7571 88.4603C38.8169 88.6596 38.6974 88.8787 38.4981 88.9385C38.259 89.0082 38.02 89.078 37.7709 89.1577C37.7311 89.1676 37.6912 89.1776 37.6613 89.1776H37.6514ZM41.3871 88.2411C41.2078 88.2411 41.0384 88.1116 41.0086 87.9224C40.9687 87.7132 41.1082 87.5139 41.3174 87.4741C43.2899 87.1154 44.4355 87.1055 44.4554 87.1055C44.6646 87.1055 44.834 87.2748 44.8439 87.484C44.8439 87.6932 44.6746 87.8725 44.4654 87.8725C44.4554 87.8725 43.2998 87.8925 41.4568 88.2212C41.4369 88.2212 41.407 88.2212 41.3871 88.2212V88.2411Z" fill="#2EA7E0" stroke="#2EA7E0" stroke-width="1.03174"/>
        <path d="M23.9477 125.89C23.7485 125.89 23.5791 125.731 23.5692 125.531C23.4994 124.485 23.4496 123.449 23.4297 122.433C23.4297 122.224 23.599 122.045 23.8082 122.045C24.0374 122.015 24.1968 122.214 24.1968 122.423C24.2167 123.419 24.2565 124.445 24.3362 125.482C24.3562 125.691 24.1868 125.88 23.9776 125.89C23.9776 125.89 23.9577 125.89 23.9477 125.89ZM23.8481 119.733H23.8282C23.619 119.733 23.4496 119.544 23.4596 119.335C23.4695 119.076 23.4795 118.817 23.4994 118.558C23.5094 118.349 23.6787 118.179 23.9079 118.199C24.1171 118.209 24.2864 118.389 24.2665 118.608C24.2565 118.857 24.2366 119.116 24.2266 119.375C24.2266 119.584 24.0473 119.743 23.8381 119.743L23.8481 119.733ZM24.1569 115.898C24.1569 115.898 24.127 115.898 24.1071 115.898C23.8979 115.868 23.7485 115.679 23.7684 115.47C23.8979 114.434 24.0573 113.407 24.2565 112.401C24.2964 112.192 24.4956 112.053 24.7048 112.102C24.914 112.142 25.0435 112.342 25.0037 112.551C24.8044 113.527 24.6451 114.543 24.5255 115.559C24.5056 115.759 24.3362 115.898 24.147 115.898H24.1569ZM25.3623 109.871C25.3623 109.871 25.2926 109.871 25.2627 109.861C25.0535 109.801 24.9339 109.592 24.9937 109.383C25.0635 109.134 25.1332 108.885 25.2129 108.636C25.2727 108.436 25.4918 108.317 25.6911 108.377C25.8903 108.436 26.0098 108.656 25.9501 108.855C25.8803 109.094 25.8006 109.343 25.7309 109.582C25.6811 109.751 25.5317 109.861 25.3623 109.861V109.871ZM26.6076 106.235C26.6076 106.235 26.5079 106.235 26.4681 106.205C26.2689 106.125 26.1792 105.906 26.2589 105.707C26.6474 104.74 27.0857 103.784 27.554 102.878C27.6536 102.688 27.8827 102.609 28.072 102.708C28.2613 102.808 28.331 103.037 28.2413 103.226C27.7831 104.113 27.3547 105.049 26.9762 105.996C26.9164 106.145 26.767 106.235 26.6175 106.235H26.6076ZM29.4168 100.766C29.3471 100.766 29.2774 100.746 29.2076 100.706C29.0283 100.586 28.9785 100.357 29.0881 100.178C29.2276 99.9587 29.377 99.7395 29.5165 99.5303C29.636 99.351 29.8751 99.3112 30.0544 99.4307C30.2337 99.5502 30.2736 99.7893 30.154 99.9687C30.0146 100.178 29.8751 100.387 29.7356 100.606C29.6659 100.716 29.5364 100.786 29.4069 100.786L29.4168 100.766ZM31.6882 97.6674C31.5985 97.6674 31.5089 97.6375 31.4391 97.5778C31.2797 97.4383 31.2498 97.1992 31.3893 97.0398C32.0568 96.2428 32.7641 95.4658 33.5013 94.7485C33.6507 94.5991 33.8997 94.5991 34.0492 94.7485C34.1986 94.898 34.1986 95.147 34.0492 95.2964C33.3319 95.9938 32.6346 96.7509 31.987 97.5279C31.9073 97.6176 31.7978 97.6674 31.6882 97.6674ZM36.0914 93.3638C35.9818 93.3638 35.8623 93.314 35.7925 93.2144C35.663 93.045 35.6929 92.8059 35.8523 92.6764C36.0615 92.5071 36.2707 92.3477 36.4699 92.1982C36.6393 92.0687 36.8784 92.0986 37.0079 92.268C37.1374 92.4373 37.1075 92.6764 36.9381 92.8059C36.7389 92.9553 36.5397 93.1147 36.3404 93.2741C36.2707 93.3339 36.181 93.3538 36.1013 93.3538L36.0914 93.3638ZM39.2593 91.1721C39.1298 91.1721 39.0003 91.1024 38.9305 90.9829C38.821 90.8035 38.8807 90.5645 39.07 90.4549C40.7436 89.4686 41.8494 89.0602 41.8992 89.0403C42.0985 88.9705 42.3176 89.0701 42.3973 89.2694C42.4671 89.4686 42.3674 89.6878 42.1682 89.7675C42.1582 89.7675 41.0724 90.1759 39.4685 91.1223C39.4087 91.1622 39.339 91.1721 39.2693 91.1721H39.2593Z" fill="#2EA7E0" stroke="#2EA7E0" stroke-width="1.03174"/>
        <path d="M12.763 88.7366C12.6534 88.7366 12.5438 88.6867 12.4641 88.5971C12.3247 88.4377 12.3546 88.1886 12.514 88.0591C13.3209 87.3817 14.1577 86.7541 15.0045 86.1863C15.1738 86.0667 15.4229 86.1165 15.5424 86.2958C15.6619 86.4752 15.6121 86.7143 15.4328 86.8338C14.606 87.3917 13.7891 87.9994 13.0021 88.6569C12.9324 88.7166 12.8427 88.7465 12.753 88.7465L12.763 88.7366ZM43.8643 85.5786C43.8046 85.5786 43.7448 85.5587 43.685 85.5288C43.6751 85.5288 42.639 84.9709 40.9056 84.3333C40.7064 84.2636 40.6068 84.0345 40.6765 83.8352C40.7462 83.636 40.9754 83.5364 41.1746 83.6061C42.9678 84.2636 44.0138 84.8215 44.0536 84.8414C44.2429 84.941 44.3126 85.1801 44.213 85.3594C44.1433 85.4889 44.0138 85.5587 43.8743 85.5587L43.8643 85.5786ZM17.8735 85.3096C17.734 85.3096 17.6045 85.2299 17.5348 85.1004C17.4352 84.9111 17.5149 84.682 17.7042 84.5824C17.9333 84.4628 18.1724 84.3433 18.4015 84.2337C18.5908 84.144 18.8199 84.2237 18.9195 84.413C19.0092 84.6023 18.9295 84.8314 18.7402 84.931C18.5111 85.0406 18.2919 85.1502 18.0628 85.2698C18.003 85.2996 17.9432 85.3096 17.8835 85.3096H17.8735ZM21.4001 83.7954C21.2407 83.7954 21.0912 83.6957 21.0315 83.5364C20.9617 83.3371 21.0713 83.1179 21.2705 83.0482C22.2468 82.7095 23.2629 82.4306 24.2791 82.2114C24.4883 82.1715 24.6875 82.3011 24.7373 82.5103C24.7772 82.7195 24.6477 82.9187 24.4385 82.9685C23.4522 83.1777 22.466 83.4567 21.5196 83.7754C21.4798 83.7854 21.4399 83.7954 21.3901 83.7954H21.4001ZM38.0964 83.4367C38.0964 83.4367 38.0266 83.4367 37.9967 83.4268C37.7576 83.367 37.5086 83.2973 37.2595 83.2375C37.0503 83.1877 36.9208 82.9785 36.9706 82.7792C37.0205 82.57 37.2297 82.4405 37.4289 82.4903C37.6879 82.5501 37.937 82.6198 38.186 82.6796C38.3952 82.7294 38.5148 82.9486 38.4649 83.1478C38.4151 83.3172 38.2657 83.4367 38.0964 83.4367ZM34.3208 82.6796C34.3208 82.6796 34.2809 82.6796 34.2709 82.6796C33.2548 82.5401 32.2387 82.4405 31.2425 82.4106C31.0333 82.4106 30.8639 82.2214 30.8739 82.0122C30.8739 81.803 31.0433 81.6535 31.2724 81.6436C32.2885 81.6834 33.3345 81.783 34.3805 81.9225C34.5897 81.9524 34.7392 82.1417 34.7093 82.3608C34.6794 82.5501 34.52 82.6896 34.3307 82.6896L34.3208 82.6796ZM27.4071 82.5103C27.2079 82.5103 27.0385 82.3608 27.0286 82.1616C27.0087 81.9524 27.168 81.7631 27.3772 81.7432C27.6363 81.7232 27.8953 81.6934 28.1543 81.6834C28.3635 81.6535 28.5528 81.8328 28.5627 82.042C28.5727 82.2512 28.4133 82.4405 28.2041 82.4505C27.955 82.4704 27.696 82.4903 27.447 82.5103C27.437 82.5103 27.4271 82.5103 27.4071 82.5103Z" fill="#2EA7E0" stroke="#2EA7E0" stroke-width="1.03174"/>
        <path d="M0.721678 124.391C0.721678 124.391 0.671869 124.391 0.641983 124.391C0.432781 124.341 0.303275 124.142 0.343123 123.933C0.412857 123.594 0.492553 123.256 0.572249 122.917C0.622059 122.708 0.821298 122.578 1.0305 122.628C1.2397 122.678 1.36921 122.877 1.3194 123.086C1.2397 123.415 1.16997 123.754 1.10023 124.092C1.06039 124.272 0.900994 124.391 0.721678 124.391ZM1.67803 120.396C1.67803 120.396 1.6083 120.396 1.57841 120.387C1.36921 120.327 1.24966 120.118 1.30944 119.918L1.50868 119.171C1.56845 118.962 1.77765 118.842 1.98685 118.902C2.19605 118.962 2.3156 119.171 2.25583 119.38L2.05659 120.118C2.00678 120.287 1.85735 120.406 1.68799 120.406L1.67803 120.396ZM2.77385 116.711C2.77385 116.711 2.69415 116.711 2.6543 116.691C2.45507 116.621 2.34548 116.412 2.40526 116.202C2.72404 115.206 3.07271 114.23 3.42138 113.284C3.49111 113.084 3.72024 112.985 3.91948 113.054C4.11872 113.124 4.21834 113.353 4.1486 113.553C3.79993 114.489 3.46123 115.455 3.14244 116.442C3.09263 116.601 2.9432 116.711 2.77385 116.711ZM4.9356 110.952C4.88579 110.952 4.83598 110.952 4.78617 110.923C4.58693 110.833 4.49727 110.614 4.58693 110.414C4.68655 110.175 4.79613 109.936 4.89575 109.707C4.98541 109.508 5.21454 109.428 5.40381 109.518C5.59309 109.608 5.68275 109.837 5.59309 110.026C5.49347 110.255 5.38389 110.494 5.28427 110.723C5.2245 110.873 5.07507 110.952 4.9356 110.952ZM6.57933 107.476C6.51956 107.476 6.45979 107.466 6.40001 107.436C6.21074 107.336 6.141 107.107 6.23066 106.918C6.70884 105.991 7.2169 105.075 7.73492 104.208C7.8445 104.029 8.08359 103.969 8.26291 104.079C8.44222 104.188 8.50199 104.427 8.39241 104.607C7.88435 105.463 7.38625 106.36 6.90808 107.276C6.83834 107.406 6.70884 107.486 6.56937 107.486L6.57933 107.476ZM9.74724 102.206C9.66755 102.206 9.59781 102.186 9.52808 102.136C9.34876 102.016 9.30892 101.777 9.42846 101.598C9.57789 101.379 9.72732 101.17 9.87675 100.96C9.99629 100.781 10.2453 100.751 10.4147 100.871C10.5841 100.99 10.6239 101.239 10.5044 101.409C10.3549 101.618 10.2155 101.827 10.066 102.036C9.99629 102.146 9.86679 102.206 9.74724 102.206ZM12.0684 99.1374C11.9787 99.1374 11.8891 99.1075 11.8193 99.0478C11.6599 98.9083 11.6301 98.6692 11.7695 98.5098C12.437 97.7128 13.1343 96.9358 13.8516 96.1986C14.001 96.0492 14.2501 96.0392 14.3995 96.1986C14.5489 96.348 14.5589 96.5871 14.3995 96.7465C13.7022 97.4638 13.0148 98.2309 12.3573 99.0079C12.2776 99.0976 12.168 99.1474 12.0584 99.1474L12.0684 99.1374ZM16.362 94.7441C16.2524 94.7441 16.1528 94.7043 16.0731 94.6146C15.9336 94.4552 15.9536 94.2161 16.113 94.0767C16.3122 93.9073 16.5114 93.738 16.7007 93.5686C16.8601 93.4291 17.1092 93.4491 17.2387 93.6184C17.3781 93.7778 17.3482 94.0269 17.1889 94.1564C16.9996 94.3158 16.8003 94.4851 16.6111 94.6545C16.5413 94.7142 16.4517 94.7541 16.362 94.7541V94.7441ZM19.3905 92.3732C19.2709 92.3732 19.1514 92.3134 19.0717 92.2038C18.9521 92.0245 18.992 91.7854 19.1713 91.6659C20.0181 91.0781 20.9047 90.5103 21.7913 89.9922C21.9706 89.8826 22.2097 89.9524 22.3193 90.1317C22.4289 90.311 22.3591 90.5501 22.1798 90.6597C21.3032 91.1578 20.4464 91.7157 19.6096 92.2935C19.5399 92.3433 19.4701 92.3632 19.3905 92.3632V92.3732ZM24.7201 89.3048C24.5707 89.3048 24.4312 89.2251 24.3714 89.0857C24.2818 88.8964 24.3714 88.6673 24.5607 88.5776C24.7998 88.468 25.0389 88.3584 25.268 88.2588C25.4573 88.1791 25.6864 88.2588 25.7761 88.4581C25.8657 88.6573 25.7761 88.8765 25.5768 88.9661C25.3477 89.0658 25.1186 89.1753 24.8795 89.275C24.8297 89.2949 24.7699 89.3148 24.7201 89.3148V89.3048ZM28.2965 87.8803C28.1371 87.8803 27.9877 87.7806 27.9279 87.6213C27.8581 87.422 27.9677 87.2028 28.167 87.1331C29.1532 86.8044 30.1594 86.5155 31.1556 86.2764C31.3747 86.2266 31.574 86.3561 31.6238 86.5653C31.6736 86.7745 31.5441 86.9837 31.3349 87.0335C30.3486 87.2726 29.3724 87.5515 28.4061 87.8703C28.3662 87.8803 28.3264 87.8902 28.2865 87.8902L28.2965 87.8803ZM34.2737 86.4358C34.0844 86.4358 33.925 86.2963 33.8951 86.107C33.8652 85.8978 34.0147 85.6986 34.2239 85.6687C34.4829 85.6288 34.7419 85.5989 35.0009 85.5591C35.1902 85.5292 35.3994 85.6786 35.4293 85.8978C35.4591 86.107 35.3097 86.2963 35.0905 86.3262C34.8415 86.3561 34.5924 86.3959 34.3334 86.4258C34.3135 86.4258 34.2936 86.4258 34.2737 86.4258V86.4358ZM41.1973 86.1668C41.1973 86.1668 41.1674 86.1668 41.1474 86.1668C41.1474 86.1668 40.0018 86.0174 38.129 86.0871H38.119C37.9098 86.0871 37.7404 85.9277 37.7305 85.7185C37.7305 85.5093 37.8899 85.33 38.0991 85.32C40.0417 85.2602 41.1973 85.3997 41.2371 85.4097C41.4463 85.4396 41.5957 85.6288 41.5758 85.838C41.5559 86.0373 41.3865 86.1768 41.1973 86.1768V86.1668Z" fill="#2EA7E0" stroke="#2EA7E0" stroke-width="1.03174"/>
        <path d="M38.3007 118.563C38.1214 118.563 37.952 118.433 37.9221 118.244C37.8723 117.985 37.8325 117.726 37.8026 117.477C37.7727 117.268 37.9122 117.068 38.1214 117.039C38.3306 117.009 38.5298 117.148 38.5597 117.357C38.5995 117.606 38.6394 117.855 38.6792 118.105C38.7191 118.314 38.5796 118.513 38.3704 118.553C38.3505 118.553 38.3206 118.553 38.3007 118.553V118.563ZM37.8623 114.737C37.6631 114.737 37.4938 114.578 37.4738 114.379C37.434 113.701 37.4141 113.014 37.4141 112.326C37.4141 111.968 37.4141 111.609 37.434 111.261C37.434 111.051 37.6133 110.892 37.8225 110.892H37.8325C38.0417 110.892 38.211 111.071 38.2011 111.29C38.1911 111.629 38.1811 111.978 38.1811 112.326C38.1811 112.994 38.2011 113.671 38.2409 114.329C38.2509 114.538 38.0915 114.727 37.8823 114.737H37.8623ZM38.0616 108.591C38.0616 108.591 38.0317 108.591 38.0118 108.591C37.8026 108.561 37.6531 108.372 37.6731 108.162C37.703 107.893 37.7428 107.644 37.7827 107.385C37.8125 107.176 38.0118 107.037 38.221 107.067C38.4302 107.096 38.5796 107.296 38.5398 107.505C38.4999 107.754 38.47 108.003 38.4401 108.262C38.4202 108.461 38.2509 108.601 38.0616 108.601V108.591ZM38.7789 104.815C38.7789 104.815 38.7191 104.815 38.6792 104.805C38.47 104.755 38.3505 104.546 38.4003 104.337C38.8884 102.454 39.3766 101.398 39.3965 101.348C39.4862 101.159 39.7153 101.069 39.9046 101.159C40.0938 101.249 40.1835 101.478 40.0938 101.667C40.0938 101.667 39.6157 102.713 39.1375 104.526C39.0877 104.696 38.9382 104.815 38.7689 104.815H38.7789Z" fill="#2EA7E0" stroke="#2EA7E0" stroke-width="1.03174"/>
        <path d="M68.8516 22.7054C68.8516 22.7054 81.1447 17.5649 109.048 22.7054L106.508 19.896L89.6622 14.3472L83.0175 14.6759C83.0175 14.6759 72.1689 19.0792 72.0992 19.0792C71.9697 19.0792 68.8615 22.6954 68.8615 22.6954L68.8516 22.7054Z" fill="#9B8373"/>
        <path d="M68.7656 21.9208C68.7656 21.9208 80.979 16.4118 108.873 21.5522L108.295 16.9796L90.7418 11.5005L83.7783 11.8492C83.7783 11.8492 74.5336 14.6884 74.4639 14.6884C74.3344 14.6884 68.7656 21.9208 68.7656 21.9208Z" fill="#BF955E"/>
    </g>
    <defs>
        <clipPath id="clip0_112_62145">
            <rect width="159.06" height="150" fill="white" transform="translate(0 0.0634766)"/>
        </clipPath>
    </defs>
</svg>