<svg width="287" height="245" viewBox="0 0 287 245" fill="none" xmlns="http://www.w3.org/2000/svg">
    <g clip-path="url(#clip0_113_31318)">
        <path d="M191.101 239.727C187.804 239.132 184.383 239.302 181.173 240.237C168.702 243.876 134.305 251.221 111.432 229.832C102.591 221.551 98.2061 212.319 97.2238 203.256C95.2943 185.709 106.047 168.69 121.57 160.205C125.605 157.995 128.674 154.441 130.463 150.293C134.954 139.785 147.969 120.691 183.629 116.882C216.325 113.397 236.83 130.841 245.161 139.972C245.46 140.295 245.74 140.618 246.003 140.924C246.547 141.536 247.126 142.131 247.74 142.675C249.722 144.478 252.002 145.872 254.546 146.79C264.561 150.412 285.908 161.514 286.978 190.589C287.452 203.018 268.262 253.789 191.084 239.744L191.101 239.727Z" fill="#E9F9FF"/>
        <path opacity="0.6" d="M191.104 239.723C187.806 239.128 184.386 239.298 181.176 240.233C168.705 243.872 134.307 251.217 111.434 229.828C102.594 221.547 98.2088 212.315 97.2266 203.252C97.2266 203.252 97.2266 203.269 97.2266 203.286C101.945 217.399 146.621 239.451 182.492 212.638C187.912 208.591 194.735 206.823 201.541 207.469C211.89 208.472 227.729 207.894 240.919 198.253C260.67 183.835 258.934 155.168 247.76 142.654C249.742 144.457 252.023 145.851 254.566 146.769C264.582 150.391 285.929 161.493 286.999 190.568C287.472 202.997 268.283 253.767 191.104 239.723Z" fill="#D3F2FF"/>
    </g>
    <g clip-path="url(#clip1_113_31318)">
        <path d="M203.25 156.838C203.25 156.838 246.049 138.328 254.133 104.619C262.216 70.911 225.958 70.4818 220.699 88.8953C215.441 107.309 212.276 128.526 199.954 143.251C187.632 157.977 203.25 156.838 203.25 156.838Z" fill="#382D28"/>
        <path d="M254.136 104.619C246.052 138.328 203.253 156.838 203.253 156.838C203.253 156.838 195.902 157.372 195.266 152.957C201.021 149.208 207.988 143.82 216.447 136.269C249.941 106.345 251.537 88.7023 249.165 80.5029C254.214 84.6902 257.039 92.5041 254.136 104.619Z" fill="#302622"/>
        <path d="M242.879 84.6118C242.879 84.6118 238.362 117.69 211.242 138.337C211.242 138.337 241.344 117.392 242.879 84.6118Z" fill="#302622"/>
        <path d="M236.02 82.728C236.02 82.728 231.677 114.921 207.609 139.475C207.609 139.475 231.86 119.257 236.02 82.728Z" fill="#302622"/>
        <path d="M228.184 87.0381C228.184 87.0381 227.024 105.951 217.188 120.992C217.188 120.992 222.577 110.857 228.184 87.0381Z" fill="#302622"/>
        <path d="M246.171 88.8687C246.171 88.8687 237.084 95.3949 223.742 96.0606C223.742 96.0606 234.669 97.8389 246.171 88.8687Z" fill="#302622"/>
        <path d="M221.055 101.903C221.055 101.903 231.161 103.375 243.605 101.772C243.605 101.772 232.155 104.724 221.055 101.903Z" fill="#302622"/>
        <path d="M220.453 106.144C220.453 106.144 225.171 112.319 235.949 113.914C235.949 113.914 225.197 114.176 220.453 106.144Z" fill="#302622"/>
        <path d="M225.883 126.046C225.883 126.046 219.883 120.44 218.305 113.371C218.305 113.371 221.078 120.51 225.883 126.046Z" fill="#302622"/>
        <g opacity="0.1">
            <path d="M145.285 145.061C140.76 147.943 142.626 154.136 142.966 156.414C143.524 160.128 144.143 163.956 145.887 167.11C147.832 170.631 151.023 172.979 154.389 174.276C157.755 175.563 161.331 175.896 164.862 176.098C167.958 176.273 171.106 176.369 174.045 177.543C176.233 178.419 178.23 179.865 180.393 180.837C185.433 183.106 191.014 182.676 196.394 182.177C198.923 181.941 201.487 181.695 203.894 180.732C207.173 179.418 209.98 176.851 212.605 174.162C214.672 172.051 216.712 169.764 217.925 166.865C219.137 163.965 219.39 160.286 217.916 157.562C216.66 155.24 145.285 145.061 145.285 145.061Z" fill="#231815"/>
        </g>
        <path d="M151.237 155.533C151.229 155.305 151.072 155.103 150.845 155.051C149.947 154.823 149.057 155.191 148.578 155.655C148.211 156.006 148.281 156.312 148.36 156.47C148.412 156.584 148.49 156.671 148.604 156.733C148.778 156.829 149.014 156.864 149.319 156.82C150.043 156.654 150.653 156.733 150.679 156.741C150.827 156.759 150.984 156.715 151.098 156.61C151.211 156.505 151.272 156.356 151.272 156.198L151.246 155.541L151.237 155.533Z" fill="#604B42"/>
        <path d="M153.531 158.178C153.444 157.959 153.226 157.828 152.999 157.854C152.075 157.942 151.36 158.59 151.063 159.185C150.836 159.632 151.011 159.904 151.133 160.026C151.168 160.061 151.211 160.096 151.255 160.123C151.473 160.245 151.778 160.219 152.145 160.026C152.781 159.623 153.392 159.492 153.4 159.492C153.548 159.457 153.679 159.361 153.749 159.229C153.819 159.089 153.828 158.931 153.775 158.791L153.531 158.178Z" fill="#604B42"/>
        <path d="M157.294 161.349C157.189 161.138 156.971 161.024 156.744 161.059C155.829 161.208 155.157 161.892 154.896 162.514C154.704 162.978 154.887 163.232 155.018 163.346C155.053 163.372 155.079 163.398 155.114 163.416C155.349 163.547 155.654 163.504 156.029 163.285C156.631 162.847 157.233 162.671 157.25 162.671C157.398 162.628 157.52 162.522 157.581 162.391C157.642 162.251 157.642 162.084 157.581 161.953L157.302 161.357L157.294 161.349Z" fill="#604B42"/>
        <path d="M162.623 164.178C162.623 164.021 162.554 163.881 162.432 163.784L161.926 163.373C161.751 163.224 161.498 163.215 161.307 163.346C160.539 163.872 160.225 164.783 160.252 165.457C160.269 165.843 160.435 166.018 160.583 166.106C160.626 166.132 160.679 166.15 160.714 166.158C161.019 166.246 161.324 166.088 161.603 165.668C161.961 165.019 162.432 164.599 162.44 164.59C162.554 164.494 162.623 164.345 162.623 164.187V164.178Z" fill="#604B42"/>
        <path d="M160.882 150.881C160.882 150.881 152.013 152.686 150.452 154.07C148.891 155.454 149.31 155.147 149.946 155.857C150.583 156.558 150.775 157.758 152.057 158.529C153.33 159.3 153.923 159.729 154.734 160.482C155.545 161.236 155.484 161.945 157.254 162.646C159.024 163.347 158.78 163.259 159.731 163.75C160.681 164.24 162.05 165.309 162.661 164.661C163.262 164.013 163.864 163.469 164.553 161.98C165.242 160.491 165.556 159.834 166.89 158.319C168.224 156.803 170.099 156.085 167.945 154.228C165.791 152.37 162.887 150.443 160.882 150.881Z" fill="#4F3F37"/>
        <path d="M199.951 168.988C200.116 168.778 200.396 168.69 200.648 168.787C201.66 169.172 202.262 170.118 202.419 170.88C202.532 171.458 202.262 171.704 202.087 171.8C201.965 171.87 201.826 171.896 201.686 171.888C201.459 171.861 201.206 171.73 200.945 171.493C200.369 170.854 199.724 170.512 199.698 170.504C199.541 170.425 199.419 170.276 199.384 170.101C199.34 169.925 199.384 169.741 199.489 169.601L199.951 168.997V168.988Z" fill="#604B42"/>
        <path d="M196.014 169.969C196.24 169.82 196.537 169.837 196.737 170.013C197.557 170.722 197.81 171.817 197.697 172.588C197.609 173.166 197.269 173.315 197.077 173.342C197.016 173.35 196.955 173.35 196.894 173.342C196.598 173.315 196.327 173.087 196.109 172.658C195.769 171.852 195.272 171.309 195.272 171.3C195.15 171.169 195.089 170.994 195.115 170.81C195.133 170.635 195.237 170.468 195.386 170.372L196.022 169.951L196.014 169.969Z" fill="#604B42"/>
        <path d="M190.305 170.46C190.54 170.328 190.828 170.363 191.02 170.556C191.796 171.318 191.979 172.422 191.822 173.184C191.7 173.753 191.351 173.876 191.16 173.902C191.107 173.902 191.064 173.902 191.02 173.902C190.715 173.867 190.444 173.622 190.235 173.167C189.956 172.343 189.494 171.782 189.485 171.765C189.372 171.625 189.32 171.441 189.354 171.266C189.389 171.09 189.494 170.933 189.651 170.845L190.314 170.468L190.305 170.46Z" fill="#604B42"/>
        <path d="M183.342 169.584C183.446 169.435 183.612 169.347 183.786 169.33L184.545 169.277C184.815 169.26 185.06 169.417 185.156 169.671C185.531 170.688 185.225 171.774 184.763 172.387C184.493 172.746 184.214 172.807 184.013 172.781C183.952 172.781 183.9 172.764 183.848 172.746C183.499 172.624 183.316 172.264 183.324 171.677C183.42 170.819 183.246 170.109 183.237 170.083C183.194 169.908 183.228 169.724 183.333 169.575L183.342 169.584Z" fill="#604B42"/>
        <path d="M193.847 158.064C193.847 158.064 201.102 165.738 201.669 168.103C202.236 170.477 202.044 169.899 200.962 170.145C199.89 170.39 198.905 171.397 197.178 171.275C195.451 171.152 194.597 171.169 193.324 171.345C192.05 171.52 191.632 172.229 189.478 171.713C187.324 171.196 187.621 171.275 186.382 171.099C185.144 170.924 183.13 171.029 182.981 170.004C182.833 168.979 182.624 168.06 182.955 166.176C183.295 164.293 183.426 163.452 183.156 161.113C182.886 158.774 181.578 156.829 184.865 156.505C188.153 156.181 192.207 156.286 193.829 158.056L193.847 158.064Z" fill="#4F3F37"/>
        <path d="M207.32 56.7023C208.175 49.8695 201.076 43.3433 191.458 42.1256C181.84 40.908 173.346 45.4632 172.492 52.296L172.047 55.8175L206.884 60.2238L207.329 56.7023H207.32Z" fill="#C9A063"/>
        <path d="M133.665 118.259C133.665 118.259 133.77 123.305 138.356 125.101C142.943 126.896 145.577 126.345 151.027 124.155C156.477 121.965 170.551 111.382 170.551 111.382L159.285 98.1812C159.285 98.1812 141.33 103.332 133.656 118.259H133.665Z" fill="#8E7565"/>
        <path d="M192.281 49.1519C192.281 49.1519 198.542 50.2731 203.033 54.5568C203.033 54.5568 199.938 52.139 192.281 49.1519Z" fill="#BF955E"/>
        <path d="M192.672 46.2344C192.672 46.2344 199.125 47.5046 203.747 51.9021C203.747 51.9021 200.564 49.4055 192.672 46.2344Z" fill="#BF955E"/>
        <path d="M193.766 43.2036C193.766 43.2036 195.797 46.9879 195.405 52.1213C195.405 52.1213 196.608 48.0304 193.766 43.2036Z" fill="#BF955E"/>
        <path d="M197.5 53.426C197.5 53.426 198.546 49.6329 198.546 44.8062C198.546 44.8062 199.113 49.3263 197.5 53.426Z" fill="#BF955E"/>
        <path d="M199.062 53.8644C199.062 53.8644 201.626 52.3665 202.751 48.3193C202.751 48.3193 202.333 52.4365 199.062 53.8644Z" fill="#BF955E"/>
        <path d="M226.821 71.6759C227.903 63.0454 211.578 53.872 190.358 51.1866C169.137 48.5012 151.058 53.3206 149.975 61.9512C148.893 70.5817 165.218 79.7551 186.438 82.4405C207.659 85.1259 225.738 80.3065 226.821 71.6759Z" fill="#BF955E"/>
        <path d="M150.562 65.708C153.71 73.1014 168.273 80.1532 186.437 82.4571C204.601 84.7522 220.446 81.5548 225.329 75.1776C217.446 79.067 203.032 80.5562 186.934 78.5151C170.837 76.474 157.242 71.4458 150.562 65.708Z" fill="#AF8756"/>
        <path d="M219.634 124.575C221.858 130.304 222.922 136.918 222.547 143.05C222.224 148.341 220.567 153.659 217.219 157.758C210.775 165.651 199.273 168.209 189.602 168.778C179.085 169.391 167.819 167.447 158.985 161.402C152.402 156.891 147.37 149.664 146.149 141.684C144.737 132.442 148.713 123.489 153.16 115.64C156.317 110.069 164.758 96.2017 164.758 96.2017L208.054 99.11C208.054 99.11 217.105 118.058 219.634 124.575Z" fill="#9E8574"/>
        <g style="mix-blend-mode:multiply" opacity="0.6" filter="url(#filter0_f_113_31318)">
            <path fill-rule="evenodd" clip-rule="evenodd" d="M178.772 162.523C182.238 166.339 181.953 172.242 178.137 175.707C174.321 179.172 168.418 178.888 164.953 175.072L48.4839 46.8112C48.4839 46.8112 48.2129 46.5128 47.9392 45.9593L42.039 36.7328C41.8902 36.4999 41.7822 36.2434 41.7659 35.9674C41.748 35.6685 41.7509 35.2207 41.8438 34.6675L35.1826 21.4737C34.4034 19.9301 36.0974 18.3114 37.6041 19.1605L50.7952 26.595C51.3405 26.5245 51.7768 26.5294 52.0793 26.5526C52.4015 26.5775 52.6933 26.7231 52.9475 26.9225L61.5077 33.6381C62.0323 33.9639 62.3033 34.2623 62.3033 34.2623L178.772 162.523Z" fill="url(#paint0_linear_113_31318)"/>
        </g>
        <g filter="url(#filter1_i_113_31318)">
            <path fill-rule="evenodd" clip-rule="evenodd" d="M209.52 142.929C213.465 146.246 213.975 152.134 210.658 156.08C207.342 160.025 201.454 160.535 197.508 157.218L57.297 39.3577C57.297 39.3577 57.2967 39.3575 57.2962 39.3571C57.2788 39.3423 56.9789 39.0839 56.6438 38.588L49.5585 30.2351C49.3795 30.0241 49.2383 29.7845 49.185 29.5131C49.1272 29.2194 49.0701 28.7753 49.088 28.2147L40.7166 16.0326C39.737 14.6071 41.1988 12.776 42.8059 13.4154L56.8768 19.0142C57.4069 18.8712 57.8396 18.8176 58.1424 18.8C58.4649 18.7814 58.7739 18.8868 59.0525 19.0503L68.4348 24.5563C68.9994 24.8091 69.3082 25.0687 69.3082 25.0687L209.52 142.929Z" fill="#E7E8EA"/>
        </g>
        <g filter="url(#filter2_i_113_31318)">
            <path d="M50.4814 30.2408L59.1562 19.9209L42.8071 13.4156C41.2 12.7761 39.7383 14.6072 40.7178 16.0327L50.4814 30.2408Z" fill="#635449"/>
        </g>
        <g filter="url(#filter3_i_113_31318)">
            <path d="M69.3047 25.0688L59.0491 19.0504C58.7705 18.8869 58.4615 18.7814 58.139 18.8001C57.0944 18.8605 54.506 19.3501 51.6959 22.4598C48.7887 25.6769 48.9817 28.4962 49.1815 29.5131C49.2349 29.7846 49.3761 30.0242 49.5551 30.2351L57.2934 39.3579L69.3047 25.0688Z" fill="#F7D083"/>
        </g>
        <g filter="url(#filter4_i_113_31318)">
            <path d="M210.658 156.08C213.975 152.134 213.465 146.246 209.52 142.929L69.3082 25.0687C69.3082 25.0687 64.8429 21.3152 58.8373 28.4597C52.8316 35.6042 57.297 39.3577 57.297 39.3577L197.508 157.218C201.454 160.535 207.342 160.025 210.658 156.08Z" fill="#2BB13C"/>
        </g>
        <rect opacity="0.3" width="68.4674" height="3.50002" rx="1.75001" transform="matrix(-0.765481 -0.643458 -0.643458 0.765481 119.469 71.8042)" fill="#A2DF6D"/>
        <path d="M215.624 102.324C215.624 102.324 220.167 111.697 220.821 118.189C221.562 125.477 221.71 132.94 218.24 139.537C216.191 143.435 211.203 146.396 205.404 147.85C201.061 148.936 195.724 148.349 190.422 147.246C186.368 146.405 178.72 143.514 175.991 139.326C174.369 136.83 176.191 133.562 177.874 132.248C181.999 129.051 191.966 132.748 195.716 129.761C202.43 124.417 195.018 111.829 195.018 111.829C196.762 109.455 203.311 102.99 203.311 102.99L215.615 102.333L215.624 102.324Z" fill="#8E7565"/>
        <path d="M178.849 140.098C177.428 141.517 171.873 139.896 170.077 139.432C169.51 139.283 168.603 138.828 168.76 137.549C168.952 136.077 170.208 136.252 173.007 136.629C175.806 136.997 175.745 137.032 178.117 137.373C178.937 137.487 180.114 138.845 178.849 140.098Z" fill="#4F3F37"/>
        <path d="M182.24 143.628C181.115 145.257 175.596 144.591 173.825 144.434C173.267 144.381 172.334 144.083 172.291 142.796C172.238 141.315 173.459 141.28 176.162 141.175C178.866 141.07 178.813 141.114 181.116 141.052C181.909 141.035 183.235 142.165 182.24 143.619V143.628Z" fill="#4F3F37"/>
        <path d="M178.795 136.173C177.129 137.321 171.836 134.71 170.118 133.922C169.577 133.677 168.74 133.055 169.133 131.811C169.577 130.383 170.807 130.786 173.545 131.662C176.283 132.538 176.213 132.555 178.533 133.326C179.335 133.589 180.277 135.148 178.795 136.173Z" fill="#4F3F37"/>
        <path d="M183.315 134.298C181.536 134.946 178.284 131.451 177.211 130.374C176.871 130.032 176.435 129.296 177.229 128.28C178.136 127.106 178.964 127.746 180.83 129.13C182.696 130.514 182.635 130.523 184.205 131.714C184.745 132.126 184.911 133.72 183.324 134.298H183.315Z" fill="#4F3F37"/>
        <path d="M167.426 63.0187C170.33 65.9183 168.882 72.1204 168.882 72.1204C168.882 72.1204 162.717 73.6183 159.813 70.7188C156.909 67.8192 156.744 63.2465 158.357 61.6171C159.97 59.9878 164.522 60.1192 167.426 63.0187Z" fill="#A48B78"/>
        <path d="M164.457 64.7968C166.236 66.575 165.861 69.86 165.861 69.86C165.861 69.86 162.6 70.263 160.812 68.4847C159.033 66.7064 158.632 64.2098 159.408 63.4214C160.184 62.633 162.669 63.0185 164.457 64.7968Z" fill="#4F3F37"/>
        <path d="M209.702 68.3537C206.17 70.4386 206.039 76.8071 206.039 76.8071C206.039 76.8071 211.637 79.8031 215.169 77.7182C218.701 75.6333 219.991 71.2533 218.832 69.2648C217.672 67.2763 213.233 66.2689 209.702 68.3537Z" fill="#A48B78"/>
        <path d="M212.132 70.815C209.969 72.094 209.516 75.3615 209.516 75.3615C209.516 75.3615 212.576 76.5616 214.748 75.2826C216.91 74.0037 217.913 71.6823 217.364 70.7362C216.814 69.7901 214.303 69.5361 212.132 70.815Z" fill="#4F3F37"/>
        <path d="M189.802 56.1597C189.802 56.1597 170.147 53.6631 161.784 68.7215C157.991 75.5543 159.709 73.7323 154.451 80.8541C140.167 100.231 164.514 116.805 181.911 119.013C198.182 121.071 226.994 111.234 217.942 88.8958C214.611 80.6877 215.823 82.8865 213.835 75.3178C209.248 57.8241 189.802 56.1597 189.802 56.1597Z" fill="#A48B78"/>
        <path d="M177.387 107.703C177.387 107.703 177.177 109.341 179.209 109.42L182.374 109.552C183.369 109.595 184.302 109.026 184.659 108.106C185.714 105.417 185.645 101.536 185.645 101.536L181.066 98.8907L178.886 95.0889L176.314 98.6892L170.89 99.6616C170.89 99.6616 169.861 103.411 170.227 106.275C170.349 107.257 171.108 108.036 172.085 108.238L175.189 108.895C177.177 109.324 177.378 107.686 177.378 107.686L177.387 107.703Z" fill="#EFEFEF"/>
        <path d="M181.209 77.2883C169.271 75.7728 160.987 76.9204 156.287 85.2161C150.575 95.2989 158.458 100.853 168.164 102.079C177.869 103.306 178.793 96.4727 178.793 96.4727C178.793 96.4727 178 103.323 187.705 104.549C197.42 105.776 206.419 102.368 203.376 91.1729C200.873 81.9661 193.129 78.795 181.191 77.2795L181.209 77.2883Z" fill="#D1B69D"/>
        <path d="M195.293 92.5748C195.851 92.5748 196.304 92.1198 196.304 91.5586C196.304 90.9974 195.851 90.5425 195.293 90.5425C194.734 90.5425 194.281 90.9974 194.281 91.5586C194.281 92.1198 194.734 92.5748 195.293 92.5748Z" fill="#DBC6B4"/>
        <path d="M198.715 90.0255C199.273 90.0255 199.726 89.5705 199.726 89.0093C199.726 88.4481 199.273 87.9932 198.715 87.9932C198.156 87.9932 197.703 88.4481 197.703 89.0093C197.703 89.5705 198.156 90.0255 198.715 90.0255Z" fill="#DBC6B4"/>
        <path d="M199.582 94.1422C200.141 94.1422 200.593 93.6872 200.593 93.126C200.593 92.5648 200.141 92.1099 199.582 92.1099C199.023 92.1099 198.57 92.5648 198.57 93.126C198.57 93.6872 199.023 94.1422 199.582 94.1422Z" fill="#DBC6B4"/>
        <path d="M164.074 88.6236C164.633 88.6236 165.086 88.1687 165.086 87.6075C165.086 87.0463 164.633 86.5913 164.074 86.5913C163.515 86.5913 163.062 87.0463 163.062 87.6075C163.062 88.1687 163.515 88.6236 164.074 88.6236Z" fill="#DBC6B4"/>
        <path d="M161.402 85.295C161.961 85.295 162.414 84.8401 162.414 84.2789C162.414 83.7176 161.961 83.2627 161.402 83.2627C160.844 83.2627 160.391 83.7176 160.391 84.2789C160.391 84.8401 160.844 85.295 161.402 85.295Z" fill="#DBC6B4"/>
        <path d="M159.535 89.0704C160.094 89.0704 160.547 88.6155 160.547 88.0542C160.547 87.493 160.094 87.0381 159.535 87.0381C158.976 87.0381 158.523 87.493 158.523 88.0542C158.523 88.6155 158.976 89.0704 159.535 89.0704Z" fill="#DBC6B4"/>
        <path d="M172.001 79.2249C172.576 74.6697 178.933 75.2303 181.445 75.5545C183.947 75.8698 190.217 76.9035 189.65 81.4675C189.363 83.7889 184.41 88.7908 179.84 88.2126C175.271 87.6345 171.713 81.555 172.001 79.2336V79.2249Z" fill="#4F3F37"/>
        <path d="M180.148 79.0737C180.279 78.0321 179.111 77.0263 177.539 76.8271C175.967 76.6278 174.586 77.3107 174.456 78.3523C174.325 79.3939 175.493 80.3998 177.065 80.599C178.637 80.7982 180.018 80.1153 180.148 79.0737Z" fill="#6D5A50"/>
        <path d="M185.258 53.3125C185.258 53.3125 186.828 55.4324 184.805 56.9129L188.424 57.3684C188.424 57.3684 189.322 53.8907 185.258 53.3125Z" fill="#A48B78"/>
        <path d="M196.327 82.106C198.104 82.106 199.545 80.6588 199.545 78.8736C199.545 77.0883 198.104 75.6411 196.327 75.6411C194.55 75.6411 193.109 77.0883 193.109 78.8736C193.109 80.6588 194.55 82.106 196.327 82.106Z" fill="#4F3F37"/>
        <path d="M195.017 78.4006C195.441 78.4006 195.785 78.0555 195.785 77.6298C195.785 77.204 195.441 76.8589 195.017 76.8589C194.594 76.8589 194.25 77.204 194.25 77.6298C194.25 78.0555 194.594 78.4006 195.017 78.4006Z" fill="white"/>
        <path d="M166.202 78.295C167.979 78.295 169.42 76.8477 169.42 75.0625C169.42 73.2773 167.979 71.8301 166.202 71.8301C164.425 71.8301 162.984 73.2773 162.984 75.0625C162.984 76.8477 164.425 78.295 166.202 78.295Z" fill="#4F3F37"/>
        <path d="M164.892 74.5808C165.316 74.5808 165.66 74.2357 165.66 73.8099C165.66 73.3842 165.316 73.0391 164.892 73.0391C164.469 73.0391 164.125 73.3842 164.125 73.8099C164.125 74.2357 164.469 74.5808 164.892 74.5808Z" fill="white"/>
        <path d="M195.941 73.4339L198.4 74.0734C198.958 74.2223 199.525 73.8807 199.673 73.3201C199.821 72.7594 199.481 72.19 198.923 72.0411L196.464 71.4016C195.906 71.2527 195.339 71.5943 195.191 72.155C195.043 72.7156 195.383 73.285 195.941 73.4339Z" fill="#B79D8B"/>
        <path d="M167.89 69.8774H165.343C164.768 69.8774 164.297 69.4218 164.297 68.8437C164.297 68.2655 164.759 67.7925 165.335 67.7925H167.881C168.456 67.7925 168.927 68.248 168.927 68.8262C168.927 69.4043 168.465 69.8774 167.89 69.8774Z" fill="#B79D8B"/>
        <path d="M171.492 58.9802C171.492 58.9802 182.698 55.5112 206.373 63.0624V59.0065L191.723 52.2963L185.636 51.832C185.636 51.832 177.291 53.295 177.23 53.2862C177.117 53.2687 171.492 58.9714 171.492 58.9714V58.9802Z" fill="#BF955E"/>
        <path d="M129.891 125.73C131.783 125.073 132.795 119.353 133.178 117.531C133.3 116.961 133.292 115.927 132.08 115.516C130.684 115.034 130.283 116.243 129.376 118.932C128.469 121.621 128.522 121.578 127.78 123.864C127.519 124.652 128.208 126.317 129.891 125.73Z" fill="#4F3F37"/>
        <path d="M133.296 127.272C135.258 127.062 137.324 121.876 138.031 120.238C138.257 119.721 138.44 118.748 137.342 118.1C136.069 117.347 135.458 118.398 134.072 120.746C132.685 123.085 132.746 123.058 131.586 125.056C131.185 125.748 131.543 127.465 133.296 127.272Z" fill="#4F3F37"/>
        <path d="M126.054 124.039C127.894 123.198 128.417 117.311 128.635 115.428C128.705 114.832 128.609 113.799 127.353 113.492C125.906 113.133 125.618 114.394 124.938 117.197C124.266 120.001 124.319 119.957 123.769 122.34C123.577 123.163 124.414 124.784 126.054 124.039Z" fill="#4F3F37"/>
        <path d="M163.349 58.0422C170.151 58.4802 175.313 64.5772 174.668 71.6377C174.023 78.6983 167.832 83.7528 161.065 82.9294C154.498 82.1322 149.807 76.0703 150.417 69.3952C151.028 62.72 156.748 57.6217 163.349 58.0422ZM163.489 56.5793C156.112 56.1325 149.763 61.8265 149.083 69.2725C148.403 76.7273 153.609 83.4812 160.943 84.401C168.529 85.3471 175.47 79.7144 176.194 71.7866C176.918 63.8588 171.128 57.0436 163.498 56.588L163.489 56.5793Z" fill="#473E39"/>
        <path d="M153.325 66.8983C153.325 66.8983 153.247 66.8896 153.203 66.8808C152.723 66.7669 152.418 66.2676 152.531 65.7683C152.854 64.3229 153.927 63.4119 154.049 63.3155C154.45 62.9914 155.008 63.0615 155.313 63.4732C155.61 63.8849 155.531 64.4718 155.139 64.7959C155.113 64.8135 154.45 65.3829 154.276 66.1713C154.171 66.6355 153.761 66.9509 153.316 66.9071L153.325 66.8983Z" fill="white"/>
        <path d="M169.596 78.6461C169.29 78.6111 169.003 78.4271 168.837 78.138C168.584 77.665 168.75 77.0781 169.212 76.8153C169.238 76.7977 170.023 76.3422 170.319 75.5626C170.511 75.0633 171.078 74.8092 171.575 75.0107C172.081 75.2122 172.334 75.7816 172.133 76.2897C171.584 77.7351 170.293 78.4709 170.145 78.5498C169.971 78.6461 169.77 78.6812 169.587 78.6636L169.596 78.6461Z" fill="white"/>
        <path d="M203.582 60.609C211.701 61.1258 217.944 67.8447 217.238 75.5711C216.532 83.2974 209.172 88.7636 201.097 87.7825C193.022 86.8014 187.659 80.1701 188.322 72.8993C188.985 65.6285 195.734 60.1097 203.591 60.609M203.73 59.0059C194.949 58.4715 187.467 64.6386 186.717 72.7503C185.967 80.8621 192.211 88.2993 200.94 89.3856C210 90.5156 218.249 84.4274 219.043 75.7375C219.837 67.0563 212.834 59.549 203.722 59.0059H203.73Z" fill="#473E39"/>
        <path d="M191.734 70.2009C191.691 70.2009 191.638 70.1921 191.595 70.1834C191.019 70.0607 190.662 69.5088 190.793 68.9657C191.159 67.3889 192.432 66.4078 192.58 66.3027C193.051 65.961 193.723 66.0399 194.08 66.4866C194.438 66.9334 194.35 67.5729 193.888 67.9233C193.862 67.9496 193.077 68.554 192.877 69.4125C192.755 69.9206 192.266 70.2534 191.743 70.2096L191.734 70.2009Z" fill="white"/>
        <path d="M211.228 83.1918C210.861 83.148 210.512 82.9465 210.321 82.6224C210.007 82.0968 210.207 81.4573 210.757 81.177C210.792 81.1595 211.725 80.6689 212.073 79.8105C212.3 79.2586 212.972 78.9958 213.573 79.2148C214.175 79.4338 214.489 80.0645 214.253 80.6164C213.608 82.1932 212.073 82.9816 211.899 83.0692C211.69 83.1743 211.454 83.2093 211.236 83.1831L211.228 83.1918Z" fill="white"/>
        <path d="M187.925 73.6433L174.914 72.4256L175.054 70.9102L188.064 72.0928L187.925 73.6433Z" fill="#473E39"/>
    </g>
    <defs>
        <filter id="filter0_f_113_31318" x="31.4844" y="15.4263" width="153.211" height="166.205" filterUnits="userSpaceOnUse" color-interpolation-filters="sRGB">
            <feFlood flood-opacity="0" result="BackgroundImageFix"/>
            <feBlend mode="normal" in="SourceGraphic" in2="BackgroundImageFix" result="shape"/>
            <feGaussianBlur stdDeviation="1.75001" result="effect1_foregroundBlur_113_31318"/>
        </filter>
        <filter id="filter1_i_113_31318" x="40.3984" y="13.2842" width="172.445" height="146.124" filterUnits="userSpaceOnUse" color-interpolation-filters="sRGB">
            <feFlood flood-opacity="0" result="BackgroundImageFix"/>
            <feBlend mode="normal" in="SourceGraphic" in2="BackgroundImageFix" result="shape"/>
            <feColorMatrix in="SourceAlpha" type="matrix" values="0 0 0 0 0 0 0 0 0 0 0 0 0 0 0 0 0 0 127 0" result="hardAlpha"/>
            <feOffset dy="-4.66669"/>
            <feComposite in2="hardAlpha" operator="arithmetic" k2="-1" k3="1"/>
            <feColorMatrix type="matrix" values="0 0 0 0 0 0 0 0 0 0 0 0 0 0 0 0 0 0 0.12 0"/>
            <feBlend mode="normal" in2="shape" result="effect1_innerShadow_113_31318"/>
        </filter>
        <filter id="filter2_i_113_31318" x="40.3984" y="13.2842" width="18.7578" height="16.9565" filterUnits="userSpaceOnUse" color-interpolation-filters="sRGB">
            <feFlood flood-opacity="0" result="BackgroundImageFix"/>
            <feBlend mode="normal" in="SourceGraphic" in2="BackgroundImageFix" result="shape"/>
            <feColorMatrix in="SourceAlpha" type="matrix" values="0 0 0 0 0 0 0 0 0 0 0 0 0 0 0 0 0 0 127 0" result="hardAlpha"/>
            <feOffset dy="-2.91668"/>
            <feComposite in2="hardAlpha" operator="arithmetic" k2="-1" k3="1"/>
            <feColorMatrix type="matrix" values="0 0 0 0 0 0 0 0 0 0 0 0 0 0 0 0 0 0 0.12 0"/>
            <feBlend mode="normal" in2="shape" result="effect1_innerShadow_113_31318"/>
        </filter>
        <filter id="filter3_i_113_31318" x="49.0781" y="18.7979" width="20.2266" height="20.5601" filterUnits="userSpaceOnUse" color-interpolation-filters="sRGB">
            <feFlood flood-opacity="0" result="BackgroundImageFix"/>
            <feBlend mode="normal" in="SourceGraphic" in2="BackgroundImageFix" result="shape"/>
            <feColorMatrix in="SourceAlpha" type="matrix" values="0 0 0 0 0 0 0 0 0 0 0 0 0 0 0 0 0 0 127 0" result="hardAlpha"/>
            <feOffset dx="3.50002" dy="-4.66669"/>
            <feComposite in2="hardAlpha" operator="arithmetic" k2="-1" k3="1"/>
            <feColorMatrix type="matrix" values="0 0 0 0 0 0 0 0 0 0 0 0 0 0 0 0 0 0 0.12 0"/>
            <feBlend mode="normal" in2="shape" result="effect1_innerShadow_113_31318"/>
        </filter>
        <filter id="filter4_i_113_31318" x="55.7031" y="24.0835" width="157.141" height="135.324" filterUnits="userSpaceOnUse" color-interpolation-filters="sRGB">
            <feFlood flood-opacity="0" result="BackgroundImageFix"/>
            <feBlend mode="normal" in="SourceGraphic" in2="BackgroundImageFix" result="shape"/>
            <feColorMatrix in="SourceAlpha" type="matrix" values="0 0 0 0 0 0 0 0 0 0 0 0 0 0 0 0 0 0 127 0" result="hardAlpha"/>
            <feOffset dy="-4.66669"/>
            <feComposite in2="hardAlpha" operator="arithmetic" k2="-1" k3="1"/>
            <feColorMatrix type="matrix" values="0 0 0 0 0 0 0 0 0 0 0 0 0 0 0 0 0 0 0.12 0"/>
            <feBlend mode="normal" in2="shape" result="effect1_innerShadow_113_31318"/>
        </filter>
        <linearGradient id="paint0_linear_113_31318" x1="33.8795" y1="21.4775" x2="114.102" y2="126.07" gradientUnits="userSpaceOnUse">
            <stop stop-color="#253D43"/>
            <stop offset="1" stop-color="#253D43" stop-opacity="0"/>
        </linearGradient>
        <clipPath id="clip0_113_31318">
            <rect width="190" height="128.031" fill="white" transform="translate(97 116.416)"/>
        </clipPath>
        <clipPath id="clip1_113_31318">
            <rect width="255" height="186" fill="white" transform="translate(0 0.0634766)"/>
        </clipPath>
    </defs>
</svg>