<svg width="140" height="63" viewBox="0 0 140 63" fill="none" xmlns="http://www.w3.org/2000/svg">
    <path d="M2.23595 41.0088C1.76399 40.5913 2.05929 39.8118 2.68941 39.8118H137.212C137.852 39.8118 138.142 40.612 137.65 41.0219L112.966 61.5977C112.195 62.2402 111.224 62.5921 110.22 62.5921H28.2592C27.2125 62.5921 26.2018 62.2093 25.4178 61.5157L2.23595 41.0088Z" fill="url(#paint0_linear_166_87247)" fill-opacity="0.8"/>
    <rect x="1.91753" y="1.61504" width="136.144" height="41.5453" rx="4.97138" fill="white"/>
    <rect x="1.91753" y="1.61504" width="136.144" height="41.5453" rx="4.97138" stroke="#F08B21" stroke-width="2.60069"/>
    <g clip-path="url(#clip0_166_87247)">
        <rect x="12.464" y="11.238" width="22.2995" height="22.2995" rx="11.1497" fill="white"/>
        <rect x="12.464" y="11.238" width="22.2995" height="22.2995" rx="11.1497" stroke="#EBECEF" stroke-width="2.78743"/>
        <path fill-rule="evenodd" clip-rule="evenodd" d="M21.6911 20.7053V24.988L25.4661 22.8085L21.6911 20.7053ZM29.4938 23.977C29.4163 24.0464 29.3305 24.1089 29.2368 24.163L20.9378 28.9544C20.2065 29.3767 19.2712 29.1261 18.849 28.3947C18.699 28.135 18.6339 27.8496 18.6451 27.5706C18.637 27.5069 18.6328 27.4421 18.6328 27.3762V18.2012C18.6328 18.1026 18.6421 18.0062 18.66 17.9129C18.6843 17.7263 18.7437 17.5411 18.8408 17.3667C19.2519 16.629 20.1832 16.3641 20.9209 16.7752L29.2921 21.4392C30.0298 21.8503 30.2947 22.7815 29.8836 23.5193C29.7819 23.7018 29.6484 23.8554 29.4938 23.977Z" fill="#FF7B26"/>
        <path fill-rule="evenodd" clip-rule="evenodd" d="M21.6911 20.7053V24.988L25.4661 22.8085L21.6911 20.7053ZM29.4938 23.977C29.4163 24.0464 29.3305 24.1089 29.2368 24.163L20.9378 28.9544C20.2065 29.3767 19.2712 29.1261 18.849 28.3947C18.699 28.135 18.6339 27.8496 18.6451 27.5706C18.637 27.5069 18.6328 27.4421 18.6328 27.3762V18.2012C18.6328 18.1026 18.6421 18.0062 18.66 17.9129C18.6843 17.7263 18.7437 17.5411 18.8408 17.3667C19.2519 16.629 20.1832 16.3641 20.9209 16.7752L29.2921 21.4392C30.0298 21.8503 30.2947 22.7815 29.8836 23.5193C29.7819 23.7018 29.6484 23.8554 29.4938 23.977Z" fill="url(#paint1_linear_166_87247)" fill-opacity="0.2"/>
        <path d="M28.0078 18.3915L28.0078 16.2294C28.0078 16.0284 28.2338 15.9102 28.3989 16.0249L29.9547 17.106C30.0973 17.2051 30.0973 17.4159 29.9547 17.515L28.3989 18.596C28.2338 18.7108 28.0078 18.5926 28.0078 18.3915Z" fill="#FFA546" fill-opacity="0.7"/>
        <path d="M23.6138 11.2128C23.6138 10.457 22.9992 9.83651 22.2479 9.91882C20.056 10.1589 17.9574 10.9738 16.1697 12.2919C14.0134 13.8819 12.4228 16.1204 11.6309 18.6797C10.8389 21.2391 10.8872 23.9847 11.7687 26.5147C12.6501 29.0446 14.3184 31.2258 16.5293 32.7389C18.7401 34.2521 21.3774 35.0176 24.0548 34.9234C26.7322 34.8292 29.3091 33.8802 31.4082 32.2155C33.5072 30.5507 35.0181 28.2576 35.7196 25.672C36.3012 23.5285 36.3011 21.2772 35.7314 19.1471C35.5361 18.4169 34.7353 18.0686 34.0307 18.3422C33.3261 18.6159 32.987 19.408 33.1599 20.1438C33.531 21.7226 33.5063 23.3764 33.078 24.9554C32.5295 26.9767 31.3483 28.7695 29.7073 30.0709C28.0663 31.3724 26.0517 32.1143 23.9585 32.1879C21.8654 32.2616 19.8036 31.6631 18.0752 30.4802C16.3468 29.2972 15.0425 27.592 14.3534 25.6141C13.6643 23.6363 13.6266 21.4897 14.2457 19.4889C14.8648 17.488 16.1083 15.7379 17.7941 14.495C19.1109 13.524 20.6435 12.9023 22.2496 12.6767C22.9981 12.5716 23.6138 11.9686 23.6138 11.2128Z" fill="#FFA546"/>
    </g>
    <rect x="44.5156" y="7.73926" width="26.4806" height="10.4529" rx="2.78743" fill="#E6F7E8"/>
    <path d="M56.8665 15.0436C56.8498 15.2555 56.7383 15.3279 56.5822 15.3168C56.4205 15.3056 56.3425 15.2109 56.3425 14.9712C56.3425 13.7335 56.3648 12.4959 56.4094 11.275C56.4149 11.0743 56.4985 10.9963 56.7215 10.9963C56.9222 10.9963 57.0114 11.091 57.0114 11.2917C57.0003 12.5071 56.9501 13.9175 56.8665 15.0436ZM54.8763 11.6485C54.3244 11.6708 53.6888 11.682 53.109 11.682C52.9585 11.682 52.8972 11.6095 52.8972 11.4367C52.8972 11.2806 53.0031 11.2137 53.1035 11.2081C53.8393 11.1691 54.5975 11.1468 55.2888 11.1468C55.4337 11.1468 55.4783 11.2081 55.4783 11.3586C55.4783 11.8102 55.456 14.1182 55.4059 14.5475C55.3836 14.7147 55.2721 14.7872 55.1104 14.776C54.9487 14.7649 54.8763 14.6924 54.8707 14.5419C54.8595 14.2799 54.8763 11.9774 54.8763 11.6485ZM60.0851 13.176V13.6611C60.6538 13.6443 61.2001 13.6276 61.6517 13.6165C61.7911 13.6109 61.8468 13.7057 61.8468 13.8395C61.8468 14.0123 61.7632 14.0792 61.6405 14.0847C60.5813 14.1461 59.1095 14.1851 57.9723 14.213C57.8329 14.2185 57.7604 14.1461 57.7604 13.9732C57.7604 13.8116 57.8218 13.728 57.9778 13.7224C58.4461 13.7057 58.9646 13.6889 59.4886 13.6778V13.1872C59.0148 13.1983 58.6078 13.1983 58.4907 13.1983C58.212 13.1983 58.0782 13.1147 58.0559 12.7747C58.0336 12.39 57.9946 11.5259 57.989 11.1245C57.989 10.974 58.0615 10.8848 58.2789 10.8792C58.5186 10.8736 58.5799 10.9461 58.5855 11.0966C58.5911 11.3475 58.5967 11.5426 58.6022 11.7099C59.3716 11.682 60.1855 11.6485 60.9381 11.6207C60.9381 11.5092 60.9381 11.4088 60.9437 11.0799C60.9437 10.9126 61.044 10.8346 61.2503 10.8346C61.4566 10.8346 61.5402 10.9071 61.5402 11.052C61.5402 11.5259 61.5012 12.4234 61.4844 12.9252C61.4789 13.0813 61.3952 13.137 61.2391 13.1482C61.0329 13.1593 60.5757 13.1705 60.0851 13.176ZM61.1778 15.707C60.4419 15.7628 59.3493 15.7962 58.658 15.8018C58.4796 15.8018 58.3737 15.6624 58.3569 15.4785C58.3291 15.1384 58.3179 14.8987 58.3179 14.6924C58.3179 14.5252 58.3792 14.475 58.5967 14.4638C58.8141 14.4527 58.9144 14.5029 58.92 14.6701C58.9256 14.9154 58.9256 15.0325 58.9312 15.2387C58.9312 15.2778 58.9479 15.3056 58.9869 15.3056C59.5555 15.2945 60.6092 15.2443 61.1722 15.2443C61.3228 15.2443 61.3841 15.3056 61.3841 15.4785C61.3841 15.6346 61.2782 15.7015 61.1778 15.707ZM60.9325 12.128C60.1799 12.1558 59.3716 12.1893 58.6245 12.2172C58.6301 12.3621 58.6357 12.5126 58.6413 12.7022C58.8475 12.7022 60.6092 12.6687 60.821 12.6632C60.8768 12.6632 60.927 12.6353 60.927 12.5572C60.927 12.3565 60.927 12.2283 60.9325 12.128Z" fill="#00AB15"/>
    <path d="M49.2696 26.6644C48.7741 27.1599 48.0905 27.4609 47.3379 27.4609C46.579 27.4609 45.8954 27.1599 45.3999 26.6644C44.9045 26.169 44.6034 25.4853 44.6034 24.7265C44.6034 23.9676 44.9107 23.284 45.4062 22.7885C45.9017 22.293 46.5853 21.992 47.3379 21.992C48.0842 21.992 48.7679 22.293 49.2633 22.7885C49.7588 23.284 50.0724 23.9676 50.0724 24.7265C50.0724 25.4853 49.7651 26.169 49.2696 26.6644ZM49.0689 26.4575C49.5016 26.0122 49.7839 25.4038 49.7839 24.7265C49.7839 24.0491 49.5016 23.4282 49.0689 22.9955C48.6236 22.5502 48.0152 22.2805 47.3379 22.2805C46.6606 22.2805 46.0397 22.5502 45.6069 22.9955C45.1616 23.4282 44.8919 24.0491 44.8919 24.7265C44.8919 25.4038 45.1616 26.0122 45.6069 26.4575C46.0522 26.9028 46.6606 27.1724 47.3379 27.1724C48.0152 27.1724 48.6236 26.9028 49.0689 26.4575ZM48.2159 26.4198H46.3344C46.3282 26.3383 46.3344 26.169 46.416 25.9244C46.4912 25.6735 46.648 25.3599 46.924 24.9773C47.225 24.5697 47.3191 24.2498 47.3191 24.1056C47.3191 24.0052 47.3128 23.8547 47.2626 23.8547C47.2313 23.8547 47.1874 23.9488 47.1874 24.231V24.3063C47.1874 24.3313 47.1874 24.3564 47.1937 24.3815H46.2968L46.2905 24.3753V24.3251C46.2905 24.2812 46.2968 24.2185 46.2968 24.1244C46.2968 23.9049 46.3282 23.6101 46.4599 23.3655C46.5916 23.1209 46.8299 22.9328 47.2501 22.9328C47.7079 22.9328 47.9525 23.1272 48.078 23.3467C48.2034 23.5725 48.2159 23.8108 48.2159 23.9111C48.2159 24.162 48.1344 24.3941 48.0529 24.5885C47.9588 24.7892 47.8522 24.9523 47.7832 25.0777C47.7581 25.109 47.7142 25.1843 47.6703 25.2658L47.6076 25.3913C47.5888 25.4352 47.5762 25.4665 47.57 25.4979H48.2159V26.4198ZM55.4412 23.0206C55.4412 23.7983 54.6949 24.2185 53.798 24.2185C52.7883 24.2185 52.1674 23.8422 52.1674 23.0268C52.1674 22.2554 52.9012 21.7725 53.9172 21.7725C54.8517 21.7725 55.4412 22.268 55.4412 23.0206ZM55.874 25.9306C55.5416 25.9683 54.9959 26.0122 54.8454 26.0184C54.6071 26.0247 54.513 25.9745 54.4816 25.7174C54.4503 25.4101 54.5569 25.3411 54.7576 25.316C54.9269 25.2972 55.6231 25.247 55.8614 25.2219C55.8489 24.3376 55.8426 23.077 55.8552 22.4436C55.8552 22.2742 55.9179 22.1801 56.0496 22.13C56.2503 22.0547 56.4823 22.061 56.6705 22.1362C56.8022 22.1864 56.8398 22.2742 56.8398 22.4373C56.8524 23.2213 56.8461 25.2094 56.8022 25.8805C56.7896 26.0623 56.7081 26.1627 56.545 26.2254C56.451 26.263 56.1938 26.2819 56.0747 26.2254C55.9743 26.1815 55.8802 26.0812 55.874 25.9306ZM54.143 25.1906C54.1367 25.3536 54.1242 25.5167 54.1179 25.6547C54.1053 25.8366 54.0238 25.9369 53.8607 25.9996C53.7667 26.0373 53.4719 26.0561 53.3527 25.9996C53.2461 25.9495 53.1646 25.8428 53.152 25.6798C53.1458 25.5732 53.1458 25.4164 53.1458 25.2596C52.8447 25.2721 52.55 25.2847 52.274 25.2847C52.0482 25.2847 51.8977 25.2094 51.8977 24.9083C51.8977 24.6324 52.0419 24.507 52.2615 24.4944C53.3339 24.4192 54.5444 24.3753 55.4663 24.3502C55.6419 24.3439 55.7611 24.4568 55.7611 24.67C55.7611 24.9711 55.5855 25.015 55.4036 25.0401C55.021 25.0965 54.5883 25.1467 54.143 25.1906ZM54.1367 26.5327L54.143 26.7334C54.143 26.8087 54.1681 26.8087 54.237 26.8087C54.7513 26.8087 56.0809 26.7836 56.5952 26.7773C56.7457 26.7773 56.8335 26.8526 56.8461 27.0784C56.8649 27.3606 56.7646 27.486 56.6328 27.4986C56.037 27.5613 54.4503 27.6052 53.5722 27.624C53.2837 27.6303 53.1269 27.4798 53.083 27.1975C53.0517 26.9968 53.0391 26.7899 53.0266 26.6143C53.0141 26.4073 53.0956 26.2944 53.2336 26.2568C53.4154 26.2066 53.7102 26.2003 53.8607 26.2129C54.074 26.2317 54.1304 26.3195 54.1367 26.5327ZM54.4628 22.9829C54.4628 22.6882 54.2245 22.4624 53.8168 22.4749C53.359 22.4875 53.1458 22.7195 53.1458 23.008C53.1458 23.2902 53.3966 23.4972 53.8043 23.4909C54.237 23.4847 54.4628 23.2714 54.4628 22.9829ZM62.0164 26.7961C61.9224 26.8275 61.7907 26.8212 61.6715 26.7773C61.5649 26.7397 61.4708 26.6393 61.4708 26.4763C61.4583 25.0212 61.4645 24.1181 61.5022 22.6004C61.5084 22.431 61.5649 22.3244 61.6966 22.268C61.8973 22.1801 62.1293 22.1864 62.3175 22.2742C62.4492 22.3369 62.4868 22.431 62.4868 22.5941C62.4994 23.9801 62.4492 25.0651 62.3363 26.4512C62.3238 26.6331 62.1607 26.746 62.0164 26.7961ZM61.0067 26.5704C60.0973 26.7021 58.8555 26.7961 57.8646 26.8338C57.6388 26.8338 57.4882 26.7083 57.4882 26.4073C57.4882 26.1313 57.62 25.9871 57.8395 25.9683C58.9119 25.8867 60.1412 25.8366 61.0631 25.7927C61.2387 25.7864 61.3516 25.9369 61.3579 26.1502C61.3579 26.4512 61.1886 26.539 61.0067 26.5704ZM61.0882 23.8296C61.0882 24.7265 60.3795 25.3975 59.3447 25.3975C58.1844 25.3975 57.6011 24.7704 57.6011 23.8296C57.6011 22.9578 58.2534 22.2554 59.3447 22.2052C60.4987 22.1488 61.0882 22.9139 61.0882 23.8296ZM60.0973 23.7983C60.0973 23.3279 59.7649 23.0331 59.3447 23.0582C58.8931 23.0833 58.5983 23.3969 58.5983 23.8233C58.5983 24.2686 58.9182 24.5509 59.3196 24.5509C59.7712 24.5509 60.0973 24.2435 60.0973 23.7983ZM67.3507 25.2847V25.5355C68.0281 25.6484 68.4107 26.0812 68.4357 26.6519C68.4734 27.3104 67.9591 27.9501 66.8741 27.9878C65.8142 28.0254 65.2811 27.4547 65.2811 26.8087C65.2811 26.3069 65.6197 25.7864 66.3284 25.592V25.316C65.7577 25.3348 65.1933 25.3474 64.7229 25.3536C64.541 25.3536 64.5222 25.1341 64.5222 24.9836C64.5222 24.8143 64.541 24.6324 64.7292 24.6261C66.0525 24.5759 67.7584 24.5195 68.9814 24.5195C69.1633 24.5195 69.1946 24.6763 69.1946 24.8456C69.1946 25.015 69.1444 25.1968 68.9877 25.2031C68.511 25.2345 67.9403 25.2658 67.3507 25.2847ZM68.5674 24.3815C68.0532 24.2247 67.2817 23.9362 66.7361 23.7104C66.1905 24.0554 65.6135 24.3376 65.1556 24.5446C64.9988 24.6136 64.817 24.5885 64.6664 24.4003C64.5285 24.2122 64.5535 24.0617 64.679 23.9739C65.0114 23.7355 65.6386 23.4157 66.0901 23.1084C66.0838 23.0582 66.0838 22.9829 66.0776 22.9139C65.5947 22.9328 65.1556 22.939 64.8671 22.939C64.6853 22.939 64.5661 22.8763 64.5598 22.5627C64.5535 22.2805 64.6413 22.1049 64.8483 22.0923C65.7201 22.0422 67.702 22.0045 68.6992 21.9732C68.8936 21.9669 68.9877 22.1049 68.9939 22.3683C69.0065 22.6756 68.8936 22.7446 68.7054 22.7634C68.4734 22.7885 67.8838 22.8261 67.219 22.8575C67.2128 22.9014 67.2128 22.9453 67.2128 22.9829C67.7459 23.2338 68.5361 23.5098 68.9688 23.7104C69.1131 23.7794 69.157 23.9174 69.0441 24.1495C68.9249 24.4066 68.7744 24.4505 68.5674 24.3815ZM67.4762 26.6832C67.4574 26.3697 67.219 26.2003 66.8553 26.2129C66.4664 26.2254 66.2281 26.4763 66.2406 26.7711C66.2532 27.0721 66.479 27.2979 66.8615 27.2853C67.2817 27.2728 67.495 27.0345 67.4762 26.6832ZM74.1723 25.1279C74.0782 25.1655 73.7583 25.1843 73.6392 25.1279C73.5325 25.0777 73.4385 24.9711 73.4385 24.808C73.4259 24.1056 73.4071 23.2714 73.4197 22.4436C73.4197 22.2742 73.4824 22.1801 73.6141 22.13C73.8148 22.0547 74.1095 22.061 74.2977 22.1362C74.4294 22.1864 74.467 22.2742 74.467 22.4373C74.4796 23.2213 74.4733 24.1118 74.4294 24.7829C74.4169 24.9648 74.3353 25.0651 74.1723 25.1279ZM74.2601 27.3167C74.235 27.4923 74.1472 27.5613 74.0029 27.5738C73.3632 27.624 71.9144 27.6554 71.2308 27.6554C70.9235 27.6554 70.8043 27.5487 70.773 27.254C70.7479 26.9717 70.704 26.0937 70.6977 25.7049C70.6977 25.5167 70.8043 25.4164 70.9674 25.4101C71.4252 25.385 73.6643 25.3035 74.1597 25.3035C74.2789 25.3035 74.3291 25.3787 74.3291 25.4916C74.3416 25.9495 74.2914 26.9843 74.2601 27.3167ZM73.3632 26.7773V26.7711C73.3695 26.5766 73.3632 26.3258 73.3569 26.0812C72.9932 26.0937 72.0336 26.1313 71.651 26.1564C71.6698 26.4324 71.6824 26.6456 71.7012 26.909C72.0399 26.909 72.9054 26.8965 73.244 26.8839C73.3319 26.8777 73.3632 26.8589 73.3632 26.7773ZM71.2183 24.3125C70.8671 24.6888 70.5723 24.9962 70.2211 25.2721C70.1333 25.3411 70.0643 25.3662 69.9514 25.3536C69.7131 25.3286 69.4622 25.1655 69.4308 24.9272C69.4183 24.8331 69.4434 24.739 69.5061 24.6638C69.7758 24.3439 70.1834 23.8986 70.5598 23.4972C70.5347 23.1397 70.4845 22.707 70.4657 22.3808C70.4469 22.1049 70.6476 21.9418 71.0615 21.9105C71.5193 21.8791 71.7137 22.0171 71.7137 22.2554C71.7137 22.707 71.7075 23.0833 71.6949 23.4219C72.0712 23.6477 72.5353 23.9676 72.9179 24.231C72.9744 24.2749 73.0057 24.3376 73.0057 24.438C72.9995 24.6449 72.8677 24.9021 72.6608 24.9899C72.5855 25.0212 72.504 25.015 72.435 24.9836C72.1026 24.8456 71.5883 24.5446 71.2183 24.3125ZM77.2447 23.2463C76.6426 23.2463 75.959 23.2463 75.3694 23.2275C75.2252 23.2213 75.0621 23.1084 75.0684 22.776C75.0747 22.5 75.1499 22.3746 75.3945 22.362C76.2224 22.3244 77.2823 22.2993 78.06 22.2993C78.1854 22.2993 78.2732 22.3934 78.2732 22.5815C78.2732 23.585 78.2356 24.2498 78.1478 25.1153C78.1164 25.4101 78.0349 25.5543 77.6586 25.5543C77.3074 25.5543 77.2635 25.4164 77.2509 25.1153C77.2321 24.532 77.2321 23.8171 77.2447 23.2463ZM79.5715 24.7641C79.5464 25.3035 79.5088 25.8491 79.4586 26.4512C79.4461 26.6331 79.283 26.746 79.1387 26.7961C79.0447 26.8275 78.913 26.8212 78.7938 26.7773C78.6872 26.7397 78.5931 26.6393 78.5931 26.4763C78.5806 25.0212 78.5868 24.1181 78.6245 22.6004C78.6307 22.431 78.6872 22.3244 78.8189 22.268C79.0196 22.1801 79.2516 22.1864 79.4398 22.2742C79.5715 22.3369 79.6091 22.431 79.6091 22.5941C79.6091 23.0456 79.6091 23.4659 79.6028 23.8735C79.7032 23.8735 79.8035 23.8735 79.8788 23.8798C80.1171 23.9049 80.2049 24.0428 80.2049 24.3C80.2049 24.6073 80.0858 24.7077 79.8851 24.739C79.8035 24.7516 79.6907 24.7641 79.5715 24.7641ZM78.129 26.5704C77.2196 26.7021 76.3541 26.7961 75.3632 26.8338C75.1374 26.8338 74.9869 26.7083 74.9869 26.4073C74.9869 26.1313 75.1186 25.9871 75.3381 25.9683C75.5011 25.9557 75.6517 25.9432 75.8085 25.9369C75.7834 25.4665 75.7645 24.9648 75.7583 24.5822C75.752 24.4129 75.8022 24.3 75.9339 24.2373C76.1283 24.1307 76.3729 24.1181 76.5611 24.1934C76.699 24.2435 76.7429 24.3376 76.7555 24.5007C76.7806 24.9209 76.7931 25.3975 76.7994 25.8679C77.2698 25.8366 77.7151 25.8177 78.1854 25.7927C78.361 25.7864 78.4739 25.9369 78.4802 26.1502C78.4802 26.4512 78.3109 26.539 78.129 26.5704ZM84.1937 22.939V22.3369C84.1937 22.1174 84.3631 21.9857 84.7206 21.9857C85.0781 21.9857 85.2035 22.0861 85.2098 22.3056C85.2349 23.0958 85.2223 24.3063 85.1659 25.1028C85.1533 25.2784 85.053 25.3286 84.8711 25.3474C84.2188 25.4038 83.2781 25.4352 82.5819 25.4226C82.3373 25.4164 82.1178 25.2282 82.099 24.9585C82.0425 24.2122 82.0112 23.353 81.9798 22.4059C81.9736 22.1551 82.0927 22.0234 82.5004 22.0045C82.8265 21.992 83.0209 22.0735 83.0335 22.3307C83.0398 22.4937 83.046 22.7446 83.0586 23.0331L84.1937 22.939ZM86.6648 24.2185C86.6585 24.6951 86.646 25.1404 86.6272 25.4226C86.6146 25.6045 86.5331 25.7049 86.37 25.7676C86.276 25.8052 85.9561 25.824 85.8369 25.7676C85.7303 25.7174 85.6362 25.6108 85.6362 25.4477C85.6237 24.7453 85.6049 23.2714 85.6174 22.4436C85.6174 22.2742 85.6801 22.1801 85.8119 22.13C86.0125 22.0547 86.3073 22.061 86.4955 22.1362C86.6272 22.1864 86.6648 22.2742 86.6648 22.4373C86.6648 22.6756 86.6711 22.9955 86.6711 23.3279C86.784 23.3279 86.8969 23.3279 86.9721 23.3341C87.2104 23.3592 87.2983 23.4972 87.2983 23.7544C87.2983 24.0617 87.1791 24.162 86.9784 24.1934C86.9031 24.2059 86.784 24.2185 86.6648 24.2185ZM86.4578 27.4986C85.862 27.5613 84.4697 27.6052 83.5917 27.624C83.3032 27.6303 83.1464 27.4798 83.1025 27.1975C83.0586 26.9341 83.046 26.5014 83.0335 26.1062C83.0272 25.8993 83.1025 25.7864 83.2404 25.7488C83.4223 25.6986 83.7171 25.6923 83.8676 25.7049C84.0809 25.7237 84.1373 25.8115 84.1436 26.0247C84.1498 26.263 84.1561 26.4198 84.1624 26.6707C84.1624 26.746 84.1875 26.7836 84.2565 26.7836C84.7707 26.7836 85.9059 26.7585 86.4202 26.7522C86.5707 26.7522 86.6585 26.8526 86.6711 27.0784C86.6899 27.3606 86.5895 27.486 86.4578 27.4986ZM84.2063 24.4254L84.2 23.8672L83.0774 23.93C83.0837 24.1934 83.0899 24.4317 83.0962 24.5759C83.4537 24.5697 83.7234 24.5571 84.0871 24.5446C84.1498 24.5446 84.2063 24.5132 84.2063 24.4254ZM90.3205 26.1125C89.963 25.9306 89.5365 25.6233 89.179 25.3474C88.8341 25.7488 88.4452 26.0937 88.094 26.3571C88.0062 26.4261 87.8933 26.4512 87.7804 26.4324C87.5296 26.3885 87.3665 26.2191 87.3226 26.0059C87.3038 25.9118 87.3289 25.8303 87.3916 25.7488C87.6425 25.4352 88.1567 24.9711 88.5519 24.5007C88.5205 24.0868 88.4954 23.6728 88.4766 23.2463C88.1442 23.2589 87.8243 23.2652 87.5609 23.2652C87.3728 23.2652 87.2536 23.1585 87.2473 22.845C87.2411 22.5627 87.3289 22.3871 87.5421 22.3746C88.439 22.3244 89.5804 22.2868 90.609 22.2554C90.8097 22.2491 90.9038 22.3871 90.9163 22.6505C90.9288 22.9578 90.8097 23.0707 90.6153 23.0895C90.4083 23.1146 90.0571 23.146 89.6431 23.1711C89.6369 23.6289 89.6306 24.1746 89.6243 24.4129C90.0006 24.6951 90.5525 25.109 90.8661 25.385C90.9163 25.4289 90.9414 25.4728 90.9351 25.5543C90.9226 25.8115 90.7344 26.0686 90.4898 26.1313C90.4397 26.1439 90.3832 26.1376 90.3205 26.1125ZM91.8822 27.047C91.7881 27.0784 91.5937 27.0721 91.4745 27.0282C91.3679 26.9906 91.2738 26.8902 91.2738 26.7271C91.2613 25.2721 91.2675 23.9927 91.3052 22.4749C91.3114 22.3056 91.3679 22.199 91.4996 22.1425C91.7003 22.0547 91.995 22.061 92.1832 22.1488C92.3149 22.2115 92.3525 22.3056 92.3525 22.4686C92.3651 23.8547 92.3086 25.316 92.1707 26.7021C92.1518 26.8839 92.0264 26.9968 91.8822 27.047ZM97.2751 25.4289C96.0709 25.5104 94.2521 25.5543 93.0103 25.5794C92.8284 25.5794 92.8096 25.3725 92.8096 25.2219C92.8096 25.0526 92.8284 24.8833 93.0166 24.877C94.3399 24.8268 96.0458 24.7704 97.2688 24.7704C97.4507 24.7704 97.4821 24.9146 97.4821 25.084C97.4821 25.2533 97.4319 25.4226 97.2751 25.4289ZM96.6981 27.5989C96.0647 27.6554 94.4466 27.6805 93.7755 27.6742C93.4556 27.6742 93.3553 27.5299 93.3302 27.2101C93.3051 26.8651 93.28 26.6143 93.2737 26.1627C93.2737 25.9745 93.3804 25.8742 93.5372 25.8679C93.9824 25.8428 96.2967 25.7676 96.7796 25.7676C96.9113 25.7676 96.9803 25.8428 96.9866 25.9745C96.9991 26.2944 96.9929 26.9028 96.9678 27.2853C96.9552 27.5174 96.8737 27.5801 96.6981 27.5989ZM96.0082 26.8714V26.8651C96.0082 26.7711 96.0019 26.6268 95.9957 26.4826C95.6445 26.4888 94.6786 26.5265 94.3086 26.539C94.3148 26.6895 94.3337 26.9028 94.3399 27.0031C94.6661 27.0031 95.5629 26.9843 95.889 26.9717C95.9769 26.9655 96.0082 26.9529 96.0082 26.8714ZM96.1148 22.9767L96.1023 22.7697C95.3058 22.7822 93.9511 22.801 93.3302 22.801C93.1295 22.801 93.0229 22.7571 93.0229 22.3934C93.0229 22.0484 93.142 21.9983 93.3051 21.9857C94.2647 21.9481 96.1399 21.923 97.0368 21.9167C97.1183 21.9167 97.1748 21.992 97.1748 22.0735C97.1748 22.6192 97.1685 22.7321 97.1685 23.2714C97.1685 23.4721 97.0869 23.585 96.8988 23.5976C96.096 23.6477 94.6786 23.6916 94.0389 23.7104V23.8045C94.0389 23.8484 94.064 23.8861 94.1204 23.8861C94.6472 23.8861 96.3657 23.8735 96.8863 23.8798C97.0744 23.8798 97.1497 23.9111 97.1622 24.1683C97.1748 24.4505 97.0744 24.4693 96.9302 24.4819C96.2465 24.5383 94.2521 24.5948 93.5873 24.6073C93.2737 24.6136 93.1044 24.4568 93.0793 24.1683C93.0542 23.8547 93.0417 23.7042 93.0417 23.3216C93.0417 23.2024 93.1044 23.1146 93.2298 23.1084C93.8821 23.0833 95.3309 23.0206 96.1148 22.9767ZM98.2326 28.0066C98.1636 28.0379 98.0632 28.0442 97.9566 27.969C97.85 27.8937 97.8625 27.7871 97.9441 27.7244C98.0758 27.6177 98.2012 27.4296 98.2577 27.2853C98.289 27.1975 98.2702 27.1536 98.22 27.1411C97.9692 27.0784 97.7998 26.8589 97.7998 26.5766C97.7998 26.2317 98.0381 25.9934 98.3831 25.9934C98.7218 25.9934 98.9475 26.238 98.9664 26.5766C99.0103 27.3355 98.5775 27.8372 98.2326 28.0066ZM103.844 26.1125C103.487 25.9306 103.06 25.6233 102.703 25.3474C102.358 25.7488 101.969 26.0937 101.618 26.3571C101.53 26.4261 101.417 26.4512 101.304 26.4324C101.053 26.3885 100.89 26.2191 100.846 26.0059C100.827 25.9118 100.853 25.8303 100.915 25.7488C101.166 25.4352 101.68 24.9711 102.076 24.5007C102.044 24.0868 102.019 23.6728 102 23.2463C101.668 23.2589 101.348 23.2652 101.085 23.2652C100.896 23.2652 100.777 23.1585 100.771 22.845C100.765 22.5627 100.853 22.3871 101.066 22.3746C101.963 22.3244 103.104 22.2868 104.133 22.2554C104.333 22.2491 104.427 22.3871 104.44 22.6505C104.453 22.9578 104.333 23.0707 104.139 23.0895C103.932 23.1146 103.581 23.146 103.167 23.1711C103.161 23.6289 103.154 24.1746 103.148 24.4129C103.524 24.6951 104.076 25.109 104.39 25.385C104.44 25.4289 104.465 25.4728 104.459 25.5543C104.446 25.8115 104.258 26.0686 104.013 26.1313C103.963 26.1439 103.907 26.1376 103.844 26.1125ZM105.406 27.047C105.312 27.0784 105.117 27.0721 104.998 27.0282C104.892 26.9906 104.797 26.8902 104.797 26.7271C104.785 25.2721 104.791 23.9927 104.829 22.4749C104.835 22.3056 104.892 22.199 105.023 22.1425C105.224 22.0547 105.519 22.061 105.707 22.1488C105.839 22.2115 105.876 22.3056 105.876 22.4686C105.889 23.8547 105.832 25.316 105.694 26.7021C105.675 26.8839 105.55 26.9968 105.406 27.047ZM110.799 25.4289C109.595 25.5104 107.776 25.5543 106.534 25.5794C106.352 25.5794 106.333 25.3725 106.333 25.2219C106.333 25.0526 106.352 24.8833 106.54 24.877C107.864 24.8268 109.569 24.7704 110.792 24.7704C110.974 24.7704 111.006 24.9146 111.006 25.084C111.006 25.2533 110.956 25.4226 110.799 25.4289ZM110.222 27.5989C109.588 27.6554 107.97 27.6805 107.299 27.6742C106.979 27.6742 106.879 27.5299 106.854 27.2101C106.829 26.8651 106.804 26.6143 106.797 26.1627C106.797 25.9745 106.904 25.8742 107.061 25.8679C107.506 25.8428 109.82 25.7676 110.303 25.7676C110.435 25.7676 110.504 25.8428 110.51 25.9745C110.523 26.2944 110.517 26.9028 110.491 27.2853C110.479 27.5174 110.397 27.5801 110.222 27.5989ZM109.532 26.8714V26.8651C109.532 26.7711 109.526 26.6268 109.519 26.4826C109.168 26.4888 108.202 26.5265 107.832 26.539C107.839 26.6895 107.857 26.9028 107.864 27.0031C108.19 27.0031 109.087 26.9843 109.413 26.9717C109.501 26.9655 109.532 26.9529 109.532 26.8714ZM109.638 22.9767L109.626 22.7697C108.829 22.7822 107.475 22.801 106.854 22.801C106.653 22.801 106.547 22.7571 106.547 22.3934C106.547 22.0484 106.666 21.9983 106.829 21.9857C107.788 21.9481 109.664 21.923 110.56 21.9167C110.642 21.9167 110.698 21.992 110.698 22.0735C110.698 22.6192 110.692 22.7321 110.692 23.2714C110.692 23.4721 110.611 23.585 110.422 23.5976C109.62 23.6477 108.202 23.6916 107.563 23.7104V23.8045C107.563 23.8484 107.588 23.8861 107.644 23.8861C108.171 23.8861 109.889 23.8735 110.41 23.8798C110.598 23.8798 110.673 23.9111 110.686 24.1683C110.698 24.4505 110.598 24.4693 110.454 24.4819C109.77 24.5383 107.776 24.5948 107.111 24.6073C106.797 24.6136 106.628 24.4568 106.603 24.1683C106.578 23.8547 106.565 23.7042 106.565 23.3216C106.565 23.2024 106.628 23.1146 106.753 23.1084C107.406 23.0833 108.855 23.0206 109.638 22.9767Z" fill="#4A4E53"/>
    <mask id="path-10-outside-1_166_87247" maskUnits="userSpaceOnUse" x="44.5156" y="32.0361" width="17" height="5" fill="black">
        <rect fill="white" x="44.5156" y="32.0361" width="17" height="5"/>
        <path d="M45.3644 35.9874C45.3693 36.0556 45.3888 36.0849 45.4424 36.0898C45.5059 36.0995 45.7302 36.0849 45.8132 36.0849C45.9742 36.08 46.0376 36.0752 46.0424 36.2898C46.0473 36.4605 46.0522 36.5093 45.8668 36.5337C45.662 36.5581 45.379 36.5678 45.179 36.5581C45.0083 36.5483 44.9254 36.4849 44.9205 36.3386C44.8864 35.5288 44.8717 33.5435 44.9205 32.6752C44.9303 32.5435 45.0181 32.4606 45.179 32.4557C45.4083 32.4508 45.7693 32.4606 45.9156 32.4654C46.1059 32.4752 46.1254 32.5142 46.1156 32.7093C46.1059 32.924 46.0424 32.9142 45.8863 32.9142C45.8181 32.9142 45.5303 32.9142 45.4571 32.924C45.4083 32.9337 45.379 32.963 45.379 33.0264C45.379 33.5483 45.3546 35.3483 45.3644 35.9874ZM49.941 34.5971C49.9215 34.7825 49.8288 34.8264 49.6922 34.8215C49.5508 34.8166 49.4678 34.7776 49.463 34.5825C49.4532 34.28 49.4678 33.5337 49.4776 32.8069C49.4776 32.6313 49.5459 32.563 49.741 32.563C49.9166 32.563 49.9995 32.6459 49.9947 32.8215C49.9849 33.4459 49.98 34.2459 49.941 34.5971ZM49.6873 36.7386C49.3703 36.763 47.9654 36.7922 47.6678 36.7922C47.4825 36.7922 47.3898 36.6947 47.3752 36.4995C47.3557 36.241 47.3215 35.5922 47.3166 35.2898C47.3166 35.1435 47.38 35.0752 47.5069 35.0703C47.863 35.0557 49.38 35.002 49.7654 35.0069C49.863 35.0069 49.8971 35.0654 49.8971 35.1678C49.8922 35.641 49.8825 36.1434 49.863 36.5142C49.8532 36.6605 49.8142 36.7288 49.6873 36.7386ZM49.3898 35.4264L47.8239 35.4898C47.8337 35.7386 47.8483 36.1971 47.8581 36.3727L49.3264 36.3386C49.3654 36.3386 49.3898 36.3191 49.3898 36.2703C49.3947 36.08 49.3947 35.6508 49.3898 35.4264ZM48.2288 32.924C47.7459 32.9435 47.1166 32.9532 46.6093 32.9532C46.4776 32.9532 46.424 32.8898 46.424 32.7386C46.424 32.602 46.5166 32.5435 46.6044 32.5386C47.2483 32.5045 47.9849 32.4849 48.5898 32.4849C48.7166 32.4849 48.7556 32.5386 48.7556 32.6703C48.7556 33.0654 48.7361 34.2361 48.6922 34.6118C48.6727 34.7581 48.5752 34.8215 48.4337 34.8118C48.2922 34.802 48.2288 34.7386 48.2239 34.6069C48.2142 34.3776 48.2288 33.2118 48.2288 32.924ZM54.2841 35.1825C54.2646 35.3678 54.172 35.4117 54.0354 35.4069C53.8939 35.402 53.811 35.363 53.8061 35.1678C53.7963 34.8654 53.811 33.5337 53.8207 32.8069C53.8207 32.6313 53.889 32.563 54.0841 32.563C54.2598 32.563 54.3427 32.6459 54.3378 32.8215C54.328 33.4459 54.3232 34.8313 54.2841 35.1825ZM52.9329 34.8898C52.6159 34.9142 51.4403 34.9678 51.1427 34.9678C50.9573 34.9678 50.8451 34.841 50.8354 34.6459C50.8159 34.1922 50.8012 33.2996 50.8061 32.802C50.8061 32.6557 50.8695 32.5874 50.9964 32.5825C51.3525 32.5679 52.5525 32.5386 52.9378 32.5435C53.05 32.5435 53.1037 32.602 53.1037 32.7045C53.1134 33.3288 53.1183 34.0508 53.1085 34.6654C53.1037 34.8313 53.0598 34.88 52.9329 34.8898ZM51.3378 34.5288L52.5525 34.4752C52.5915 34.4752 52.6159 34.4557 52.6159 34.4069C52.6159 34.0849 52.6012 33.3825 52.5866 32.9825L51.3232 33.0215C51.3329 33.4166 51.3281 34.0605 51.3378 34.5288ZM54.1573 36.6849C53.5134 36.7337 52.6354 36.763 52.0305 36.7678C51.8744 36.7678 51.7768 36.6459 51.7671 36.4849C51.7427 36.0898 51.7329 35.8995 51.7329 35.5239C51.7329 35.3776 51.7866 35.3337 51.9768 35.3239C52.1671 35.3142 52.2549 35.3581 52.2598 35.5044C52.2646 35.7191 52.2646 36.0947 52.2695 36.2752C52.2695 36.3093 52.2842 36.3337 52.3183 36.3337C52.8159 36.3239 53.6598 36.28 54.1524 36.28C54.2841 36.28 54.3378 36.3337 54.3378 36.4849C54.3378 36.6215 54.2451 36.68 54.1573 36.6849ZM56.3421 34.841C55.9616 35.241 55.6055 35.5776 55.3665 35.7776C55.2689 35.8605 55.1372 35.8264 55.0543 35.7239C54.9763 35.6264 55.0055 35.5532 55.0787 35.4703C55.3275 35.202 55.8201 34.7435 56.0445 34.4752C56.0348 34.1435 56.0055 33.5337 55.9958 33.1727C55.6153 33.1923 55.2689 33.2069 55.0787 33.2118C54.9616 33.2166 54.8884 33.1532 54.8836 33.002C54.8787 32.8459 54.947 32.7727 55.0445 32.7679C55.5567 32.7484 56.9031 32.6849 57.4006 32.6703C57.5323 32.6654 57.5909 32.7191 57.5957 32.8752C57.6006 33.0264 57.5421 33.0947 57.4055 33.1044C57.225 33.1142 56.9031 33.1337 56.5421 33.1484C56.5567 33.5093 56.5616 34.1093 56.5665 34.4264C56.9323 34.7288 57.2494 34.9435 57.5372 35.1825C57.6299 35.2605 57.6592 35.3483 57.5811 35.4605C57.5031 35.5825 57.425 35.641 57.3177 35.5727C57.0396 35.3922 56.6445 35.0898 56.3421 34.841ZM58.5323 36.1044C58.5177 36.2898 58.4201 36.3532 58.2835 36.3434C58.1421 36.3337 58.0738 36.2508 58.0738 36.041C58.0738 34.9581 58.0933 33.8752 58.1323 32.8069C58.1372 32.6313 58.2104 32.563 58.4055 32.563C58.5811 32.563 58.6591 32.6459 58.6591 32.8215C58.6494 33.8849 58.6055 35.1191 58.5323 36.1044ZM60.4683 36.3386C60.4634 36.4849 60.3805 36.5483 60.2098 36.5581C60.0098 36.5678 59.7269 36.5581 59.522 36.5337C59.3366 36.5093 59.3415 36.4605 59.3464 36.2898C59.3513 36.0752 59.4147 36.08 59.5756 36.0849C59.6586 36.0849 59.883 36.0995 59.9464 36.0898C60 36.0849 60.0195 36.0556 60.0244 35.9874C60.0342 35.3483 60.0098 33.5483 60.0098 33.0264C60.0098 32.963 59.9805 32.9337 59.9317 32.924C59.8586 32.9142 59.5708 32.9142 59.5025 32.9142C59.3464 32.9142 59.283 32.924 59.2732 32.7093C59.2634 32.5142 59.283 32.4752 59.4732 32.4654C59.6195 32.4606 59.9805 32.4508 60.2098 32.4557C60.3708 32.4606 60.4586 32.5435 60.4683 32.6752C60.5171 33.5435 60.5025 35.5288 60.4683 36.3386Z"/>
    </mask>
    <path d="M45.3644 35.9874C45.3693 36.0556 45.3888 36.0849 45.4424 36.0898C45.5059 36.0995 45.7302 36.0849 45.8132 36.0849C45.9742 36.08 46.0376 36.0752 46.0424 36.2898C46.0473 36.4605 46.0522 36.5093 45.8668 36.5337C45.662 36.5581 45.379 36.5678 45.179 36.5581C45.0083 36.5483 44.9254 36.4849 44.9205 36.3386C44.8864 35.5288 44.8717 33.5435 44.9205 32.6752C44.9303 32.5435 45.0181 32.4606 45.179 32.4557C45.4083 32.4508 45.7693 32.4606 45.9156 32.4654C46.1059 32.4752 46.1254 32.5142 46.1156 32.7093C46.1059 32.924 46.0424 32.9142 45.8863 32.9142C45.8181 32.9142 45.5303 32.9142 45.4571 32.924C45.4083 32.9337 45.379 32.963 45.379 33.0264C45.379 33.5483 45.3546 35.3483 45.3644 35.9874ZM49.941 34.5971C49.9215 34.7825 49.8288 34.8264 49.6922 34.8215C49.5508 34.8166 49.4678 34.7776 49.463 34.5825C49.4532 34.28 49.4678 33.5337 49.4776 32.8069C49.4776 32.6313 49.5459 32.563 49.741 32.563C49.9166 32.563 49.9995 32.6459 49.9947 32.8215C49.9849 33.4459 49.98 34.2459 49.941 34.5971ZM49.6873 36.7386C49.3703 36.763 47.9654 36.7922 47.6678 36.7922C47.4825 36.7922 47.3898 36.6947 47.3752 36.4995C47.3557 36.241 47.3215 35.5922 47.3166 35.2898C47.3166 35.1435 47.38 35.0752 47.5069 35.0703C47.863 35.0557 49.38 35.002 49.7654 35.0069C49.863 35.0069 49.8971 35.0654 49.8971 35.1678C49.8922 35.641 49.8825 36.1434 49.863 36.5142C49.8532 36.6605 49.8142 36.7288 49.6873 36.7386ZM49.3898 35.4264L47.8239 35.4898C47.8337 35.7386 47.8483 36.1971 47.8581 36.3727L49.3264 36.3386C49.3654 36.3386 49.3898 36.3191 49.3898 36.2703C49.3947 36.08 49.3947 35.6508 49.3898 35.4264ZM48.2288 32.924C47.7459 32.9435 47.1166 32.9532 46.6093 32.9532C46.4776 32.9532 46.424 32.8898 46.424 32.7386C46.424 32.602 46.5166 32.5435 46.6044 32.5386C47.2483 32.5045 47.9849 32.4849 48.5898 32.4849C48.7166 32.4849 48.7556 32.5386 48.7556 32.6703C48.7556 33.0654 48.7361 34.2361 48.6922 34.6118C48.6727 34.7581 48.5752 34.8215 48.4337 34.8118C48.2922 34.802 48.2288 34.7386 48.2239 34.6069C48.2142 34.3776 48.2288 33.2118 48.2288 32.924ZM54.2841 35.1825C54.2646 35.3678 54.172 35.4117 54.0354 35.4069C53.8939 35.402 53.811 35.363 53.8061 35.1678C53.7963 34.8654 53.811 33.5337 53.8207 32.8069C53.8207 32.6313 53.889 32.563 54.0841 32.563C54.2598 32.563 54.3427 32.6459 54.3378 32.8215C54.328 33.4459 54.3232 34.8313 54.2841 35.1825ZM52.9329 34.8898C52.6159 34.9142 51.4403 34.9678 51.1427 34.9678C50.9573 34.9678 50.8451 34.841 50.8354 34.6459C50.8159 34.1922 50.8012 33.2996 50.8061 32.802C50.8061 32.6557 50.8695 32.5874 50.9964 32.5825C51.3525 32.5679 52.5525 32.5386 52.9378 32.5435C53.05 32.5435 53.1037 32.602 53.1037 32.7045C53.1134 33.3288 53.1183 34.0508 53.1085 34.6654C53.1037 34.8313 53.0598 34.88 52.9329 34.8898ZM51.3378 34.5288L52.5525 34.4752C52.5915 34.4752 52.6159 34.4557 52.6159 34.4069C52.6159 34.0849 52.6012 33.3825 52.5866 32.9825L51.3232 33.0215C51.3329 33.4166 51.3281 34.0605 51.3378 34.5288ZM54.1573 36.6849C53.5134 36.7337 52.6354 36.763 52.0305 36.7678C51.8744 36.7678 51.7768 36.6459 51.7671 36.4849C51.7427 36.0898 51.7329 35.8995 51.7329 35.5239C51.7329 35.3776 51.7866 35.3337 51.9768 35.3239C52.1671 35.3142 52.2549 35.3581 52.2598 35.5044C52.2646 35.7191 52.2646 36.0947 52.2695 36.2752C52.2695 36.3093 52.2842 36.3337 52.3183 36.3337C52.8159 36.3239 53.6598 36.28 54.1524 36.28C54.2841 36.28 54.3378 36.3337 54.3378 36.4849C54.3378 36.6215 54.2451 36.68 54.1573 36.6849ZM56.3421 34.841C55.9616 35.241 55.6055 35.5776 55.3665 35.7776C55.2689 35.8605 55.1372 35.8264 55.0543 35.7239C54.9763 35.6264 55.0055 35.5532 55.0787 35.4703C55.3275 35.202 55.8201 34.7435 56.0445 34.4752C56.0348 34.1435 56.0055 33.5337 55.9958 33.1727C55.6153 33.1923 55.2689 33.2069 55.0787 33.2118C54.9616 33.2166 54.8884 33.1532 54.8836 33.002C54.8787 32.8459 54.947 32.7727 55.0445 32.7679C55.5567 32.7484 56.9031 32.6849 57.4006 32.6703C57.5323 32.6654 57.5909 32.7191 57.5957 32.8752C57.6006 33.0264 57.5421 33.0947 57.4055 33.1044C57.225 33.1142 56.9031 33.1337 56.5421 33.1484C56.5567 33.5093 56.5616 34.1093 56.5665 34.4264C56.9323 34.7288 57.2494 34.9435 57.5372 35.1825C57.6299 35.2605 57.6592 35.3483 57.5811 35.4605C57.5031 35.5825 57.425 35.641 57.3177 35.5727C57.0396 35.3922 56.6445 35.0898 56.3421 34.841ZM58.5323 36.1044C58.5177 36.2898 58.4201 36.3532 58.2835 36.3434C58.1421 36.3337 58.0738 36.2508 58.0738 36.041C58.0738 34.9581 58.0933 33.8752 58.1323 32.8069C58.1372 32.6313 58.2104 32.563 58.4055 32.563C58.5811 32.563 58.6591 32.6459 58.6591 32.8215C58.6494 33.8849 58.6055 35.1191 58.5323 36.1044ZM60.4683 36.3386C60.4634 36.4849 60.3805 36.5483 60.2098 36.5581C60.0098 36.5678 59.7269 36.5581 59.522 36.5337C59.3366 36.5093 59.3415 36.4605 59.3464 36.2898C59.3513 36.0752 59.4147 36.08 59.5756 36.0849C59.6586 36.0849 59.883 36.0995 59.9464 36.0898C60 36.0849 60.0195 36.0556 60.0244 35.9874C60.0342 35.3483 60.0098 33.5483 60.0098 33.0264C60.0098 32.963 59.9805 32.9337 59.9317 32.924C59.8586 32.9142 59.5708 32.9142 59.5025 32.9142C59.3464 32.9142 59.283 32.924 59.2732 32.7093C59.2634 32.5142 59.283 32.4752 59.4732 32.4654C59.6195 32.4606 59.9805 32.4508 60.2098 32.4557C60.3708 32.4606 60.4586 32.5435 60.4683 32.6752C60.5171 33.5435 60.5025 35.5288 60.4683 36.3386Z" fill="#757E85"/>
    <path d="M45.3644 35.9874L45.2616 35.9889L45.262 35.9947L45.3644 35.9874ZM45.4424 36.0898L45.4581 35.9881L45.4517 35.9876L45.4424 36.0898ZM45.8132 36.0849V36.1876L45.8163 36.1875L45.8132 36.0849ZM46.0424 36.2898L45.9398 36.2921L45.9398 36.2927L46.0424 36.2898ZM45.8668 36.5337L45.879 36.6356L45.8802 36.6355L45.8668 36.5337ZM45.179 36.5581L45.1732 36.6606L45.174 36.6606L45.179 36.5581ZM44.9205 36.3386L45.0231 36.3351L45.0231 36.3342L44.9205 36.3386ZM44.9205 32.6752L44.8181 32.6676L44.818 32.6694L44.9205 32.6752ZM45.179 32.4557L45.1769 32.353L45.1759 32.3531L45.179 32.4557ZM45.9156 32.4654L45.9209 32.3629L45.919 32.3628L45.9156 32.4654ZM46.1156 32.7093L46.0131 32.7042L46.0131 32.7047L46.1156 32.7093ZM45.4571 32.924L45.4435 32.822L45.4369 32.8233L45.4571 32.924ZM45.262 35.9947C45.2648 36.0334 45.2723 36.0826 45.3026 36.1235C45.3378 36.171 45.3881 36.1879 45.4332 36.192L45.4517 35.9876C45.4466 35.9871 45.4479 35.9865 45.4524 35.9886C45.4548 35.9898 45.4576 35.9914 45.4605 35.9938C45.4634 35.9962 45.4658 35.9988 45.4676 36.0012C45.4711 36.006 45.4712 36.0084 45.4702 36.0047C45.4692 36.0008 45.4677 35.9933 45.4668 35.98L45.262 35.9947ZM45.4268 36.1913C45.4703 36.1979 45.554 36.1959 45.6239 36.1936C45.7015 36.1911 45.7739 36.1876 45.8132 36.1876V35.9823C45.7695 35.9823 45.6883 35.9861 45.6171 35.9884C45.5382 35.991 45.478 35.9914 45.4581 35.9883L45.4268 36.1913ZM45.8163 36.1875C45.859 36.1862 45.8865 36.1854 45.9083 36.187C45.9296 36.1887 45.9318 36.1921 45.9284 36.1898C45.9226 36.1858 45.9248 36.1828 45.9291 36.1968C45.9341 36.213 45.9387 36.2419 45.9398 36.2921L46.1451 36.2875C46.1438 36.2303 46.1386 36.1793 46.1253 36.1363C46.1113 36.091 46.0867 36.0493 46.0443 36.0203C46.0043 35.993 45.9601 35.9851 45.9241 35.9823C45.8886 35.9796 45.8479 35.9812 45.8101 35.9823L45.8163 36.1875ZM45.9398 36.2927C45.9411 36.3377 45.9421 36.3671 45.9407 36.3903C45.9393 36.4133 45.936 36.4171 45.9373 36.4149C45.9404 36.4095 45.9437 36.4103 45.9336 36.4146C45.9207 36.4199 45.897 36.4262 45.8534 36.4319L45.8802 36.6355C45.9701 36.6236 46.0656 36.6025 46.1147 36.5183C46.1373 36.4795 46.1435 36.4377 46.1456 36.4027C46.1477 36.368 46.1462 36.3272 46.1451 36.2869L45.9398 36.2927ZM45.8547 36.4318C45.6555 36.4555 45.3783 36.465 45.184 36.4555L45.174 36.6606C45.3798 36.6707 45.6684 36.6607 45.879 36.6356L45.8547 36.4318ZM45.1849 36.4556C45.1082 36.4512 45.071 36.4353 45.0531 36.4205C45.0396 36.4093 45.0249 36.3887 45.0231 36.3351L44.8179 36.342C44.821 36.4348 44.8502 36.5191 44.9221 36.5786C44.9896 36.6345 45.0791 36.6552 45.1732 36.6606L45.1849 36.4556ZM45.0231 36.3342C44.989 35.5264 44.9745 33.5447 45.023 32.6809L44.818 32.6694C44.769 33.5423 44.7837 35.5312 44.8179 36.3429L45.0231 36.3342ZM45.0229 32.6828C45.0261 32.6388 45.0411 32.6122 45.0606 32.5952C45.0812 32.5772 45.1181 32.5602 45.1821 32.5583L45.1759 32.3531C45.079 32.356 44.9915 32.3829 44.9255 32.4405C44.8584 32.4992 44.8246 32.5798 44.8181 32.6676L45.0229 32.6828ZM45.1812 32.5583C45.4074 32.5535 45.7658 32.5632 45.9122 32.568L45.919 32.3628C45.7728 32.358 45.4092 32.3481 45.1769 32.353L45.1812 32.5583ZM45.9104 32.568C45.9562 32.5703 45.9836 32.5742 46.0004 32.579C46.0154 32.5832 46.0133 32.5857 46.0095 32.5808C46.0068 32.5773 46.0108 32.5794 46.0132 32.6015C46.0156 32.6239 46.0155 32.6558 46.0131 32.7042L46.2181 32.7145C46.2206 32.6653 46.2217 32.6192 46.2173 32.5791C46.2128 32.5386 46.2018 32.4938 46.1717 32.4549C46.1404 32.4146 46.0984 32.3934 46.0566 32.3815C46.0165 32.3701 45.9701 32.3654 45.9209 32.3629L45.9104 32.568ZM46.0131 32.7047C46.0108 32.7548 46.0056 32.7834 46.0002 32.7994C45.9957 32.8131 45.9935 32.8104 45.9989 32.8068C46.0017 32.805 45.9991 32.8082 45.9778 32.8101C45.9555 32.812 45.9289 32.8115 45.8863 32.8115V33.0169C45.9218 33.0169 45.9617 33.0176 45.9955 33.0146C46.0303 33.0116 46.0734 33.0039 46.1128 32.9777C46.1963 32.922 46.2134 32.8191 46.2182 32.714L46.0131 32.7047ZM45.8863 32.8115C45.8522 32.8115 45.7625 32.8115 45.6721 32.8128C45.5852 32.814 45.4876 32.8163 45.4435 32.8222L45.4706 33.0257C45.4997 33.0218 45.5827 33.0193 45.6749 33.0181C45.7638 33.0169 45.8522 33.0169 45.8863 33.0169V32.8115ZM45.4369 32.8233C45.3974 32.8312 45.3532 32.8497 45.3202 32.8902C45.2873 32.9305 45.2764 32.9794 45.2764 33.0264H45.4817C45.4817 33.0183 45.4827 33.0147 45.4828 33.0142C45.4828 33.0141 45.482 33.0166 45.4793 33.0199C45.4766 33.0232 45.4739 33.0251 45.4725 33.0258C45.4715 33.0263 45.4726 33.0256 45.4772 33.0246L45.4369 32.8233ZM45.2764 33.0264C45.2764 33.5445 45.252 35.3495 45.2618 35.9889L45.467 35.9858C45.4573 35.3472 45.4817 33.5522 45.4817 33.0264H45.2764ZM49.941 34.5971L49.839 34.5858L49.8389 34.5864L49.941 34.5971ZM49.6922 34.8215L49.6959 34.7189L49.6958 34.7189L49.6922 34.8215ZM49.463 34.5825L49.5656 34.5799L49.5656 34.5792L49.463 34.5825ZM49.4776 32.8069L49.5802 32.8083V32.8069H49.4776ZM49.9947 32.8215L49.892 32.8187L49.892 32.8199L49.9947 32.8215ZM49.6873 36.7386L49.6952 36.8409L49.6873 36.7386ZM47.3752 36.4995L47.4775 36.4919L47.4775 36.4918L47.3752 36.4995ZM47.3166 35.2898H47.214L47.214 35.2915L47.3166 35.2898ZM47.5069 35.0703L47.5108 35.1729L47.5111 35.1729L47.5069 35.0703ZM49.7654 35.0069L49.7641 35.1095H49.7654V35.0069ZM49.8971 35.1678L49.9998 35.1689V35.1678H49.8971ZM49.863 36.5142L49.9654 36.521L49.9655 36.5196L49.863 36.5142ZM49.3898 35.4264L49.4924 35.4242L49.4901 35.3196L49.3856 35.3238L49.3898 35.4264ZM47.8239 35.4898L47.8198 35.3872L47.7173 35.3914L47.7214 35.4938L47.8239 35.4898ZM47.8581 36.3727L47.7556 36.3784L47.7611 36.4777L47.8605 36.4753L47.8581 36.3727ZM49.3264 36.3386V36.2359L49.324 36.2359L49.3264 36.3386ZM49.3898 36.2703L49.2871 36.2676V36.2703H49.3898ZM48.2288 32.924H48.3315V32.8171L48.2247 32.8214L48.2288 32.924ZM46.6044 32.5386L46.599 32.4361L46.5987 32.4361L46.6044 32.5386ZM48.6922 34.6118L48.794 34.6253L48.7942 34.6237L48.6922 34.6118ZM48.4337 34.8118L48.4266 34.9142L48.4337 34.8118ZM48.2239 34.6069L48.3265 34.6031L48.3265 34.6025L48.2239 34.6069ZM49.8389 34.5864C49.8307 34.6646 49.8094 34.6903 49.7971 34.6999C49.7829 34.7111 49.7554 34.721 49.6959 34.7189L49.6886 34.9241C49.7656 34.9269 49.8528 34.9173 49.9239 34.8614C49.997 34.8039 50.0318 34.715 50.0431 34.6079L49.8389 34.5864ZM49.6958 34.7189C49.6285 34.7166 49.6049 34.7058 49.5946 34.6967C49.587 34.6899 49.5677 34.6665 49.5656 34.5799L49.3603 34.5851C49.363 34.6936 49.3877 34.7873 49.4581 34.85C49.5259 34.9104 49.6144 34.9215 49.6887 34.9241L49.6958 34.7189ZM49.5656 34.5792C49.5559 34.2799 49.5704 33.5377 49.5802 32.8083L49.3749 32.8055C49.3652 33.5297 49.3505 34.2802 49.3604 34.5858L49.5656 34.5792ZM49.5802 32.8069C49.5802 32.7284 49.5963 32.7035 49.6065 32.6938C49.6185 32.6825 49.6505 32.6656 49.741 32.6656V32.4603C49.6364 32.4603 49.5367 32.4776 49.4658 32.5443C49.3931 32.6128 49.3749 32.7098 49.3749 32.8069H49.5802ZM49.741 32.6656C49.8147 32.6656 49.8473 32.6832 49.8624 32.6985C49.8772 32.7135 49.8941 32.7456 49.892 32.8187L50.0973 32.8244C50.1001 32.7218 50.078 32.6247 50.0086 32.5543C49.9395 32.4842 49.8429 32.4603 49.741 32.4603V32.6656ZM49.892 32.8199C49.8822 33.4489 49.8773 34.241 49.839 34.5858L50.043 34.6085C50.0828 34.2508 50.0876 33.4429 50.0973 32.8231L49.892 32.8199ZM49.6795 36.6362C49.3666 36.6603 47.9651 36.6896 47.6678 36.6896V36.8949C47.9657 36.8949 49.3739 36.8656 49.6952 36.8409L49.6795 36.6362ZM47.6678 36.6896C47.593 36.6896 47.5536 36.6703 47.5305 36.6469C47.506 36.622 47.4839 36.5763 47.4775 36.4919L47.2728 36.5072C47.2811 36.6179 47.3127 36.7185 47.3844 36.7912C47.4577 36.8654 47.5573 36.8949 47.6678 36.8949V36.6896ZM47.4775 36.4918C47.4581 36.2347 47.4241 35.588 47.4193 35.2881L47.214 35.2915C47.2189 35.5964 47.2532 36.2473 47.2728 36.5073L47.4775 36.4918ZM47.4193 35.2898C47.4193 35.2294 47.4326 35.2046 47.4412 35.1949C47.4482 35.187 47.4646 35.1746 47.5108 35.1729L47.5029 34.9677C47.4223 34.9708 47.3436 34.9951 47.2872 35.0591C47.2323 35.1214 47.214 35.2039 47.214 35.2898H47.4193ZM47.5111 35.1729C47.8684 35.1582 49.3821 35.1047 49.7641 35.1095L49.7667 34.9042C49.3779 34.8993 47.8576 34.9531 47.5027 34.9677L47.5111 35.1729ZM49.7654 35.1095C49.7798 35.1095 49.7861 35.1117 49.7875 35.1123C49.7879 35.1125 49.7867 35.1118 49.7859 35.1108C49.7857 35.1106 49.7881 35.1135 49.7904 35.1232C49.7927 35.1331 49.7944 35.1475 49.7944 35.1678H49.9998C49.9998 35.1091 49.9907 35.0413 49.9497 34.9871C49.904 34.9265 49.8357 34.9042 49.7654 34.9042V35.1095ZM49.7944 35.1668C49.7896 35.6398 49.7798 36.1404 49.7604 36.5088L49.9655 36.5196C49.9851 36.1465 49.9949 35.6423 49.9998 35.1689L49.7944 35.1668ZM49.7605 36.5073C49.7559 36.5771 49.7448 36.6053 49.7363 36.6169C49.7331 36.6212 49.7247 36.6327 49.6795 36.6362L49.6952 36.8409C49.7768 36.8346 49.8514 36.8071 49.9018 36.7383C49.947 36.6767 49.9603 36.5976 49.9654 36.521L49.7605 36.5073ZM49.3856 35.3238L47.8198 35.3872L47.8281 35.5924L49.3939 35.529L49.3856 35.3238ZM47.7214 35.4938C47.731 35.7406 47.7458 36.2018 47.7556 36.3784L47.9606 36.367C47.9509 36.1925 47.9364 35.7365 47.9265 35.4858L47.7214 35.4938ZM47.8605 36.4753L49.3288 36.4412L49.324 36.2359L47.8557 36.2701L47.8605 36.4753ZM49.3264 36.4412C49.3617 36.4412 49.4083 36.4323 49.4453 36.3953C49.4823 36.3583 49.4924 36.3105 49.4924 36.2703H49.2871C49.2871 36.2788 49.2851 36.2652 49.3001 36.2501C49.3152 36.2351 49.3301 36.2359 49.3264 36.2359V36.4412ZM49.4924 36.2729C49.4973 36.0808 49.4973 35.6499 49.4924 35.4242L49.2872 35.4286C49.292 35.6517 49.292 36.0793 49.2872 36.2676L49.4924 36.2729ZM48.2247 32.8214C47.7435 32.8408 47.1157 32.8506 46.6093 32.8506V33.0559C47.1176 33.0559 47.7483 33.0461 48.233 33.0265L48.2247 32.8214ZM46.6093 32.8506C46.5583 32.8506 46.5474 32.8384 46.5451 32.8357C46.5395 32.8291 46.5266 32.8062 46.5266 32.7386H46.3213C46.3213 32.8222 46.3353 32.9066 46.3894 32.9695C46.4468 33.0364 46.5286 33.0559 46.6093 33.0559V32.8506ZM46.5266 32.7386C46.5266 32.6954 46.5404 32.6746 46.5518 32.6638C46.5652 32.6511 46.5858 32.6424 46.6101 32.6411L46.5987 32.4361C46.5352 32.4396 46.4656 32.4627 46.4107 32.5146C46.3539 32.5684 46.3213 32.6453 46.3213 32.7386H46.5266ZM46.6099 32.6411C47.252 32.6071 47.9868 32.5876 48.5898 32.5876V32.3823C47.9831 32.3823 47.2447 32.4018 46.599 32.4361L46.6099 32.6411ZM48.5898 32.5876C48.6422 32.5876 48.6459 32.5992 48.6423 32.595C48.6419 32.5945 48.6448 32.5974 48.6477 32.6097C48.6508 32.6225 48.653 32.6417 48.653 32.6703H48.8583C48.8583 32.6001 48.8493 32.521 48.7982 32.4614C48.7434 32.3975 48.6642 32.3823 48.5898 32.3823V32.5876ZM48.653 32.6703C48.653 33.0669 48.6333 34.2313 48.5903 34.5998L48.7942 34.6237C48.8389 34.241 48.8583 33.0639 48.8583 32.6703H48.653ZM48.5905 34.5982C48.5835 34.6503 48.565 34.6749 48.5476 34.6878C48.5287 34.7018 48.4956 34.7131 48.4408 34.7093L48.4266 34.9142C48.5132 34.9201 48.5997 34.9046 48.6697 34.8528C48.7414 34.7998 48.7814 34.7195 48.794 34.6253L48.5905 34.5982ZM48.4408 34.7093C48.3823 34.7053 48.3592 34.6913 48.3495 34.6818C48.3409 34.6733 48.3284 34.6541 48.3265 34.6031L48.1214 34.6107C48.1243 34.6914 48.146 34.7697 48.2057 34.8283C48.2643 34.8859 48.3436 34.9084 48.4266 34.9142L48.4408 34.7093ZM48.3265 34.6025C48.3169 34.376 48.3315 33.2167 48.3315 32.924H48.1262C48.1262 33.2068 48.1115 34.3792 48.1214 34.6112L48.3265 34.6025ZM54.2841 35.1825L54.1821 35.1711L54.182 35.1717L54.2841 35.1825ZM54.0354 35.4069L54.039 35.3043L54.0389 35.3043L54.0354 35.4069ZM53.8061 35.1678L53.9087 35.1653L53.9087 35.1645L53.8061 35.1678ZM53.8207 32.8069L53.9234 32.8083V32.8069H53.8207ZM54.3378 32.8215L54.2352 32.8187L54.2352 32.8199L54.3378 32.8215ZM52.9329 34.8898L52.9251 34.7874L52.9329 34.8898ZM50.8354 34.6459L50.7328 34.6503L50.7329 34.651L50.8354 34.6459ZM50.8061 32.802L50.9088 32.803V32.802H50.8061ZM50.9964 32.5825L51.0003 32.6851L51.0006 32.6851L50.9964 32.5825ZM52.9378 32.5435L52.9365 32.6461H52.9378V32.5435ZM53.1037 32.7045H53.001L53.001 32.7061L53.1037 32.7045ZM53.1085 34.6654L53.2112 34.6684L53.2112 34.667L53.1085 34.6654ZM51.3378 34.5288L51.2352 34.531L51.2374 34.636L51.3424 34.6314L51.3378 34.5288ZM52.5525 34.4752V34.3724L52.5479 34.3726L52.5525 34.4752ZM52.5866 32.9825L52.6892 32.9787L52.6855 32.8767L52.5834 32.8799L52.5866 32.9825ZM51.3232 33.0215L51.32 32.9189L51.218 32.9221L51.2206 33.0241L51.3232 33.0215ZM54.1573 36.6849L54.1516 36.5824L54.1496 36.5825L54.1573 36.6849ZM52.0305 36.7678V36.8705L52.0313 36.8705L52.0305 36.7678ZM51.7671 36.4849L51.8696 36.4787L51.8696 36.4786L51.7671 36.4849ZM51.9768 35.3239L51.9716 35.2214L51.9768 35.3239ZM52.2598 35.5044L52.3624 35.5021L52.3624 35.501L52.2598 35.5044ZM52.2695 36.2752H52.3722L52.3721 36.2724L52.2695 36.2752ZM52.3183 36.3337V36.4364L52.3203 36.4363L52.3183 36.3337ZM54.182 35.1717C54.1738 35.25 54.1525 35.2757 54.1402 35.2853C54.126 35.2964 54.0986 35.3064 54.039 35.3043L54.0317 35.5095C54.1087 35.5122 54.1959 35.5027 54.2671 35.4467C54.3402 35.3893 54.375 35.3003 54.3862 35.1932L54.182 35.1717ZM54.0389 35.3043C53.9717 35.302 53.948 35.2912 53.9378 35.282C53.9302 35.2753 53.9109 35.2519 53.9087 35.1653L53.7035 35.1704C53.7062 35.279 53.7308 35.3726 53.8012 35.4354C53.869 35.4958 53.9576 35.5069 54.0318 35.5095L54.0389 35.3043ZM53.9087 35.1645C53.899 34.8651 53.9136 33.5368 53.9234 32.8083L53.7181 32.8055C53.7084 33.5306 53.6936 34.8657 53.7035 35.1712L53.9087 35.1645ZM53.9234 32.8069C53.9234 32.7284 53.9394 32.7035 53.9496 32.6938C53.9616 32.6825 53.9937 32.6656 54.0841 32.6656V32.4603C53.9795 32.4603 53.8798 32.4776 53.8089 32.5443C53.7362 32.6128 53.7181 32.7098 53.7181 32.8069H53.9234ZM54.0841 32.6656C54.1579 32.6656 54.1905 32.6832 54.2055 32.6985C54.2203 32.7135 54.2372 32.7456 54.2352 32.8187L54.4404 32.8244C54.4433 32.7218 54.4211 32.6247 54.3518 32.5543C54.2827 32.4842 54.186 32.4603 54.0841 32.4603V32.6656ZM54.2352 32.8199C54.2327 32.9763 54.2306 33.1803 54.2281 33.4033C54.2257 33.6265 54.223 33.869 54.2193 34.1028C54.2119 34.5735 54.201 35.0016 54.1821 35.1711L54.3862 35.1938C54.4064 35.0121 54.4173 34.572 54.4246 34.106C54.4283 33.8716 54.431 33.6287 54.4334 33.4056C54.4359 33.1823 54.438 32.9789 54.4404 32.8231L54.2352 32.8199ZM52.9251 34.7874C52.6097 34.8117 51.4369 34.8652 51.1427 34.8652V35.0705C51.4436 35.0705 52.622 35.0167 52.9408 34.9922L52.9251 34.7874ZM51.1427 34.8652C51.0749 34.8652 51.0289 34.8428 50.9982 34.8099C50.9662 34.7757 50.9419 34.7204 50.9379 34.6408L50.7329 34.651C50.7386 34.7665 50.7753 34.8722 50.8482 34.9501C50.9224 35.0295 51.0252 35.0705 51.1427 35.0705V34.8652ZM50.938 34.6415C50.9185 34.1897 50.9039 33.2988 50.9088 32.803L50.7035 32.801C50.6986 33.3003 50.7132 34.1948 50.7328 34.6503L50.938 34.6415ZM50.9088 32.802C50.9088 32.7416 50.9221 32.7168 50.9307 32.7071C50.9377 32.6992 50.9541 32.6869 51.0003 32.6851L50.9924 32.4799C50.9118 32.483 50.8331 32.5073 50.7767 32.5713C50.7218 32.6336 50.7035 32.7161 50.7035 32.802H50.9088ZM51.0006 32.6851C51.356 32.6705 52.5539 32.6413 52.9365 32.6461L52.9391 32.4408C52.551 32.4359 51.3489 32.4653 50.9922 32.4799L51.0006 32.6851ZM52.9378 32.6461C52.977 32.6461 52.9883 32.6562 52.9902 32.6581C52.9922 32.6601 53.001 32.6702 53.001 32.7045H53.2063C53.2063 32.6362 53.1883 32.5658 53.1354 32.513C53.0825 32.4601 53.0109 32.4408 52.9378 32.4408V32.6461ZM53.001 32.7061C53.0108 33.3299 53.0156 34.0507 53.0059 34.6638L53.2112 34.667C53.221 34.0509 53.2161 33.3277 53.2063 32.7028L53.001 32.7061ZM53.0059 34.6624C53.0036 34.7425 52.9912 34.7659 52.9864 34.7718C52.9861 34.7723 52.9797 34.7832 52.9251 34.7874L52.9408 34.9922C53.0131 34.9866 53.092 34.9683 53.1465 34.9004C53.1966 34.8381 53.2086 34.7541 53.2112 34.6684L53.0059 34.6624ZM51.3424 34.6314L52.557 34.5777L52.5479 34.3726L51.3333 34.4263L51.3424 34.6314ZM52.5525 34.5778C52.5878 34.5778 52.6344 34.5689 52.6714 34.5319C52.7084 34.4949 52.7185 34.4471 52.7185 34.4069H52.5132C52.5132 34.4154 52.5111 34.4018 52.5262 34.3867C52.5413 34.3717 52.5561 34.3725 52.5525 34.3725V34.5778ZM52.7185 34.4069C52.7185 34.0834 52.7039 33.3796 52.6892 32.9787L52.484 32.9863C52.4986 33.3853 52.5132 34.0865 52.5132 34.4069H52.7185ZM52.5834 32.8799L51.32 32.9189L51.3264 33.1241L52.5898 33.0851L52.5834 32.8799ZM51.2206 33.0241C51.2254 33.2204 51.2266 33.4789 51.2279 33.7482C51.2291 34.0168 51.2303 34.2958 51.2352 34.531L51.4405 34.5267C51.4356 34.2936 51.4344 34.0164 51.4332 33.7473C51.4319 33.4787 51.4307 33.2178 51.4258 33.019L51.2206 33.0241ZM54.1496 36.5825C53.5085 36.6311 52.6329 36.6603 52.0297 36.6652L52.0313 36.8705C52.6379 36.8656 53.5183 36.8363 54.1651 36.7873L54.1496 36.5825ZM52.0305 36.6652C51.9815 36.6652 51.946 36.647 51.9205 36.6184C51.8936 36.5882 51.8733 36.5408 51.8696 36.4787L51.6646 36.4911C51.6706 36.59 51.704 36.684 51.7673 36.7551C51.832 36.8277 51.9234 36.8705 52.0305 36.8705V36.6652ZM51.8696 36.4786C51.8452 36.0845 51.8356 35.8966 51.8356 35.5239H51.6303C51.6303 35.9025 51.6402 36.0951 51.6646 36.4912L51.8696 36.4786ZM51.8356 35.5239C51.8356 35.4591 51.8484 35.4523 51.8486 35.4521C51.8573 35.445 51.8867 35.4314 51.9821 35.4265L51.9716 35.2214C51.8767 35.2263 51.7842 35.2395 51.7185 35.2933C51.6444 35.3541 51.6303 35.4424 51.6303 35.5239H51.8356ZM51.9821 35.4265C52.0741 35.4218 52.1164 35.4324 52.1347 35.4435C52.1416 35.4477 52.1554 35.4562 52.1572 35.5078L52.3624 35.501C52.3592 35.4063 52.3267 35.3197 52.241 35.2678C52.1665 35.2228 52.0698 35.2164 51.9716 35.2214L51.9821 35.4265ZM52.1571 35.5068C52.1596 35.6132 52.1608 35.7599 52.162 35.9035C52.1632 36.0463 52.1644 36.1865 52.1669 36.2779L52.3721 36.2724C52.3697 36.1833 52.3685 36.0454 52.3673 35.9017C52.3661 35.7587 52.3649 35.6103 52.3624 35.5021L52.1571 35.5068ZM52.1669 36.2752C52.1669 36.3047 52.1729 36.3447 52.1996 36.3796C52.2297 36.4189 52.2741 36.4364 52.3183 36.4364V36.231C52.322 36.231 52.3297 36.2317 52.3389 36.236C52.3486 36.2404 52.3567 36.2471 52.3627 36.2549C52.3735 36.269 52.3722 36.2798 52.3722 36.2752H52.1669ZM52.3203 36.4363C52.8258 36.4264 53.6591 36.3827 54.1524 36.3827V36.1774C53.6604 36.1774 52.8059 36.2215 52.3163 36.2311L52.3203 36.4363ZM54.1524 36.3827C54.2078 36.3827 54.2183 36.3945 54.2191 36.3955C54.2221 36.3986 54.2351 36.4168 54.2351 36.4849H54.4405C54.4405 36.4018 54.4267 36.3175 54.3699 36.2561C54.311 36.1924 54.2288 36.1774 54.1524 36.1774V36.3827ZM54.2351 36.4849C54.2351 36.5281 54.2214 36.5489 54.2099 36.5597C54.1965 36.5724 54.1759 36.5811 54.1516 36.5824L54.163 36.7874C54.2265 36.7839 54.2962 36.7608 54.3511 36.7089C54.4079 36.6551 54.4405 36.5783 54.4405 36.4849H54.2351ZM56.3421 34.841L56.4073 34.7617L56.3335 34.7011L56.2677 34.7703L56.3421 34.841ZM55.3665 35.7776L55.3006 35.6989L55.3 35.6994L55.3665 35.7776ZM55.0543 35.7239L54.9741 35.7881L54.9745 35.7885L55.0543 35.7239ZM55.0787 35.4703L55.0034 35.4005L55.0017 35.4024L55.0787 35.4703ZM56.0445 34.4752L56.1233 34.541L56.1483 34.5111L56.1471 34.4722L56.0445 34.4752ZM55.9958 33.1727L56.0984 33.17L56.0955 33.0648L55.9905 33.0702L55.9958 33.1727ZM55.0787 33.2118L55.0761 33.1091L55.0744 33.1092L55.0787 33.2118ZM54.8836 33.002L54.781 33.0052L54.781 33.0053L54.8836 33.002ZM55.0445 32.7679L55.0406 32.6653L55.0394 32.6653L55.0445 32.7679ZM57.4006 32.6703L57.4036 32.7729L57.4044 32.7729L57.4006 32.6703ZM57.5957 32.8752L57.4931 32.8784L57.4931 32.8785L57.5957 32.8752ZM57.4055 33.1044L57.411 33.207L57.4128 33.2068L57.4055 33.1044ZM56.5421 33.1484L56.5379 33.0458L56.4354 33.0499L56.4395 33.1525L56.5421 33.1484ZM56.5665 34.4264L56.4638 34.428L56.4646 34.4753L56.5011 34.5055L56.5665 34.4264ZM57.5372 35.1825L57.6033 35.104L57.6028 35.1035L57.5372 35.1825ZM57.5811 35.4605L57.4968 35.4019L57.4946 35.4052L57.5811 35.4605ZM57.3177 35.5727L57.2618 35.6588L57.2626 35.6593L57.3177 35.5727ZM58.5323 36.1044L58.6347 36.1125L58.6347 36.112L58.5323 36.1044ZM58.2835 36.3434L58.2909 36.241L58.2906 36.241L58.2835 36.3434ZM58.1323 32.8069L58.2349 32.8106L58.2349 32.8097L58.1323 32.8069ZM58.6591 32.8215L58.7618 32.8225V32.8215H58.6591ZM56.2677 34.7703C55.8889 35.1685 55.5357 35.5021 55.3006 35.6989L55.4324 35.8563C55.6753 35.6531 56.0343 35.3136 56.4165 34.9118L56.2677 34.7703ZM55.3 35.6994C55.2761 35.7197 55.2509 35.7247 55.2248 35.7196C55.1964 35.714 55.1629 35.6949 55.1341 35.6593L54.9745 35.7885C55.0287 35.8554 55.1024 35.9047 55.185 35.921C55.2698 35.9378 55.3593 35.9184 55.433 35.8558L55.3 35.6994ZM55.1345 35.6598C55.1079 35.6266 55.1104 35.6125 55.1111 35.6083C55.1129 35.5971 55.1221 35.5763 55.1557 35.5382L55.0017 35.4024C54.9621 35.4472 54.9201 35.5045 54.9085 35.575C54.8958 35.6525 54.9227 35.7237 54.9741 35.7881L55.1345 35.6598ZM55.154 35.5401C55.2765 35.4079 55.4596 35.2285 55.6432 35.0454C55.8248 34.8645 56.0076 34.6794 56.1233 34.541L55.9658 34.4093C55.8571 34.5392 55.6813 34.7176 55.4983 34.9C55.3173 35.0804 55.1296 35.2644 55.0034 35.4005L55.154 35.5401ZM56.1471 34.4722C56.1422 34.3056 56.1325 34.0694 56.1227 33.8307C56.113 33.5915 56.1032 33.3496 56.0984 33.17L55.8931 33.1755C55.898 33.3568 55.9078 33.6003 55.9176 33.8391C55.9273 34.0785 55.9371 34.3131 55.9419 34.4782L56.1471 34.4722ZM55.9905 33.0702C55.6103 33.0897 55.265 33.1043 55.0761 33.1091L55.0813 33.3144C55.2729 33.3095 55.6203 33.2948 56.001 33.2753L55.9905 33.0702ZM55.0744 33.1092C55.0351 33.1108 55.0195 33.1008 55.0123 33.0935C55.0035 33.0845 54.9882 33.06 54.9862 32.9987L54.781 33.0053C54.7839 33.0952 54.8075 33.178 54.8658 33.2374C54.9257 33.2983 55.0052 33.3176 55.083 33.3143L55.0744 33.1092ZM54.9862 32.9988C54.9842 32.9347 54.9979 32.9031 55.0079 32.8896C55.0158 32.879 55.0271 32.8715 55.0497 32.8704L55.0394 32.6653C54.9644 32.6691 54.8928 32.7006 54.8434 32.7668C54.7961 32.8302 54.7781 32.9133 54.781 33.0052L54.9862 32.9988ZM55.0485 32.8705C55.5632 32.8508 56.9062 32.7876 57.4036 32.7729L57.3976 32.5677C56.8999 32.5823 55.5503 32.6459 55.0406 32.6653L55.0485 32.8705ZM57.4044 32.7729C57.4588 32.7709 57.4706 32.7824 57.4725 32.7843C57.4767 32.7886 57.4909 32.8083 57.4931 32.8784L57.6983 32.872C57.6957 32.7859 57.6782 32.7008 57.619 32.6405C57.5575 32.5777 57.4741 32.5649 57.3968 32.5677L57.4044 32.7729ZM57.4931 32.8785C57.4952 32.9432 57.4826 32.9679 57.4749 32.977C57.4688 32.9844 57.4521 32.9982 57.3982 33.0021L57.4128 33.2068C57.4955 33.2009 57.5764 33.1757 57.6324 33.1087C57.687 33.0435 57.7011 32.9584 57.6983 32.8719L57.4931 32.8785ZM57.4 33.0019C57.2187 33.0117 56.898 33.0312 56.5379 33.0458L56.5463 33.2509C56.9081 33.2363 57.2313 33.2167 57.411 33.207L57.4 33.0019ZM56.4395 33.1525C56.4541 33.5118 56.4589 34.1092 56.4638 34.428L56.6691 34.4248C56.6643 34.1094 56.6594 33.5069 56.6447 33.1442L56.4395 33.1525ZM56.5011 34.5055C56.6859 34.6583 56.8583 34.7888 57.0193 34.9102C57.1809 35.032 57.33 35.1438 57.4716 35.2615L57.6028 35.1035C57.4566 34.9821 57.3033 34.8671 57.1429 34.7462C56.982 34.6249 56.8129 34.4969 56.6319 34.3473L56.5011 34.5055ZM57.4711 35.261C57.5085 35.2926 57.5198 35.3152 57.5225 35.3288C57.5246 35.3394 57.5251 35.3612 57.4968 35.4019L57.6654 35.5192C57.7151 35.4476 57.74 35.3695 57.7238 35.2886C57.7083 35.2107 57.6585 35.1505 57.6033 35.104L57.4711 35.261ZM57.4946 35.4052C57.4575 35.4633 57.4309 35.4879 57.4145 35.4961C57.4087 35.499 57.4055 35.4992 57.4027 35.4989C57.399 35.4986 57.3894 35.4967 57.3728 35.4861L57.2626 35.6593C57.3409 35.7092 57.4257 35.7201 57.5063 35.6798C57.5752 35.6453 57.6267 35.5797 57.6676 35.5159L57.4946 35.4052ZM57.3736 35.4866C57.1002 35.3092 56.7085 35.0095 56.4073 34.7617L56.2769 34.9203C56.5806 35.1701 56.9791 35.4753 57.2618 35.6588L57.3736 35.4866ZM58.43 36.0963C58.4239 36.1734 58.4022 36.2058 58.3861 36.2198C58.3704 36.2335 58.3427 36.2448 58.2909 36.241L58.2762 36.4458C58.361 36.4519 58.4503 36.4363 58.5212 36.3744C58.5917 36.3128 58.6261 36.2208 58.6347 36.1125L58.43 36.0963ZM58.2906 36.241C58.2397 36.2375 58.2204 36.2231 58.2089 36.2072C58.193 36.1852 58.1764 36.1384 58.1764 36.041H57.9711C57.9711 36.1534 57.9887 36.2529 58.0424 36.3273C58.1004 36.4077 58.186 36.4396 58.2765 36.4459L58.2906 36.241ZM58.1764 36.041C58.1764 34.9593 58.1959 33.8776 58.2349 32.8106L58.0297 32.8031C57.9907 33.8727 57.9711 34.9569 57.9711 36.041H58.1764ZM58.2349 32.8097C58.2371 32.7327 58.254 32.7065 58.2663 32.6953C58.2807 32.6823 58.3155 32.6656 58.4055 32.6656V32.4603C58.3003 32.4603 58.201 32.4778 58.1288 32.5428C58.0546 32.6098 58.0324 32.7055 58.0297 32.804L58.2349 32.8097ZM58.4055 32.6656C58.479 32.6656 58.5101 32.6831 58.5245 32.6979C58.5396 32.7134 58.5565 32.7466 58.5565 32.8215H58.7618C58.7618 32.7209 58.7397 32.6248 58.6718 32.5549C58.6033 32.4844 58.5076 32.4603 58.4055 32.4603V32.6656ZM58.5565 32.8206C58.5468 33.8823 58.5029 35.1142 58.4299 36.0968L58.6347 36.112C58.7081 35.124 58.752 33.8875 58.7618 32.8225L58.5565 32.8206ZM60.4683 36.3386L60.3657 36.3342L60.3657 36.3351L60.4683 36.3386ZM60.2098 36.5581L60.2148 36.6606L60.2156 36.6606L60.2098 36.5581ZM59.522 36.5337L59.5086 36.6355L59.5098 36.6356L59.522 36.5337ZM59.3464 36.2898L59.449 36.2927L59.449 36.2921L59.3464 36.2898ZM59.5756 36.0849L59.5725 36.1876H59.5756V36.0849ZM59.9464 36.0898L59.9371 35.9874L59.9308 35.9883L59.9464 36.0898ZM60.0244 35.9874L60.127 35.9947L60.1271 35.9889L60.0244 35.9874ZM59.9317 32.924L59.9519 32.8231L59.9453 32.8222L59.9317 32.924ZM59.2732 32.7093L59.3758 32.7047L59.3757 32.7042L59.2732 32.7093ZM59.4732 32.4654L59.4698 32.3628L59.4679 32.3629L59.4732 32.4654ZM60.2098 32.4557L60.2129 32.3531L60.212 32.353L60.2098 32.4557ZM60.4683 32.6752L60.5708 32.6694L60.5707 32.6676L60.4683 32.6752ZM60.3657 36.3351C60.3639 36.3887 60.3493 36.4093 60.3357 36.4205C60.3179 36.4353 60.2806 36.4512 60.2039 36.4556L60.2156 36.6606C60.3097 36.6552 60.3993 36.6345 60.4667 36.5786C60.5386 36.5191 60.5678 36.4348 60.5709 36.342L60.3657 36.3351ZM60.2048 36.4555C60.0105 36.465 59.7333 36.4555 59.5341 36.4318L59.5098 36.6356C59.7204 36.6607 60.009 36.6707 60.2148 36.6606L60.2048 36.4555ZM59.5354 36.4319C59.4918 36.4262 59.4681 36.4199 59.4552 36.4146C59.4451 36.4103 59.4484 36.4095 59.4515 36.4149C59.4528 36.4171 59.4496 36.4133 59.4482 36.3903C59.4468 36.3671 59.4477 36.3377 59.449 36.2927L59.2438 36.2869C59.2426 36.3272 59.2411 36.368 59.2432 36.4027C59.2453 36.4377 59.2515 36.4795 59.2742 36.5183C59.3232 36.6025 59.4187 36.6236 59.5086 36.6355L59.5354 36.4319ZM59.449 36.2921C59.4501 36.2419 59.4547 36.213 59.4597 36.1968C59.464 36.1828 59.4662 36.1858 59.4604 36.1898C59.457 36.1921 59.4592 36.1887 59.4805 36.187C59.5023 36.1854 59.5299 36.1862 59.5725 36.1875L59.5788 35.9823C59.5409 35.9812 59.5002 35.9796 59.4647 35.9823C59.4287 35.9851 59.3845 35.993 59.3446 36.0203C59.3021 36.0493 59.2775 36.091 59.2635 36.1363C59.2502 36.1793 59.245 36.2303 59.2437 36.2875L59.449 36.2921ZM59.5756 36.1876C59.6149 36.1876 59.6873 36.1911 59.765 36.1936C59.8348 36.1959 59.9185 36.1979 59.962 36.1913L59.9308 35.9883C59.9108 35.9914 59.8506 35.991 59.7717 35.9884C59.7005 35.9861 59.6193 35.9823 59.5756 35.9823V36.1876ZM59.9557 36.192C60.0007 36.1879 60.051 36.171 60.0862 36.1235C60.1165 36.0826 60.1241 36.0334 60.1268 35.9947L59.922 35.98C59.9211 35.9933 59.9196 36.0008 59.9186 36.0047C59.9176 36.0084 59.9177 36.006 59.9212 36.0012C59.923 35.9988 59.9254 35.9962 59.9283 35.9938C59.9312 35.9914 59.934 35.9898 59.9364 35.9886C59.9409 35.9865 59.9422 35.9871 59.9371 35.9876L59.9557 36.192ZM60.1271 35.9889C60.1368 35.3495 60.1124 33.5445 60.1124 33.0264H59.9071C59.9071 33.5522 59.9315 35.3472 59.9218 35.9858L60.1271 35.9889ZM60.1124 33.0264C60.1124 32.9794 60.1015 32.9305 60.0686 32.8902C60.0356 32.8497 59.9914 32.8312 59.9519 32.8233L59.9116 33.0246C59.9162 33.0256 59.9173 33.0263 59.9163 33.0258C59.915 33.0251 59.9122 33.0232 59.9095 33.0199C59.9068 33.0166 59.906 33.0141 59.906 33.0142C59.9062 33.0147 59.9071 33.0183 59.9071 33.0264H60.1124ZM59.9453 32.8222C59.9012 32.8163 59.8037 32.814 59.7167 32.8128C59.6263 32.8115 59.5366 32.8115 59.5025 32.8115V33.0169C59.5366 33.0169 59.625 33.0169 59.7139 33.0181C59.8062 33.0193 59.8891 33.0218 59.9182 33.0257L59.9453 32.8222ZM59.5025 32.8115C59.4599 32.8115 59.4333 32.812 59.4111 32.8101C59.3897 32.8082 59.3871 32.805 59.3899 32.8068C59.3953 32.8104 59.3931 32.8131 59.3886 32.7994C59.3833 32.7834 59.378 32.7548 59.3758 32.7047L59.1707 32.714C59.1754 32.8191 59.1925 32.922 59.276 32.9777C59.3154 33.0039 59.3585 33.0116 59.3933 33.0146C59.4271 33.0176 59.467 33.0169 59.5025 33.0169V32.8115ZM59.3757 32.7042C59.3733 32.6558 59.3732 32.6239 59.3756 32.6015C59.3781 32.5794 59.382 32.5773 59.3793 32.5808C59.3755 32.5857 59.3734 32.5832 59.3884 32.579C59.4052 32.5742 59.4326 32.5703 59.4785 32.568L59.4679 32.3629C59.4187 32.3654 59.3723 32.3701 59.3323 32.3815C59.2904 32.3934 59.2484 32.4146 59.2171 32.4549C59.187 32.4938 59.176 32.5386 59.1715 32.5791C59.1671 32.6192 59.1682 32.6653 59.1707 32.7145L59.3757 32.7042ZM59.4766 32.568C59.6231 32.5632 59.9815 32.5535 60.2076 32.5583L60.212 32.353C59.9796 32.3481 59.616 32.358 59.4698 32.3628L59.4766 32.568ZM60.2067 32.5583C60.2707 32.5602 60.3077 32.5772 60.3282 32.5952C60.3477 32.6122 60.3627 32.6388 60.3659 32.6828L60.5707 32.6676C60.5642 32.5798 60.5304 32.4992 60.4633 32.4405C60.3973 32.3829 60.3098 32.356 60.2129 32.3531L60.2067 32.5583ZM60.3658 32.6809C60.4143 33.5447 60.3998 35.5264 60.3658 36.3342L60.5709 36.3429C60.6051 35.5312 60.6199 33.5423 60.5708 32.6694L60.3658 32.6809Z" fill="#757E85" mask="url(#path-10-outside-1_166_87247)"/>
    <defs>
        <linearGradient id="paint0_linear_166_87247" x1="64.3756" y1="37.0906" x2="63.9485" y2="61.2783" gradientUnits="userSpaceOnUse">
            <stop stop-color="#40454C"/>
            <stop offset="1" stop-color="#40454C" stop-opacity="0"/>
        </linearGradient>
        <linearGradient id="paint1_linear_166_87247" x1="20.8872" y1="29.1817" x2="20.2756" y2="16.5406" gradientUnits="userSpaceOnUse">
            <stop offset="0.486953" stop-color="#676767" stop-opacity="0.5"/>
            <stop offset="0.487053" stop-color="white" stop-opacity="0"/>
        </linearGradient>
        <clipPath id="clip0_166_87247">
            <rect width="25.0869" height="25.0869" fill="white" transform="translate(11.0703 9.84424)"/>
        </clipPath>
    </defs>
</svg>